<svg width="1440" height="350" viewBox="0 0 1440 350" fill="none" xmlns="http://www.w3.org/2000/svg">
<g clip-path="url(#clip0)">
<g style="mix-blend-mode:multiply" opacity="0.5">
<path d="M2356.12 282.633C49.5403 298.158 421.345 141.639 -303.965 146.521L-305.576 300.548L2356.12 282.633Z" fill="#94DCA8"/>
</g>
<g style="mix-blend-mode:multiply" opacity="0.5">
<path d="M215.265 132.503C-34.4255 113.18 -59.3409 157.463 -277.126 159.944L-295.765 251.336L1833.55 391.064L1880.8 159.345C1410.58 128.489 1016.73 244.848 831.891 232.719C647.054 220.59 525.056 156.479 215.265 132.503Z" fill="#94DCA8"/>
</g>
<g style="mix-blend-mode:multiply" opacity="0.5">
<path d="M2117.43 360.583L-289.875 292.331L-283.636 232.552C-85.7331 248.327 132.906 264.043 447.563 272.964C1269.56 296.269 1526.63 204.333 2135.37 188.73L2117.43 360.583Z" fill="#94DCA8"/>
</g>
<path d="M2571.72 421.649L-54.8196 372.311L-52.8341 268.43C313.228 294.918 642.491 228.75 1119.17 237.704C1820.66 250.881 1804.42 314.776 2574.07 298.823L2571.72 421.649Z" fill="white"/>
<path d="M-283.501 271.652C-127.722 270.603 579.703 200.835 910.938 198.605C1242.17 196.376 1731.34 301.095 2128.16 298.424" stroke="#57B972" stroke-dasharray="1 8"/>
<circle cx="724.5" cy="115.5" r="6.5" fill="#57B972"/>
<circle r="17.5" transform="matrix(1 0 0 -1 125.5 68.5)" fill="#57B972"/>
<circle cx="1311" cy="154" r="9" fill="#57B972"/>
<path d="M-284.389 195.663C27.1753 193.566 560.74 264.983 917.532 262.582C1274.32 260.18 1909.96 180.894 2126.05 179.439" stroke="#57B972" stroke-miterlimit="16" stroke-dasharray="1 8"/>
<circle cx="908.25" cy="230.25" r="74.25" fill="#57B972"/>
<path d="M884.084 228.813V212.888L908.25 202.276L932.416 212.888V228.813C932.416 243.678 922.069 257.548 908.25 261.067C894.431 257.548 884.084 243.678 884.084 228.813Z" fill="#57B972" stroke="white" stroke-width="2.92035"/>
<path d="M883.591 222.923V212.769L908.25 201.648L932.909 212.769V222.439L908.25 211.802L883.591 222.923Z" fill="white"/>
<circle cx="351" cy="225" r="15" fill="#57B972"/>
</g>
<defs>
<clipPath id="clip0">
<rect width="1440" height="350" fill="white"/>
</clipPath>
</defs>
</svg>
