<svg width="1439" height="150" viewBox="0 0 1439 150" fill="none" xmlns="http://www.w3.org/2000/svg">
<g clip-path="url(#clip0)">
<path d="M-160.522 -94.5052C1247.59 -47.9693 1017.04 69.6056 1459.83 84.2389L1464.38 -40.8047L-160.522 -94.5052Z" fill="#E7EDFD" style="mix-blend-mode:multiply"/>
<path d="M1120.52 59.145C1293.52 67.2004 1305.72 30.5619 1454.49 21.921L1457.23 -52.6963L-15.3109 -101.084L-22.2544 88.1027C302.932 98.7884 559.719 -7.48156 687.544 -3.2812C815.369 0.919162 905.887 49.1507 1120.52 59.145Z" fill="#E7EDFD" style="mix-blend-mode:multiply"/>
<path d="M-14.5146 -90.3141L1458.02 -41.649L1456.25 6.93138C1334.85 -5.32658 1200.78 -17.4774 1008.31 -23.8383C505.5 -40.4555 351.641 34.9545 -19.5967 49.345L-14.5146 -90.3141Z" fill="#E7EDFD" style="mix-blend-mode:multiply"/>
<path d="M1456.33 -17.495C1361.24 -20.6379 927.865 17.8815 725.655 11.1987C523.444 4.51599 227.324 -93.0687 -14.9286 -101.075" stroke="#4285F4" stroke-dasharray="1 8"/>
<circle cx="296.07" cy="46.0701" r="5.18065" transform="rotate(1.56609 296.07 46.0701)" fill="#4285F4" stroke="#4285F4" stroke-width="1.46018"/>
<circle cx="921.214" cy="88.4103" r="16.2699" transform="rotate(1.56609 921.214 88.4103)" fill="#4285F4" stroke="#4285F4" stroke-width="1.46018"/>
<circle cx="1358.7" cy="82.598" r="8.26991" transform="rotate(1.56609 1358.7 82.598)" fill="#4285F4" stroke="#4285F4" stroke-width="1.46018"/>
<path d="M1452.63 46.3625C1262.43 40.0766 938.441 -31.6019 720.629 -38.8002C502.817 -45.9986 113.038 2.09088 -18.8764 -2.2687" stroke="#4285F4" stroke-miterlimit="16" stroke-dasharray="1 8"/>
</g>
<defs>
<clipPath id="clip0">
<rect width="1439" height="150" fill="white"/>
</clipPath>
</defs>
</svg>
