<svg width="1440" height="314" viewBox="0 0 1440 314" fill="none" xmlns="http://www.w3.org/2000/svg">
<g clip-path="url(#clip0)">
<rect width="1440" height="314" fill="white"/>
<path d="M1599.87 253.704C191.012 243.815 418.257 91.4064 -24.7605 88.2969L-25.8921 242.293L1599.87 253.704Z" fill="#E7EDFD" style="mix-blend-mode:multiply"/>
<path d="M315.5 131.5C142.346 127.368 131.166 172.853 -17.311 188.454L-17.9862 280.349L1455.33 290.691L1457.04 57.6968C1131.68 55.4131 877.932 194.738 750.04 193.84C622.148 192.943 530.332 136.626 315.5 131.5Z" fill="#E7EDFD" style="mix-blend-mode:multiply"/>
<path d="M1454.33 286.684L-18.9801 276.342L-18.5405 216.514C103.152 227.511 237.499 237.951 430.074 239.302C933.151 242.834 1084.89 144.88 1455.6 114.688L1454.33 286.684Z" fill="#E7EDFD" style="mix-blend-mode:multiply"/>
<path d="M1454.17 308.682L-19.1415 298.341L-18.6005 224.712C186.844 240.05 371.139 190.077 638.526 191.954C1032.01 194.716 1023.26 240.144 1454.81 221.626L1454.17 308.682Z" fill="white"/>
<path d="M-18.4876 213.344C76.6618 214.012 508.817 152.044 711.135 153.464C913.453 154.884 1212.13 264.983 1454.51 266.684" stroke="#4285F4" stroke-dasharray="1 8"/>
<circle cx="235.5" cy="69.5" r="6.5" fill="#4285F4"/>
<circle cx="942" cy="141" r="17" fill="#4285F4"/>
<circle cx="1348" cy="103" r="9" fill="#1A73E8"/>
<path d="M-18.9578 137.353C171.345 138.688 497.174 215.977 715.102 217.507C933.029 219.037 1321.35 146.76 1453.33 147.687" stroke="#4285F4" stroke-miterlimit="16" stroke-dasharray="1 8"/>
<circle cx="719.5" cy="180.5" r="56.5" fill="#F5F5F5"/>
<circle cx="351" cy="175" r="15" fill="#4285F4"/>
<circle cx="1181" cy="171" r="30" fill="#4285F4"/>
<path d="M744.701 157H694.141C693.51 157 693 157.51 693 158.141C693 158.141 693 186.243 693 186.483C693.36 200.774 705.039 212.243 719.421 212.243C733.802 212.243 745.481 200.774 745.842 186.453C745.842 186.243 745.842 158.111 745.842 158.111C745.842 157.51 745.331 157 744.701 157Z" fill="#4285F4"/>
<path d="M733.442 169.28H705.4V203.447H733.442V169.28Z" fill="white"/>
<path d="M719.424 188.675C722.376 188.675 724.768 186.282 724.768 183.331C724.768 180.379 722.376 177.987 719.424 177.987C716.473 177.987 714.08 180.379 714.08 183.331C714.08 186.282 716.473 188.675 719.424 188.675Z" fill="#919191"/>
<path d="M719.42 198.252L708.732 190.266H730.109L719.42 198.252Z" fill="#919191"/>
<path d="M719.424 188.675C722.376 188.675 724.768 186.282 724.768 183.331C724.768 180.379 722.376 177.987 719.424 177.987C716.473 177.987 714.08 180.379 714.08 183.331C714.08 186.282 716.473 188.675 719.424 188.675Z" fill="#919191"/>
<path d="M719.42 198.252L708.732 190.266H730.109L719.42 198.252Z" fill="#919191"/>
<path d="M694.141 157C693.51 157 693 157.51 693 158.141C693 158.141 693 186.243 693 186.483C693.21 195.64 698.104 203.657 705.37 208.22V157H694.141Z" fill="#FBBC05"/>
<path d="M719.391 202.816L693 184.592C693 185.733 693 186.423 693 186.453C693.24 196.991 699.665 205.999 708.792 209.992L719.391 202.816Z" fill="#57B972"/>
<path d="M719.422 212.243C733.803 212.243 745.483 200.774 745.843 186.453C745.843 186.423 745.843 185.853 745.843 184.862L708.794 210.022C712.036 211.433 715.639 212.243 719.422 212.243Z" fill="#EA4335"/>
</g>
<defs>
<clipPath id="clip0">
<rect width="1440" height="314" fill="white"/>
</clipPath>
</defs>
</svg>
