<svg width="130" height="118" viewBox="0 0 130 118" fill="none" xmlns="http://www.w3.org/2000/svg">
<path d="M109.633 52.974H101.607V39.6439H16.1865V90.7877C16.1531 94.1837 16.8112 97.5509 18.1207 100.684C19.4302 103.818 21.3638 106.652 23.8036 109.015H0V117.176H117.658V109.015H93.9903C96.4302 106.652 98.3637 103.818 99.6733 100.684C100.983 97.5509 101.641 94.1837 101.607 90.7877V90.5157H109.633C112.223 90.7368 114.831 90.4174 117.291 89.5779C119.751 88.7384 122.01 87.397 123.925 85.6387C125.84 83.8805 127.369 81.7436 128.414 79.3637C129.46 76.9837 130 74.4124 130 71.8128C130 69.2133 129.46 66.642 128.414 64.262C127.369 61.882 125.84 59.7452 123.925 57.9869C122.01 56.2286 119.751 54.8873 117.291 54.0477C114.831 53.2082 112.223 52.8889 109.633 53.11V52.974ZM24.3477 78.5459C27.0026 78.6938 29.6411 79.0577 32.2369 79.634C36.7395 80.6829 41.3522 81.1853 45.975 81.1303C50.5979 81.1853 55.2105 80.6829 59.7131 79.634C63.6834 78.7339 67.7488 78.3228 71.8189 78.4098C75.889 78.3228 79.9545 78.7339 83.9248 79.634C86.9647 80.3443 90.0586 80.7992 93.1742 80.9942V85.0749C93.1766 85.63 93.2685 86.1812 93.4462 86.7071V90.6517C93.4462 103.166 82.7006 108.742 72.6351 108.742H45.1589C35.0933 108.742 24.3477 103.03 24.3477 90.6517V78.5459ZM93.4462 47.8052V56.6465C93.2685 57.1725 93.1766 57.7236 93.1742 58.2788V72.833C90.6107 72.669 88.0639 72.3051 85.557 71.7448C81.0544 70.696 76.4418 70.1936 71.8189 70.2486C67.1961 70.1936 62.5835 70.696 58.0809 71.7448C54.1106 72.645 50.0451 73.0561 45.975 72.969C41.9049 73.0561 37.8394 72.645 33.8692 71.7448C30.7403 71.0187 27.5547 70.5637 24.3477 70.3846V47.8052H93.4462ZM109.633 82.2184H101.607V61.1352H109.633C111.118 60.9663 112.621 61.1129 114.046 61.5656C115.47 62.0183 116.783 62.7668 117.897 63.762C119.012 64.7572 119.904 65.9768 120.515 67.3407C121.126 68.7047 121.442 70.1823 121.442 71.6768C121.442 73.1713 121.126 74.6489 120.515 76.0129C119.904 77.3769 119.012 78.5964 117.897 79.5916C116.783 80.5869 115.47 81.3353 114.046 81.788C112.621 82.2407 111.118 82.3874 109.633 82.2184Z" fill="black"/>
<path d="M76.5797 6.99896H68.4185V29.1023H76.5797V6.99896Z" fill="black"/>
<path d="M55.2971 -1.79493e-06L54.4348 23.5158L62.5906 23.8148L63.4529 0.299056L55.2971 -1.79493e-06Z" fill="black"/>
<path d="M49.3756 7.271H41.2144V29.3744H49.3756V7.271Z" fill="black"/>
</svg>
