<svg width="769" height="200" viewBox="0 0 769 200" fill="none" xmlns="http://www.w3.org/2000/svg">
<g clip-path="url(#clip0)">
<rect width="769" height="200" fill="white"/>
<line x1="8.74228e-08" y1="99" x2="769" y2="99.0001" stroke="#F5F5F5" stroke-width="2"/>
<rect x="49" y="-25" width="249" height="49" transform="rotate(90 49 -25)" fill="url(#paint0_linear)"/>
<rect x="720" y="224" width="249" height="49" transform="rotate(-90 720 224)" fill="url(#paint1_linear)"/>
<circle cx="486" cy="100" r="8.5" fill="white" stroke="#FBBC05" stroke-width="3"/>
<circle cx="688" cy="100" r="8.5" fill="white" stroke="#EA4335" stroke-width="3"/>
<circle cx="284" cy="100" r="30" fill="#57B972"/>
<path d="M280.435 103.858C280.831 103.462 281.593 102.7 282.721 101.572C283.861 100.432 284.593 99.688 284.917 99.34C285.349 98.872 285.643 98.482 285.799 98.17C285.967 97.858 286.051 97.504 286.051 97.108C286.051 96.688 285.895 96.334 285.583 96.046C285.271 95.758 284.857 95.614 284.341 95.614C283.837 95.614 283.429 95.758 283.117 96.046C282.805 96.334 282.583 96.694 282.451 97.126L280.327 96.244C280.459 95.776 280.699 95.326 281.047 94.894C281.407 94.45 281.869 94.09 282.433 93.814C282.997 93.538 283.645 93.4 284.377 93.4C285.193 93.4 285.907 93.562 286.519 93.886C287.131 94.198 287.605 94.63 287.941 95.182C288.277 95.722 288.445 96.328 288.445 97C288.445 98.332 287.797 99.634 286.501 100.906C285.973 101.422 284.995 102.394 283.567 103.822L283.621 103.93H288.607V106H280.435V103.858Z" fill="white"/>
<circle cx="82" cy="100" r="8.5" fill="white" stroke="#4285F4" stroke-width="3"/>
</g>
<defs>
<linearGradient id="paint0_linear" x1="173.5" y1="-25" x2="173.5" y2="24" gradientUnits="userSpaceOnUse">
<stop stop-color="white" stop-opacity="0"/>
<stop offset="0.791667" stop-color="white"/>
</linearGradient>
<linearGradient id="paint1_linear" x1="844.5" y1="224" x2="844.5" y2="273" gradientUnits="userSpaceOnUse">
<stop stop-color="white" stop-opacity="0"/>
<stop offset="0.791667" stop-color="white"/>
</linearGradient>
<clipPath id="clip0">
<rect width="769" height="200" fill="white"/>
</clipPath>
</defs>
</svg>
