<svg width="769" height="200" viewBox="0 0 769 200" fill="none" xmlns="http://www.w3.org/2000/svg">
<g clip-path="url(#clip0)">
<rect width="769" height="200" fill="white"/>
<line x1="8.74228e-08" y1="99" x2="769" y2="99.0001" stroke="#F5F5F5" stroke-width="2"/>
<rect x="49" y="-25" width="249" height="49" transform="rotate(90 49 -25)" fill="url(#paint0_linear)"/>
<rect x="720" y="224" width="249" height="49" transform="rotate(-90 720 224)" fill="url(#paint1_linear)"/>
<circle cx="688" cy="100" r="8.5" fill="white" stroke="#EA4335" stroke-width="3"/>
<circle cx="82" cy="100" r="8.5" fill="white" stroke="#4285F4" stroke-width="3"/>
<circle cx="486" cy="100" r="30" fill="#FBBC05"/>
<path d="M486.497 106.288C485.453 106.288 484.529 106.012 483.725 105.46C482.933 104.908 482.387 104.104 482.087 103.048L484.319 102.166C484.463 102.754 484.721 103.21 485.093 103.534C485.465 103.846 485.933 104.002 486.497 104.002C487.013 104.002 487.457 103.846 487.829 103.534C488.213 103.222 488.405 102.826 488.405 102.346C488.405 101.83 488.201 101.422 487.793 101.122C487.397 100.81 486.857 100.654 486.173 100.654H485.111V98.512H486.083C486.611 98.512 487.055 98.38 487.415 98.116C487.787 97.852 487.973 97.468 487.973 96.964C487.973 96.556 487.823 96.22 487.523 95.956C487.223 95.692 486.839 95.56 486.371 95.56C485.879 95.56 485.483 95.692 485.183 95.956C484.883 96.22 484.673 96.55 484.553 96.946L482.411 96.064C482.663 95.344 483.125 94.72 483.797 94.192C484.481 93.664 485.345 93.4 486.389 93.4C487.157 93.4 487.841 93.544 488.441 93.832C489.053 94.12 489.527 94.516 489.863 95.02C490.199 95.512 490.367 96.07 490.367 96.694C490.367 97.354 490.211 97.918 489.899 98.386C489.599 98.854 489.233 99.196 488.801 99.412V99.556C489.401 99.796 489.887 100.174 490.259 100.69C490.631 101.206 490.817 101.83 490.817 102.562C490.817 103.27 490.637 103.906 490.277 104.47C489.917 105.034 489.407 105.478 488.747 105.802C488.099 106.126 487.349 106.288 486.497 106.288Z" fill="white"/>
<circle cx="284" cy="100" r="8.5" fill="white" stroke="#57B972" stroke-width="3"/>
</g>
<defs>
<linearGradient id="paint0_linear" x1="173.5" y1="-25" x2="173.5" y2="24" gradientUnits="userSpaceOnUse">
<stop stop-color="white" stop-opacity="0"/>
<stop offset="0.791667" stop-color="white"/>
</linearGradient>
<linearGradient id="paint1_linear" x1="844.5" y1="224" x2="844.5" y2="273" gradientUnits="userSpaceOnUse">
<stop stop-color="white" stop-opacity="0"/>
<stop offset="0.791667" stop-color="white"/>
</linearGradient>
<clipPath id="clip0">
<rect width="769" height="200" fill="white"/>
</clipPath>
</defs>
</svg>
