<svg width="1440" height="250" viewBox="0 0 1440 250" fill="none" xmlns="http://www.w3.org/2000/svg">
<g clip-path="url(#clip0)">
<rect width="1440" height="250" fill="white"/>
<line x1="8.74228e-08" y1="124" x2="1440" y2="124" stroke="#F5F5F5" stroke-width="2"/>
<rect x="119" width="249" height="119" transform="rotate(90 119 0)" fill="url(#paint0_linear)"/>
<rect x="1321" y="249" width="249" height="119" transform="rotate(-90 1321 249)" fill="url(#paint1_linear)"/>
<circle cx="236" cy="125" r="8.5" fill="white" stroke="#4285F4" stroke-width="3"/>
<circle cx="1205" cy="125" r="8.5" fill="white" stroke="#EA4335" stroke-width="3"/>
<circle cx="882" cy="125" r="30" fill="#FBBC05"/>
<path d="M882.497 131.288C881.453 131.288 880.529 131.012 879.725 130.46C878.933 129.908 878.387 129.104 878.087 128.048L880.319 127.166C880.463 127.754 880.721 128.21 881.093 128.534C881.465 128.846 881.933 129.002 882.497 129.002C883.013 129.002 883.457 128.846 883.829 128.534C884.213 128.222 884.405 127.826 884.405 127.346C884.405 126.83 884.201 126.422 883.793 126.122C883.397 125.81 882.857 125.654 882.173 125.654H881.111V123.512H882.083C882.611 123.512 883.055 123.38 883.415 123.116C883.787 122.852 883.973 122.468 883.973 121.964C883.973 121.556 883.823 121.22 883.523 120.956C883.223 120.692 882.839 120.56 882.371 120.56C881.879 120.56 881.483 120.692 881.183 120.956C880.883 121.22 880.673 121.55 880.553 121.946L878.411 121.064C878.663 120.344 879.125 119.72 879.797 119.192C880.481 118.664 881.345 118.4 882.389 118.4C883.157 118.4 883.841 118.544 884.441 118.832C885.053 119.12 885.527 119.516 885.863 120.02C886.199 120.512 886.367 121.07 886.367 121.694C886.367 122.354 886.211 122.918 885.899 123.386C885.599 123.854 885.233 124.196 884.801 124.412V124.556C885.401 124.796 885.887 125.174 886.259 125.69C886.631 126.206 886.817 126.83 886.817 127.562C886.817 128.27 886.637 128.906 886.277 129.47C885.917 130.034 885.407 130.478 884.747 130.802C884.099 131.126 883.349 131.288 882.497 131.288Z" fill="white"/>
<circle cx="578" cy="125" r="8.5" fill="white" stroke="#57B972" stroke-width="3"/>
</g>
<defs>
<linearGradient id="paint0_linear" x1="243.5" y1="0" x2="243.5" y2="119" gradientUnits="userSpaceOnUse">
<stop stop-color="white" stop-opacity="0"/>
<stop offset="0.791667" stop-color="white"/>
</linearGradient>
<linearGradient id="paint1_linear" x1="1445.5" y1="249" x2="1445.5" y2="368" gradientUnits="userSpaceOnUse">
<stop stop-color="white" stop-opacity="0"/>
<stop offset="0.791667" stop-color="white"/>
</linearGradient>
<clipPath id="clip0">
<rect width="1440" height="250" fill="white"/>
</clipPath>
</defs>
</svg>
