<svg width="1440" height="240" viewBox="0 0 1440 240" fill="none" xmlns="http://www.w3.org/2000/svg">
<g clip-path="url(#clip0)">
<rect width="1440" height="240" fill="white"/>
<line x1="8.74228e-08" y1="124" x2="1440" y2="124" stroke="#F5F5F5" stroke-width="2"/>
<rect x="119" width="249" height="119" transform="rotate(90 119 0)" fill="url(#paint0_linear)"/>
<rect x="1321" y="249" width="249" height="119" transform="rotate(-90 1321 249)" fill="url(#paint1_linear)"/>
<circle cx="882" cy="125" r="8.5" fill="white" stroke="#FBBC05" stroke-width="3"/>
<circle cx="236" cy="125" r="8.5" fill="white" stroke="#4285F4" stroke-width="3"/>
<circle cx="1205" cy="125" r="8.5" fill="white" stroke="#EA4335" stroke-width="3"/>
<circle cx="559" cy="125" r="30" fill="#57B972"/>
<path d="M555.435 128.858C555.831 128.462 556.593 127.7 557.721 126.572C558.861 125.432 559.593 124.688 559.917 124.34C560.349 123.872 560.643 123.482 560.799 123.17C560.967 122.858 561.051 122.504 561.051 122.108C561.051 121.688 560.895 121.334 560.583 121.046C560.271 120.758 559.857 120.614 559.341 120.614C558.837 120.614 558.429 120.758 558.117 121.046C557.805 121.334 557.583 121.694 557.451 122.126L555.327 121.244C555.459 120.776 555.699 120.326 556.047 119.894C556.407 119.45 556.869 119.09 557.433 118.814C557.997 118.538 558.645 118.4 559.377 118.4C560.193 118.4 560.907 118.562 561.519 118.886C562.131 119.198 562.605 119.63 562.941 120.182C563.277 120.722 563.445 121.328 563.445 122C563.445 123.332 562.797 124.634 561.501 125.906C560.973 126.422 559.995 127.394 558.567 128.822L558.621 128.93H563.607V131H555.435V128.858Z" fill="white"/>
</g>
<defs>
<linearGradient id="paint0_linear" x1="243.5" y1="0" x2="243.5" y2="119" gradientUnits="userSpaceOnUse">
<stop stop-color="white" stop-opacity="0"/>
<stop offset="0.791667" stop-color="white"/>
</linearGradient>
<linearGradient id="paint1_linear" x1="1445.5" y1="249" x2="1445.5" y2="368" gradientUnits="userSpaceOnUse">
<stop stop-color="white" stop-opacity="0"/>
<stop offset="0.791667" stop-color="white"/>
</linearGradient>
<clipPath id="clip0">
<rect width="1440" height="240" fill="white"/>
</clipPath>
</defs>
</svg>
