<svg width="400" height="798" viewBox="0 0 400 798" fill="none" xmlns="http://www.w3.org/2000/svg">
<g clip-path="url(#clip0)">
<rect width="400" height="797.554" fill="white"/>
<rect x="399" y="1" width="796" height="398" rx="5" transform="rotate(90 399 1)" fill="white" stroke="#D2DCFA" stroke-width="2"/>
<line y1="50" x2="400" y2="50" stroke="#D2DCFA" stroke-width="2"/>
<path d="M26.076 23.42C25.9267 22.6267 25.3667 22.23 24.396 22.23C23.92 22.23 23.5467 22.328 23.276 22.524C23.0147 22.7107 22.884 22.9393 22.884 23.21C22.884 23.4807 22.968 23.6953 23.136 23.854C23.3133 24.0033 23.584 24.1433 23.948 24.274L25.922 25.044C26.594 25.3053 27.112 25.6367 27.476 26.038C27.84 26.43 28.022 26.9247 28.022 27.522C28.022 28.3433 27.714 28.9967 27.098 29.482C26.482 29.958 25.6047 30.196 24.466 30.196C23.458 30.196 22.6413 29.9487 22.016 29.454C21.316 28.9127 20.9473 28.1473 20.91 27.158H22.548C22.548 27.9047 22.9353 28.376 23.71 28.572C23.9433 28.6373 24.2513 28.67 24.634 28.67C25.0167 28.67 25.3713 28.5767 25.698 28.39C26.0247 28.194 26.188 27.9373 26.188 27.62C26.188 27.2933 26.0993 27.046 25.922 26.878C25.7447 26.7007 25.4553 26.5373 25.054 26.388L23.248 25.674C22.548 25.4033 22.0113 25.086 21.638 24.722C21.2647 24.358 21.078 23.854 21.078 23.21C21.078 22.454 21.372 21.8567 21.96 21.418C22.5573 20.9607 23.3647 20.732 24.382 20.732C25.4087 20.732 26.1973 20.97 26.748 21.446C27.308 21.9127 27.63 22.5707 27.714 23.42H26.076ZM35.9977 24.484C36.4364 23.504 37.2064 23.014 38.3077 23.014C39.1197 23.014 39.7497 23.2893 40.1977 23.84C40.6271 24.3627 40.8417 25.0907 40.8417 26.024V30H39.1757V26.024C39.1757 25.52 39.0544 25.142 38.8117 24.89C38.5691 24.6287 38.2284 24.498 37.7897 24.498C37.3511 24.498 36.9917 24.6893 36.7117 25.072C36.4317 25.4547 36.2824 26.0333 36.2637 26.808V30H34.6117V26.024C34.6117 25.52 34.4904 25.142 34.2477 24.89C34.0051 24.6287 33.6644 24.498 33.2257 24.498C32.7871 24.498 32.4091 24.694 32.0917 25.086C31.7837 25.478 31.6204 26.066 31.6017 26.85V30H29.9497V23.196H31.3917L31.5737 24.372C32.0217 23.4667 32.7404 23.014 33.7297 23.014C34.2991 23.014 34.7704 23.1447 35.1437 23.406C35.5264 23.6673 35.8111 24.0267 35.9977 24.484ZM45.1988 26.024C45.7401 26.024 46.3655 26.1127 47.0748 26.29V25.618C47.0748 25.142 46.9768 24.792 46.7808 24.568C46.5941 24.3347 46.2815 24.218 45.8428 24.218C45.4135 24.218 45.0821 24.3067 44.8488 24.484C44.6155 24.652 44.4988 24.8947 44.4988 25.212H42.6928C42.6928 24.4373 42.9635 23.8773 43.5048 23.532C44.0555 23.1867 44.8208 23.014 45.8008 23.014C47.2008 23.014 48.1061 23.504 48.5168 24.484C48.6568 24.82 48.7268 25.2167 48.7268 25.674V30H47.2848L47.1588 29.09C46.7201 29.8273 46.0481 30.196 45.1428 30.196C44.2655 30.196 43.5841 29.9813 43.0988 29.552C42.6508 29.1413 42.4268 28.6233 42.4268 27.998C42.4268 27.3633 42.6741 26.878 43.1688 26.542C43.6635 26.1967 44.3401 26.024 45.1988 26.024ZM47.0748 27.34C46.5241 27.1907 46.0108 27.116 45.5348 27.116C44.6388 27.116 44.1908 27.4147 44.1908 28.012C44.1908 28.264 44.2935 28.4833 44.4988 28.67C44.7041 28.8473 45.0308 28.936 45.4788 28.936C45.9361 28.936 46.3095 28.7867 46.5988 28.488C46.8975 28.18 47.0561 27.7973 47.0748 27.34ZM50.8546 20.396H52.5066V30H50.8546V20.396ZM54.8265 20.396H56.4785V30H54.8265V20.396ZM60.8415 20.914H68.1215V22.342H65.3075V30H63.6555V22.342H60.8415V20.914ZM70.8827 24.302C71.3493 23.4433 72.0307 23.014 72.9267 23.014C73.8227 23.014 74.4807 23.2893 74.9007 23.84C75.33 24.3907 75.5447 25.1187 75.5447 26.024V30H73.8927V26.024C73.8927 25.52 73.7713 25.142 73.5287 24.89C73.286 24.6287 72.9453 24.498 72.5067 24.498C72.068 24.498 71.69 24.694 71.3727 25.086C71.0647 25.478 70.9013 26.066 70.8827 26.85V30H69.2307V20.396H70.8827V24.302ZM79.9133 26.024C80.4547 26.024 81.08 26.1127 81.7893 26.29V25.618C81.7893 25.142 81.6913 24.792 81.4953 24.568C81.3087 24.3347 80.996 24.218 80.5573 24.218C80.128 24.218 79.7967 24.3067 79.5633 24.484C79.33 24.652 79.2133 24.8947 79.2133 25.212H77.4073C77.4073 24.4373 77.678 23.8773 78.2193 23.532C78.77 23.1867 79.5353 23.014 80.5153 23.014C81.9153 23.014 82.8207 23.504 83.2313 24.484C83.3713 24.82 83.4413 25.2167 83.4413 25.674V30H81.9993L81.8733 29.09C81.4347 29.8273 80.7627 30.196 79.8573 30.196C78.98 30.196 78.2987 29.9813 77.8133 29.552C77.3653 29.1413 77.1413 28.6233 77.1413 27.998C77.1413 27.3633 77.3887 26.878 77.8833 26.542C78.378 26.1967 79.0547 26.024 79.9133 26.024ZM81.7893 27.34C81.2387 27.1907 80.7253 27.116 80.2493 27.116C79.3533 27.116 78.9053 27.4147 78.9053 28.012C78.9053 28.264 79.008 28.4833 79.2133 28.67C79.4187 28.8473 79.7453 28.936 80.1933 28.936C80.6507 28.936 81.024 28.7867 81.3133 28.488C81.612 28.18 81.7707 27.7973 81.7893 27.34ZM87.1931 24.372C87.6411 23.4667 88.3598 23.014 89.3491 23.014C90.1891 23.014 90.8191 23.2893 91.2391 23.84C91.6684 24.3907 91.8831 25.1187 91.8831 26.024V30H90.2311V26.024C90.2311 25.52 90.1098 25.142 89.8671 24.89C89.6244 24.6287 89.2838 24.498 88.8451 24.498C88.4064 24.498 88.0284 24.694 87.7111 25.086C87.4031 25.478 87.2398 26.066 87.2211 26.85V30H85.5691V23.196H87.0111L87.1931 24.372ZM96.4198 26.682L95.6638 27.312V30H94.0118V20.396H95.6638V25.59L98.3518 23.196H100.592L97.5818 25.716L100.76 30H98.7438L96.4198 26.682ZM102.708 27.928C102.727 28.572 103.198 28.894 104.122 28.894C104.477 28.894 104.766 28.8193 104.99 28.67C105.224 28.5113 105.34 28.3293 105.34 28.124C105.34 27.9187 105.27 27.76 105.13 27.648C104.99 27.536 104.771 27.4333 104.472 27.34L102.988 26.808C101.887 26.4253 101.336 25.8 101.336 24.932C101.336 24.3533 101.593 23.8913 102.106 23.546C102.629 23.1913 103.324 23.014 104.192 23.014C105.07 23.014 105.742 23.2053 106.208 23.588C106.684 23.9707 106.932 24.4513 106.95 25.03H105.396C105.378 24.806 105.27 24.6287 105.074 24.498C104.878 24.3673 104.598 24.302 104.234 24.302C103.87 24.302 103.586 24.3767 103.38 24.526C103.184 24.666 103.086 24.8293 103.086 25.016C103.086 25.3427 103.362 25.5853 103.912 25.744L105.522 26.346C106.054 26.5233 106.46 26.752 106.74 27.032C107.03 27.3027 107.174 27.6573 107.174 28.096C107.174 28.656 106.908 29.1413 106.376 29.552C105.826 29.9813 105.098 30.196 104.192 30.196C103.287 30.196 102.559 30 102.008 29.608C101.458 29.2067 101.178 28.6467 101.168 27.928H102.708ZM112.75 23.196L114.122 28.054L115.424 23.574H116.922L118.224 28.068L119.61 23.196H121.262L119.022 30H117.398L116.138 25.926L114.906 30H113.268L111.014 23.196H112.75ZM122.618 23.182H124.27V30H122.618V23.182ZM122.422 20.998C122.422 20.6993 122.51 20.466 122.688 20.298C122.865 20.1207 123.117 20.032 123.444 20.032C123.761 20.032 124.008 20.1207 124.186 20.298C124.372 20.466 124.466 20.6993 124.466 20.998C124.466 21.2967 124.372 21.5347 124.186 21.712C124.008 21.88 123.761 21.964 123.444 21.964C123.117 21.964 122.865 21.88 122.688 21.712C122.51 21.5347 122.422 21.2967 122.422 20.998ZM130.627 29.832C130.011 30.0747 129.526 30.196 129.171 30.196C128.817 30.196 128.504 30.154 128.233 30.07C127.972 29.986 127.739 29.86 127.533 29.692C127.104 29.3093 126.889 28.782 126.889 28.11V24.302H125.937V23.196H126.889V21.404H128.541V23.196H130.389V24.302H128.541V28.054C128.541 28.614 128.807 28.894 129.339 28.894C129.61 28.894 129.96 28.8193 130.389 28.67L130.627 29.832ZM133.687 24.302C134.154 23.4433 134.835 23.014 135.731 23.014C136.627 23.014 137.285 23.2893 137.705 23.84C138.134 24.3907 138.349 25.1187 138.349 26.024V30H136.697V26.024C136.697 25.52 136.576 25.142 136.333 24.89C136.09 24.6287 135.75 24.498 135.311 24.498C134.872 24.498 134.494 24.694 134.177 25.086C133.869 25.478 133.706 26.066 133.687 26.85V30H132.035V20.396H133.687V24.302ZM149.311 28.558C148.919 29.65 148.167 30.196 147.057 30.196C145.918 30.196 144.98 29.7667 144.243 28.908C143.477 28.0213 143.095 26.8873 143.095 25.506C143.095 24.05 143.505 22.8833 144.327 22.006C145.12 21.1567 146.142 20.732 147.393 20.732C148.242 20.732 148.951 20.9187 149.521 21.292C150.099 21.656 150.552 22.2347 150.879 23.028L149.185 23.42C148.69 22.6267 148.065 22.23 147.309 22.23C146.618 22.23 146.044 22.524 145.587 23.112C145.111 23.7093 144.873 24.5073 144.873 25.506C144.873 26.4487 145.087 27.214 145.517 27.802C145.937 28.3807 146.497 28.67 147.197 28.67C147.794 28.67 148.284 28.4787 148.667 28.096C149.059 27.704 149.255 27.1673 149.255 26.486V26.43L147.211 26.388V25.324H150.837V30H149.493L149.311 28.558ZM155.607 23.014C156.064 23.014 156.494 23.0887 156.895 23.238C157.296 23.378 157.642 23.5973 157.931 23.896C158.575 24.5493 158.897 25.4547 158.897 26.612C158.897 27.7507 158.575 28.6467 157.931 29.3C157.352 29.8973 156.578 30.196 155.607 30.196C154.636 30.196 153.852 29.8973 153.255 29.3C152.611 28.656 152.289 27.76 152.289 26.612C152.289 25.4453 152.611 24.54 153.255 23.896C153.843 23.308 154.627 23.014 155.607 23.014ZM157.245 26.598C157.245 25.8793 157.105 25.3427 156.825 24.988C156.545 24.624 156.153 24.442 155.649 24.442C155.154 24.442 154.748 24.624 154.431 24.988C154.114 25.3427 153.955 25.8793 153.955 26.598C153.955 27.3167 154.095 27.858 154.375 28.222C154.664 28.5767 155.056 28.754 155.551 28.754C156.046 28.754 156.452 28.5767 156.769 28.222C157.086 27.858 157.245 27.3167 157.245 26.598ZM163.257 23.014C163.714 23.014 164.144 23.0887 164.545 23.238C164.946 23.378 165.292 23.5973 165.581 23.896C166.225 24.5493 166.547 25.4547 166.547 26.612C166.547 27.7507 166.225 28.6467 165.581 29.3C165.002 29.8973 164.228 30.196 163.257 30.196C162.286 30.196 161.502 29.8973 160.905 29.3C160.261 28.656 159.939 27.76 159.939 26.612C159.939 25.4453 160.261 24.54 160.905 23.896C161.493 23.308 162.277 23.014 163.257 23.014ZM164.895 26.598C164.895 25.8793 164.755 25.3427 164.475 24.988C164.195 24.624 163.803 24.442 163.299 24.442C162.804 24.442 162.398 24.624 162.081 24.988C161.764 25.3427 161.605 25.8793 161.605 26.598C161.605 27.3167 161.745 27.858 162.025 28.222C162.314 28.5767 162.706 28.754 163.201 28.754C163.696 28.754 164.102 28.5767 164.419 28.222C164.736 27.858 164.895 27.3167 164.895 26.598ZM168.821 27.214C168.27 26.7473 167.995 26.164 167.995 25.464C167.995 24.7267 168.284 24.1293 168.863 23.672C169.423 23.2333 170.062 23.014 170.781 23.014C171.509 23.014 172.115 23.1493 172.601 23.42C172.657 22.888 172.885 22.4587 173.287 22.132C173.679 21.8053 174.141 21.642 174.673 21.642L174.589 23.224C173.786 23.224 173.371 23.49 173.343 24.022C173.688 24.4513 173.861 24.89 173.861 25.338C173.861 25.786 173.781 26.164 173.623 26.472C173.464 26.7707 173.249 27.0227 172.979 27.228C172.419 27.676 171.737 27.9 170.935 27.9C170.477 27.9 170.062 27.83 169.689 27.69C169.315 27.802 169.129 28.026 169.129 28.362C169.129 28.782 169.483 28.992 170.193 28.992H172.475C174.024 28.992 174.799 29.5333 174.799 30.616C174.799 30.98 174.705 31.3347 174.519 31.68C174.341 32.0347 174.08 32.3473 173.735 32.618C172.969 33.2153 172.008 33.514 170.851 33.514C169.731 33.514 168.821 33.2853 168.121 32.828C167.467 32.3893 167.141 31.8527 167.141 31.218C167.141 30.798 167.267 30.462 167.519 30.21C167.78 29.9673 168.121 29.8133 168.541 29.748C167.99 29.412 167.715 28.9967 167.715 28.502C167.715 28.1753 167.817 27.9047 168.023 27.69C168.228 27.466 168.494 27.3073 168.821 27.214ZM170.081 30.154C169.203 30.1913 168.765 30.5227 168.765 31.148C168.765 31.4653 168.947 31.7173 169.311 31.904C169.684 32.1 170.123 32.198 170.627 32.198C171.131 32.198 171.523 32.156 171.803 32.072C172.092 31.988 172.335 31.876 172.531 31.736C172.951 31.456 173.161 31.12 173.161 30.728C173.161 30.56 173.1 30.42 172.979 30.308C172.867 30.2053 172.699 30.154 172.475 30.154H170.081ZM172.223 25.45C172.223 25.0673 172.115 24.7593 171.901 24.526C171.695 24.2833 171.378 24.162 170.949 24.162C170.519 24.162 170.193 24.2833 169.969 24.526C169.745 24.7593 169.633 25.0673 169.633 25.45C169.633 25.8233 169.745 26.1313 169.969 26.374C170.193 26.6167 170.519 26.738 170.949 26.738C171.378 26.738 171.695 26.6167 171.901 26.374C172.115 26.1313 172.223 25.8233 172.223 25.45ZM176.101 20.396H177.753V30H176.101V20.396ZM184.819 24.008C185.052 24.3067 185.225 24.652 185.337 25.044C185.458 25.436 185.519 25.7953 185.519 26.122C185.519 26.4487 185.5 26.7427 185.463 27.004H181.067C181.086 27.5547 181.221 28.0027 181.473 28.348C181.725 28.6933 182.108 28.866 182.621 28.866C183.302 28.866 183.708 28.5673 183.839 27.97H185.505C185.393 28.6513 185.08 29.188 184.567 29.58C184.035 29.9907 183.386 30.196 182.621 30.196C181.725 30.196 180.974 29.8693 180.367 29.216C179.742 28.5347 179.429 27.662 179.429 26.598C179.429 25.506 179.742 24.6287 180.367 23.966C180.964 23.3313 181.716 23.014 182.621 23.014C183.564 23.014 184.296 23.3453 184.819 24.008ZM182.635 24.33C182.168 24.33 181.804 24.484 181.543 24.792C181.282 25.0907 181.128 25.478 181.081 25.954H183.979C183.979 25.2167 183.746 24.722 183.279 24.47C183.102 24.3767 182.887 24.33 182.635 24.33Z" fill="#4285F4"/>
<rect x="50" y="578" width="300" height="50" rx="25" fill="#4285F4"/>
<path d="M155.602 596.318C157.378 596.318 158.812 596.846 159.904 597.902C161.008 598.958 161.56 600.38 161.56 602.168C161.56 603.944 161.008 605.36 159.904 606.416C158.812 607.472 157.378 608 155.602 608H151.804V596.318H155.602ZM153.946 606.074H155.602C156.706 606.074 157.6 605.702 158.284 604.958C158.932 604.238 159.256 603.308 159.256 602.168C159.256 601.004 158.932 600.062 158.284 599.342C157.612 598.61 156.718 598.244 155.602 598.244H153.946V606.074ZM168.644 596.084C169.424 596.084 170.138 596.216 170.786 596.48C171.434 596.732 171.992 597.11 172.46 597.614C173.444 598.67 173.936 600.182 173.936 602.15C173.936 604.13 173.444 605.66 172.46 606.74C171.524 607.748 170.246 608.252 168.626 608.252C167.018 608.252 165.746 607.736 164.81 606.704C163.826 605.636 163.334 604.118 163.334 602.15C163.334 600.158 163.826 598.634 164.81 597.578C165.734 596.582 167.012 596.084 168.644 596.084ZM171.74 602.186C171.74 600.842 171.458 599.81 170.894 599.09C170.342 598.358 169.592 597.992 168.644 597.992C167.696 597.992 166.94 598.358 166.376 599.09C165.812 599.81 165.53 600.842 165.53 602.186C165.53 603.518 165.812 604.544 166.376 605.264C166.94 605.972 167.696 606.326 168.644 606.326C169.592 606.326 170.342 605.972 170.894 605.264C171.458 604.544 171.74 603.518 171.74 602.186ZM177.511 596.318L180.085 605.192L182.587 597.092H184.027L186.673 605.228L189.409 596.318H191.803L187.789 608H185.557L183.361 601.412L181.183 608H178.951L175.135 596.318H177.511ZM196.12 596.318L201.268 604.598V596.318H203.392V608H201.232L195.922 599.432V608H193.798V596.318H196.12ZM208.861 606.146H213.667V608H206.737V596.318H208.861V606.146ZM220.113 596.084C220.893 596.084 221.607 596.216 222.255 596.48C222.903 596.732 223.461 597.11 223.929 597.614C224.913 598.67 225.405 600.182 225.405 602.15C225.405 604.13 224.913 605.66 223.929 606.74C222.993 607.748 221.715 608.252 220.095 608.252C218.487 608.252 217.215 607.736 216.279 606.704C215.295 605.636 214.803 604.118 214.803 602.15C214.803 600.158 215.295 598.634 216.279 597.578C217.203 596.582 218.481 596.084 220.113 596.084ZM223.209 602.186C223.209 600.842 222.927 599.81 222.363 599.09C221.811 598.358 221.061 597.992 220.113 597.992C219.165 597.992 218.409 598.358 217.845 599.09C217.281 599.81 216.999 600.842 216.999 602.186C216.999 603.518 217.281 604.544 217.845 605.264C218.409 605.972 219.165 606.326 220.113 606.326C221.061 606.326 221.811 605.972 222.363 605.264C222.927 604.544 223.209 603.518 223.209 602.186ZM230.618 596.318H233.282L237.116 608H234.866L234.056 605.48H229.718L228.89 608H226.64L230.618 596.318ZM230.258 603.878H233.534L231.914 598.856L230.258 603.878ZM242.966 596.318C244.742 596.318 246.176 596.846 247.268 597.902C248.372 598.958 248.924 600.38 248.924 602.168C248.924 603.944 248.372 605.36 247.268 606.416C246.176 607.472 244.742 608 242.966 608H239.168V596.318H242.966ZM241.31 606.074H242.966C244.07 606.074 244.964 605.702 245.648 604.958C246.296 604.238 246.62 603.308 246.62 602.168C246.62 601.004 246.296 600.062 245.648 599.342C244.976 598.61 244.082 598.244 242.966 598.244H241.31V606.074Z" fill="white"/>
<rect x="50" y="648" width="300" height="50" rx="25" fill="#4285F4"/>
<path d="M180.746 666.318C182.066 666.318 183.092 666.642 183.824 667.29C184.568 667.926 184.94 668.844 184.94 670.044C184.94 671.232 184.568 672.15 183.824 672.798C183.092 673.434 182.066 673.752 180.746 673.752H178.766V678H176.624V666.318H180.746ZM180.746 671.898C181.406 671.898 181.904 671.724 182.24 671.376C182.576 671.028 182.744 670.584 182.744 670.044C182.744 669.492 182.576 669.042 182.24 668.694C181.904 668.334 181.406 668.154 180.746 668.154H178.766V671.898H180.746ZM195.813 669.9C195.813 670.728 195.579 671.436 195.111 672.024C194.643 672.612 193.971 673.02 193.095 673.248L196.227 678H193.455L190.881 673.446H189.261V678H187.137V666.318H191.457C192.837 666.318 193.911 666.648 194.679 667.308C195.435 667.944 195.813 668.808 195.813 669.9ZM191.259 672.024C192.039 672.024 192.627 671.85 193.023 671.502C193.419 671.142 193.617 670.674 193.617 670.098C193.617 669.51 193.437 669.042 193.077 668.694C192.717 668.334 192.177 668.154 191.457 668.154H189.261V672.024H191.259ZM198.721 666.318H200.845V678H198.721V666.318ZM206.474 666.318L211.622 674.598V666.318H213.746V678H211.586L206.276 669.432V678H204.152V666.318H206.474ZM215.524 666.318H224.884V668.154H221.266V678H219.142V668.154H215.524V666.318Z" fill="white"/>
<rect x="50" y="718" width="300" height="50" rx="25" fill="#4285F4"/>
<path d="M179.019 739.54C178.827 738.52 178.107 738.01 176.859 738.01C176.247 738.01 175.767 738.136 175.419 738.388C175.083 738.628 174.915 738.922 174.915 739.27C174.915 739.618 175.023 739.894 175.239 740.098C175.467 740.29 175.815 740.47 176.283 740.638L178.821 741.628C179.685 741.964 180.351 742.39 180.819 742.906C181.287 743.41 181.521 744.046 181.521 744.814C181.521 745.87 181.125 746.71 180.333 747.334C179.541 747.946 178.413 748.252 176.949 748.252C175.653 748.252 174.603 747.934 173.799 747.298C172.899 746.602 172.425 745.618 172.377 744.346H174.483C174.483 745.306 174.981 745.912 175.977 746.164C176.277 746.248 176.673 746.29 177.165 746.29C177.657 746.29 178.113 746.17 178.533 745.93C178.953 745.678 179.163 745.348 179.163 744.94C179.163 744.52 179.049 744.202 178.821 743.986C178.593 743.758 178.221 743.548 177.705 743.356L175.383 742.438C174.483 742.09 173.793 741.682 173.313 741.214C172.833 740.746 172.593 740.098 172.593 739.27C172.593 738.298 172.971 737.53 173.727 736.966C174.495 736.378 175.533 736.084 176.841 736.084C178.161 736.084 179.175 736.39 179.883 737.002C180.603 737.602 181.017 738.448 181.125 739.54H179.019ZM186.484 736.318V741.196H191.578V736.318H193.702V748H191.578V743.05H186.484V748H184.36V736.318H186.484ZM199.769 736.318H202.433L206.267 748H204.017L203.207 745.48H198.869L198.041 748H195.791L199.769 736.318ZM199.409 743.878H202.685L201.065 738.856L199.409 743.878ZM217.012 739.9C217.012 740.728 216.778 741.436 216.31 742.024C215.842 742.612 215.17 743.02 214.294 743.248L217.426 748H214.654L212.08 743.446H210.46V748H208.336V736.318H212.656C214.036 736.318 215.11 736.648 215.878 737.308C216.634 737.944 217.012 738.808 217.012 739.9ZM212.458 742.024C213.238 742.024 213.826 741.85 214.222 741.502C214.618 741.142 214.816 740.674 214.816 740.098C214.816 739.51 214.636 739.042 214.276 738.694C213.916 738.334 213.376 738.154 212.656 738.154H210.46V742.024H212.458ZM219.902 736.318H227.426V738.154H222.026V741.232H227.084V743.068H222.026V746.146H227.426V748H219.902V736.318Z" fill="white"/>
<rect x="50" y="137" width="299.998" height="399.997" rx="6" fill="#D2DCFA"/>
<g style="mix-blend-mode:overlay">
<line x1="50.4" y1="136.7" x2="350.398" y2="536.697" stroke="black"/>
</g>
<g style="mix-blend-mode:overlay">
<line y1="-0.5" x2="499.996" y2="-0.5" transform="matrix(-0.6 0.8 0.8 0.6 350 137)" stroke="black"/>
</g>
<mask id="path-14-outside-1" maskUnits="userSpaceOnUse" x="158.23" y="319.004" width="84" height="45" fill="black">
<rect fill="white" x="158.23" y="319.004" width="84" height="45"/>
<path d="M170.322 324.704C170.826 324.704 171.256 324.774 171.61 324.914C171.974 325.045 172.278 325.236 172.52 325.488C173.024 325.983 173.304 326.65 173.36 327.49L171.694 327.826C171.62 327.35 171.456 326.967 171.204 326.678C170.962 326.389 170.63 326.244 170.21 326.244C169.65 326.244 169.17 326.505 168.768 327.028C168.358 327.588 168.096 328.386 167.984 329.422C167.9 330.439 167.994 331.233 168.264 331.802C168.535 332.362 168.955 332.642 169.524 332.642C170.103 332.642 170.546 332.488 170.854 332.18C171.172 331.863 171.354 331.466 171.4 330.99H173.052C172.95 332.017 172.581 332.81 171.946 333.37C171.312 333.921 170.481 334.196 169.454 334.196C168.362 334.196 167.532 333.776 166.962 332.936C166.402 332.096 166.197 330.925 166.346 329.422C166.496 327.919 166.939 326.748 167.676 325.908C168.386 325.105 169.268 324.704 170.322 324.704Z"/>
<path d="M178.25 332.796C177.783 333.683 177.125 334.126 176.276 334.126C175.184 334.126 174.512 333.659 174.26 332.726C174.166 332.399 174.143 331.998 174.19 331.522L174.61 327.168H176.136L175.73 331.34C175.692 331.779 175.758 332.105 175.926 332.32C176.103 332.535 176.378 332.642 176.752 332.642C177.134 332.642 177.498 332.46 177.844 332.096C178.189 331.723 178.399 331.163 178.474 330.416L178.782 327.168H180.322L179.692 334H178.138L178.25 332.796Z"/>
<path d="M184.597 327C185.391 327 185.983 327.196 186.375 327.588C186.767 327.971 186.94 328.456 186.893 329.044H185.451C185.451 328.829 185.372 328.657 185.213 328.526C185.055 328.395 184.817 328.33 184.499 328.33C184.182 328.33 183.93 328.4 183.743 328.54C183.557 328.671 183.454 328.829 183.435 329.016C183.398 329.333 183.608 329.567 184.065 329.716L185.493 330.332C185.941 330.509 186.282 330.738 186.515 331.018C186.749 331.289 186.847 331.601 186.809 331.956C186.781 332.311 186.693 332.619 186.543 332.88C186.394 333.132 186.193 333.356 185.941 333.552C185.4 333.981 184.723 334.196 183.911 334.196C183.099 334.196 182.46 334 181.993 333.608C181.527 333.207 181.326 332.642 181.391 331.914H182.819C182.791 332.241 182.875 332.479 183.071 332.628C183.277 332.777 183.557 332.852 183.911 332.852C184.266 332.852 184.546 332.777 184.751 332.628C184.957 332.479 185.069 332.306 185.087 332.11C185.115 331.905 185.073 331.751 184.961 331.648C184.849 331.545 184.667 331.447 184.415 331.354L183.113 330.808C182.161 330.416 181.732 329.791 181.825 328.932C181.881 328.344 182.157 327.877 182.651 327.532C183.165 327.177 183.813 327 184.597 327Z"/>
<path d="M191.494 333.832C190.925 334.075 190.477 334.196 190.15 334.196C189.824 334.196 189.544 334.154 189.31 334.07C189.077 333.986 188.876 333.86 188.708 333.692C188.344 333.319 188.2 332.787 188.274 332.096L188.624 328.316H187.784L187.896 327.182H188.736L188.904 325.404H190.444L190.276 327.182H191.914L191.802 328.316H190.15L189.814 332.04C189.758 332.581 189.968 332.852 190.444 332.852C190.687 332.852 191 332.777 191.382 332.628L191.494 333.832Z"/>
<path d="M195.966 327C196.386 327 196.769 327.075 197.114 327.224C197.469 327.364 197.768 327.583 198.01 327.882C198.533 328.517 198.738 329.427 198.626 330.612C198.524 331.751 198.15 332.647 197.506 333.3C196.909 333.897 196.176 334.196 195.308 334.196C194.431 334.196 193.75 333.897 193.264 333.3C192.742 332.665 192.536 331.769 192.648 330.612C192.751 329.436 193.124 328.526 193.768 327.882C194.356 327.294 195.089 327 195.966 327ZM197.072 330.598C197.147 329.889 197.077 329.361 196.862 329.016C196.648 328.661 196.321 328.484 195.882 328.484C195.453 328.484 195.08 328.661 194.762 329.016C194.454 329.361 194.263 329.889 194.188 330.598C194.114 331.307 194.188 331.839 194.412 332.194C194.636 332.539 194.963 332.712 195.392 332.712C195.822 332.712 196.19 332.539 196.498 332.194C196.816 331.839 197.007 331.307 197.072 330.598Z"/>
<path d="M205.595 328.456C206.08 327.485 206.822 327 207.821 327C208.549 327 209.09 327.28 209.445 327.84C209.762 328.344 209.883 329.072 209.809 330.024L209.445 334H207.891L208.255 330.024C208.301 329.529 208.231 329.161 208.045 328.918C207.858 328.666 207.569 328.54 207.177 328.54C206.785 328.54 206.444 328.736 206.155 329.128C205.865 329.511 205.683 330.113 205.609 330.934L205.329 334H203.789L204.153 330.024C204.209 329.529 204.139 329.161 203.943 328.918C203.756 328.666 203.467 328.54 203.075 328.54C202.683 328.54 202.328 328.741 202.011 329.142C201.693 329.543 201.497 330.155 201.423 330.976L201.143 334H199.603L200.247 327.182H201.591C201.6 327.378 201.605 327.574 201.605 327.77C201.614 327.957 201.623 328.143 201.633 328.33C202.127 327.443 202.813 327 203.691 327C204.204 327 204.615 327.131 204.923 327.392C205.24 327.653 205.464 328.008 205.595 328.456Z"/>
<path d="M212.083 327.168H213.609L212.965 334H211.439L212.083 327.168ZM212.083 324.998C212.12 324.699 212.228 324.461 212.405 324.284C212.592 324.097 212.834 324.004 213.133 324.004C213.432 324.004 213.651 324.097 213.791 324.284C213.94 324.461 214.001 324.704 213.973 325.012C213.954 325.311 213.852 325.549 213.665 325.726C213.478 325.903 213.236 325.992 212.937 325.992C212.648 325.992 212.428 325.903 212.279 325.726C212.13 325.549 212.064 325.306 212.083 324.998Z"/>
<path d="M214.881 332.614L218.381 328.568H215.245L215.385 327.182H220.215L220.075 328.568L216.673 332.614H219.711L219.571 334H214.741L214.881 332.614Z"/>
<path d="M222.389 331.018C222.379 331.065 222.375 331.111 222.375 331.158C222.375 331.205 222.375 331.251 222.375 331.298C222.375 331.755 222.473 332.124 222.669 332.404C222.874 332.684 223.145 332.824 223.481 332.824C224.162 332.824 224.577 332.539 224.727 331.97H226.281C226.131 332.623 225.795 333.155 225.273 333.566C224.75 333.986 224.148 334.196 223.467 334.196C222.729 334.196 222.118 333.916 221.633 333.356C221.138 332.787 220.891 332.031 220.891 331.088C220.891 330.024 221.175 329.091 221.745 328.288C222.351 327.429 223.149 327 224.139 327C224.913 327 225.506 327.28 225.917 327.84C226.299 328.344 226.491 328.997 226.491 329.8C226.491 330.183 226.439 330.589 226.337 331.018H222.389ZM223.999 328.358C223.607 328.358 223.28 328.507 223.019 328.806C222.757 329.105 222.585 329.483 222.501 329.94H225.063C225.072 329.893 225.077 329.847 225.077 329.8C225.077 329.753 225.077 329.674 225.077 329.562C225.077 329.45 225.058 329.319 225.021 329.17C224.993 329.011 224.937 328.871 224.853 328.75C224.675 328.489 224.391 328.358 223.999 328.358Z"/>
<path d="M231.664 332.922C231.207 333.771 230.591 334.196 229.816 334.196C229.098 334.196 228.505 333.911 228.038 333.342C227.562 332.763 227.324 332.003 227.324 331.06C227.324 330.052 227.586 329.147 228.108 328.344C228.706 327.448 229.466 327 230.39 327C231.156 327 231.702 327.336 232.028 328.008L232.378 324.396H233.932L233.022 334H231.762L231.664 332.922ZM231.832 329.982C231.832 329.525 231.711 329.17 231.468 328.918C231.235 328.666 230.955 328.54 230.628 328.54C230.311 328.54 230.04 328.619 229.816 328.778C229.602 328.927 229.429 329.119 229.298 329.352C229.028 329.8 228.892 330.304 228.892 330.864C228.892 331.415 229.009 331.853 229.242 332.18C229.485 332.497 229.802 332.656 230.194 332.656C230.54 332.656 230.866 332.511 231.174 332.222C231.492 331.923 231.678 331.541 231.734 331.074L231.818 330.206C231.828 330.159 231.832 330.117 231.832 330.08V329.982Z"/>
<path d="M169.95 343.686C169.876 344.339 169.656 344.895 169.292 345.352C168.938 345.809 168.443 346.131 167.808 346.318L169.656 350H167.654L166.198 346.458H165.092L164.77 350H163.23L164.084 340.886H167.136C168.126 340.886 168.858 341.143 169.334 341.656C169.82 342.16 170.025 342.837 169.95 343.686ZM166.562 345.324C167.104 345.324 167.524 345.189 167.822 344.918C168.13 344.647 168.308 344.293 168.354 343.854C168.382 343.406 168.284 343.047 168.06 342.776C167.846 342.496 167.491 342.356 166.996 342.356H165.484L165.19 345.324H166.562Z"/>
<path d="M172.331 347.018C172.321 347.065 172.317 347.111 172.317 347.158C172.317 347.205 172.317 347.251 172.317 347.298C172.317 347.755 172.415 348.124 172.611 348.404C172.816 348.684 173.087 348.824 173.423 348.824C174.104 348.824 174.519 348.539 174.669 347.97H176.223C176.073 348.623 175.737 349.155 175.215 349.566C174.692 349.986 174.09 350.196 173.409 350.196C172.671 350.196 172.06 349.916 171.575 349.356C171.08 348.787 170.833 348.031 170.833 347.088C170.833 346.024 171.117 345.091 171.687 344.288C172.293 343.429 173.091 343 174.081 343C174.855 343 175.448 343.28 175.859 343.84C176.241 344.344 176.433 344.997 176.433 345.8C176.433 346.183 176.381 346.589 176.279 347.018H172.331ZM173.941 344.358C173.549 344.358 173.222 344.507 172.961 344.806C172.699 345.105 172.527 345.483 172.443 345.94H175.005C175.014 345.893 175.019 345.847 175.019 345.8C175.019 345.753 175.019 345.674 175.019 345.562C175.019 345.45 175 345.319 174.963 345.17C174.935 345.011 174.879 344.871 174.795 344.75C174.617 344.489 174.333 344.358 173.941 344.358Z"/>
<path d="M178.918 343.182L179.786 348.306L181.648 343.182H183.412L180.5 350H178.778L177.154 343.182H178.918Z"/>
<path d="M184.571 343.168H186.097L185.453 350H183.927L184.571 343.168ZM184.571 340.998C184.608 340.699 184.716 340.461 184.893 340.284C185.08 340.097 185.322 340.004 185.621 340.004C185.92 340.004 186.139 340.097 186.279 340.284C186.428 340.461 186.489 340.704 186.461 341.012C186.442 341.311 186.34 341.549 186.153 341.726C185.966 341.903 185.724 341.992 185.425 341.992C185.136 341.992 184.916 341.903 184.767 341.726C184.618 341.549 184.552 341.306 184.571 340.998Z"/>
<path d="M188.895 347.018C188.886 347.065 188.881 347.111 188.881 347.158C188.881 347.205 188.881 347.251 188.881 347.298C188.881 347.755 188.979 348.124 189.175 348.404C189.38 348.684 189.651 348.824 189.987 348.824C190.668 348.824 191.084 348.539 191.233 347.97H192.787C192.638 348.623 192.302 349.155 191.779 349.566C191.256 349.986 190.654 350.196 189.973 350.196C189.236 350.196 188.624 349.916 188.139 349.356C187.644 348.787 187.397 348.031 187.397 347.088C187.397 346.024 187.682 345.091 188.251 344.288C188.858 343.429 189.656 343 190.645 343C191.42 343 192.012 343.28 192.423 343.84C192.806 344.344 192.997 344.997 192.997 345.8C192.997 346.183 192.946 346.589 192.843 347.018H188.895ZM190.505 344.358C190.113 344.358 189.786 344.507 189.525 344.806C189.264 345.105 189.091 345.483 189.007 345.94H191.569C191.578 345.893 191.583 345.847 191.583 345.8C191.583 345.753 191.583 345.674 191.583 345.562C191.583 345.45 191.564 345.319 191.527 345.17C191.499 345.011 191.443 344.871 191.359 344.75C191.182 344.489 190.897 344.358 190.505 344.358Z"/>
<path d="M195.314 343.182L196.07 347.998L197.638 343.574H199.038L199.766 348.04L201.446 343.182H202.986L200.326 350H198.814L198.072 345.982L196.616 350H195.104L193.718 343.182H195.314Z"/>
<path d="M209.064 340.886H210.996L212.83 350H211.192L210.814 348.068H207.79L207.034 350H205.424L209.064 340.886ZM208.308 346.78H210.562L209.806 342.902L208.308 346.78Z"/>
<path d="M216.923 343C217.716 343 218.309 343.196 218.701 343.588C219.093 343.971 219.265 344.456 219.219 345.044H217.777C217.777 344.829 217.697 344.657 217.539 344.526C217.38 344.395 217.142 344.33 216.825 344.33C216.507 344.33 216.255 344.4 216.069 344.54C215.882 344.671 215.779 344.829 215.761 345.016C215.723 345.333 215.933 345.567 216.391 345.716L217.819 346.332C218.267 346.509 218.607 346.738 218.841 347.018C219.074 347.289 219.172 347.601 219.135 347.956C219.107 348.311 219.018 348.619 218.869 348.88C218.719 349.132 218.519 349.356 218.267 349.552C217.725 349.981 217.049 350.196 216.237 350.196C215.425 350.196 214.785 350 214.319 349.608C213.852 349.207 213.651 348.642 213.717 347.914H215.145C215.117 348.241 215.201 348.479 215.397 348.628C215.602 348.777 215.882 348.852 216.237 348.852C216.591 348.852 216.871 348.777 217.077 348.628C217.282 348.479 217.394 348.306 217.413 348.11C217.441 347.905 217.399 347.751 217.287 347.648C217.175 347.545 216.993 347.447 216.741 347.354L215.439 346.808C214.487 346.416 214.057 345.791 214.151 344.932C214.207 344.344 214.482 343.877 214.977 343.532C215.49 343.177 216.139 343 216.923 343Z"/>
<path d="M223.274 343C224.067 343 224.66 343.196 225.052 343.588C225.444 343.971 225.616 344.456 225.57 345.044H224.128C224.128 344.829 224.048 344.657 223.89 344.526C223.731 344.395 223.493 344.33 223.176 344.33C222.858 344.33 222.606 344.4 222.42 344.54C222.233 344.671 222.13 344.829 222.112 345.016C222.074 345.333 222.284 345.567 222.742 345.716L224.17 346.332C224.618 346.509 224.958 346.738 225.192 347.018C225.425 347.289 225.523 347.601 225.486 347.956C225.458 348.311 225.369 348.619 225.22 348.88C225.07 349.132 224.87 349.356 224.618 349.552C224.076 349.981 223.4 350.196 222.588 350.196C221.776 350.196 221.136 350 220.67 349.608C220.203 349.207 220.002 348.642 220.068 347.914H221.496C221.468 348.241 221.552 348.479 221.748 348.628C221.953 348.777 222.233 348.852 222.588 348.852C222.942 348.852 223.222 348.777 223.428 348.628C223.633 348.479 223.745 348.306 223.764 348.11C223.792 347.905 223.75 347.751 223.638 347.648C223.526 347.545 223.344 347.447 223.092 347.354L221.79 346.808C220.838 346.416 220.408 345.791 220.502 344.932C220.558 344.344 220.833 343.877 221.328 343.532C221.841 343.177 222.49 343 223.274 343Z"/>
<path d="M227.902 347.018C227.893 347.065 227.888 347.111 227.888 347.158C227.888 347.205 227.888 347.251 227.888 347.298C227.888 347.755 227.986 348.124 228.182 348.404C228.388 348.684 228.658 348.824 228.994 348.824C229.676 348.824 230.091 348.539 230.24 347.97H231.794C231.645 348.623 231.309 349.155 230.786 349.566C230.264 349.986 229.662 350.196 228.98 350.196C228.243 350.196 227.632 349.916 227.146 349.356C226.652 348.787 226.404 348.031 226.404 347.088C226.404 346.024 226.689 345.091 227.258 344.288C227.865 343.429 228.663 343 229.652 343C230.427 343 231.02 343.28 231.43 343.84C231.813 344.344 232.004 344.997 232.004 345.8C232.004 346.183 231.953 346.589 231.85 347.018H227.902ZM229.512 344.358C229.12 344.358 228.794 344.507 228.532 344.806C228.271 345.105 228.098 345.483 228.014 345.94H230.576C230.586 345.893 230.59 345.847 230.59 345.8C230.59 345.753 230.59 345.674 230.59 345.562C230.59 345.45 230.572 345.319 230.534 345.17C230.506 345.011 230.45 344.871 230.366 344.75C230.189 344.489 229.904 344.358 229.512 344.358Z"/>
<path d="M236.576 349.832C236.007 350.075 235.559 350.196 235.232 350.196C234.905 350.196 234.625 350.154 234.392 350.07C234.159 349.986 233.958 349.86 233.79 349.692C233.426 349.319 233.281 348.787 233.356 348.096L233.706 344.316H232.866L232.978 343.182H233.818L233.986 341.404H235.526L235.358 343.182H236.996L236.884 344.316H235.232L234.896 348.04C234.84 348.581 235.05 348.852 235.526 348.852C235.769 348.852 236.081 348.777 236.464 348.628L236.576 349.832Z"/>
</mask>
<path d="M170.322 324.704C170.826 324.704 171.256 324.774 171.61 324.914C171.974 325.045 172.278 325.236 172.52 325.488C173.024 325.983 173.304 326.65 173.36 327.49L171.694 327.826C171.62 327.35 171.456 326.967 171.204 326.678C170.962 326.389 170.63 326.244 170.21 326.244C169.65 326.244 169.17 326.505 168.768 327.028C168.358 327.588 168.096 328.386 167.984 329.422C167.9 330.439 167.994 331.233 168.264 331.802C168.535 332.362 168.955 332.642 169.524 332.642C170.103 332.642 170.546 332.488 170.854 332.18C171.172 331.863 171.354 331.466 171.4 330.99H173.052C172.95 332.017 172.581 332.81 171.946 333.37C171.312 333.921 170.481 334.196 169.454 334.196C168.362 334.196 167.532 333.776 166.962 332.936C166.402 332.096 166.197 330.925 166.346 329.422C166.496 327.919 166.939 326.748 167.676 325.908C168.386 325.105 169.268 324.704 170.322 324.704Z" fill="#98AFF3"/>
<path d="M178.25 332.796C177.783 333.683 177.125 334.126 176.276 334.126C175.184 334.126 174.512 333.659 174.26 332.726C174.166 332.399 174.143 331.998 174.19 331.522L174.61 327.168H176.136L175.73 331.34C175.692 331.779 175.758 332.105 175.926 332.32C176.103 332.535 176.378 332.642 176.752 332.642C177.134 332.642 177.498 332.46 177.844 332.096C178.189 331.723 178.399 331.163 178.474 330.416L178.782 327.168H180.322L179.692 334H178.138L178.25 332.796Z" fill="#98AFF3"/>
<path d="M184.597 327C185.391 327 185.983 327.196 186.375 327.588C186.767 327.971 186.94 328.456 186.893 329.044H185.451C185.451 328.829 185.372 328.657 185.213 328.526C185.055 328.395 184.817 328.33 184.499 328.33C184.182 328.33 183.93 328.4 183.743 328.54C183.557 328.671 183.454 328.829 183.435 329.016C183.398 329.333 183.608 329.567 184.065 329.716L185.493 330.332C185.941 330.509 186.282 330.738 186.515 331.018C186.749 331.289 186.847 331.601 186.809 331.956C186.781 332.311 186.693 332.619 186.543 332.88C186.394 333.132 186.193 333.356 185.941 333.552C185.4 333.981 184.723 334.196 183.911 334.196C183.099 334.196 182.46 334 181.993 333.608C181.527 333.207 181.326 332.642 181.391 331.914H182.819C182.791 332.241 182.875 332.479 183.071 332.628C183.277 332.777 183.557 332.852 183.911 332.852C184.266 332.852 184.546 332.777 184.751 332.628C184.957 332.479 185.069 332.306 185.087 332.11C185.115 331.905 185.073 331.751 184.961 331.648C184.849 331.545 184.667 331.447 184.415 331.354L183.113 330.808C182.161 330.416 181.732 329.791 181.825 328.932C181.881 328.344 182.157 327.877 182.651 327.532C183.165 327.177 183.813 327 184.597 327Z" fill="#98AFF3"/>
<path d="M191.494 333.832C190.925 334.075 190.477 334.196 190.15 334.196C189.824 334.196 189.544 334.154 189.31 334.07C189.077 333.986 188.876 333.86 188.708 333.692C188.344 333.319 188.2 332.787 188.274 332.096L188.624 328.316H187.784L187.896 327.182H188.736L188.904 325.404H190.444L190.276 327.182H191.914L191.802 328.316H190.15L189.814 332.04C189.758 332.581 189.968 332.852 190.444 332.852C190.687 332.852 191 332.777 191.382 332.628L191.494 333.832Z" fill="#98AFF3"/>
<path d="M195.966 327C196.386 327 196.769 327.075 197.114 327.224C197.469 327.364 197.768 327.583 198.01 327.882C198.533 328.517 198.738 329.427 198.626 330.612C198.524 331.751 198.15 332.647 197.506 333.3C196.909 333.897 196.176 334.196 195.308 334.196C194.431 334.196 193.75 333.897 193.264 333.3C192.742 332.665 192.536 331.769 192.648 330.612C192.751 329.436 193.124 328.526 193.768 327.882C194.356 327.294 195.089 327 195.966 327ZM197.072 330.598C197.147 329.889 197.077 329.361 196.862 329.016C196.648 328.661 196.321 328.484 195.882 328.484C195.453 328.484 195.08 328.661 194.762 329.016C194.454 329.361 194.263 329.889 194.188 330.598C194.114 331.307 194.188 331.839 194.412 332.194C194.636 332.539 194.963 332.712 195.392 332.712C195.822 332.712 196.19 332.539 196.498 332.194C196.816 331.839 197.007 331.307 197.072 330.598Z" fill="#98AFF3"/>
<path d="M205.595 328.456C206.08 327.485 206.822 327 207.821 327C208.549 327 209.09 327.28 209.445 327.84C209.762 328.344 209.883 329.072 209.809 330.024L209.445 334H207.891L208.255 330.024C208.301 329.529 208.231 329.161 208.045 328.918C207.858 328.666 207.569 328.54 207.177 328.54C206.785 328.54 206.444 328.736 206.155 329.128C205.865 329.511 205.683 330.113 205.609 330.934L205.329 334H203.789L204.153 330.024C204.209 329.529 204.139 329.161 203.943 328.918C203.756 328.666 203.467 328.54 203.075 328.54C202.683 328.54 202.328 328.741 202.011 329.142C201.693 329.543 201.497 330.155 201.423 330.976L201.143 334H199.603L200.247 327.182H201.591C201.6 327.378 201.605 327.574 201.605 327.77C201.614 327.957 201.623 328.143 201.633 328.33C202.127 327.443 202.813 327 203.691 327C204.204 327 204.615 327.131 204.923 327.392C205.24 327.653 205.464 328.008 205.595 328.456Z" fill="#98AFF3"/>
<path d="M212.083 327.168H213.609L212.965 334H211.439L212.083 327.168ZM212.083 324.998C212.12 324.699 212.228 324.461 212.405 324.284C212.592 324.097 212.834 324.004 213.133 324.004C213.432 324.004 213.651 324.097 213.791 324.284C213.94 324.461 214.001 324.704 213.973 325.012C213.954 325.311 213.852 325.549 213.665 325.726C213.478 325.903 213.236 325.992 212.937 325.992C212.648 325.992 212.428 325.903 212.279 325.726C212.13 325.549 212.064 325.306 212.083 324.998Z" fill="#98AFF3"/>
<path d="M214.881 332.614L218.381 328.568H215.245L215.385 327.182H220.215L220.075 328.568L216.673 332.614H219.711L219.571 334H214.741L214.881 332.614Z" fill="#98AFF3"/>
<path d="M222.389 331.018C222.379 331.065 222.375 331.111 222.375 331.158C222.375 331.205 222.375 331.251 222.375 331.298C222.375 331.755 222.473 332.124 222.669 332.404C222.874 332.684 223.145 332.824 223.481 332.824C224.162 332.824 224.577 332.539 224.727 331.97H226.281C226.131 332.623 225.795 333.155 225.273 333.566C224.75 333.986 224.148 334.196 223.467 334.196C222.729 334.196 222.118 333.916 221.633 333.356C221.138 332.787 220.891 332.031 220.891 331.088C220.891 330.024 221.175 329.091 221.745 328.288C222.351 327.429 223.149 327 224.139 327C224.913 327 225.506 327.28 225.917 327.84C226.299 328.344 226.491 328.997 226.491 329.8C226.491 330.183 226.439 330.589 226.337 331.018H222.389ZM223.999 328.358C223.607 328.358 223.28 328.507 223.019 328.806C222.757 329.105 222.585 329.483 222.501 329.94H225.063C225.072 329.893 225.077 329.847 225.077 329.8C225.077 329.753 225.077 329.674 225.077 329.562C225.077 329.45 225.058 329.319 225.021 329.17C224.993 329.011 224.937 328.871 224.853 328.75C224.675 328.489 224.391 328.358 223.999 328.358Z" fill="#98AFF3"/>
<path d="M231.664 332.922C231.207 333.771 230.591 334.196 229.816 334.196C229.098 334.196 228.505 333.911 228.038 333.342C227.562 332.763 227.324 332.003 227.324 331.06C227.324 330.052 227.586 329.147 228.108 328.344C228.706 327.448 229.466 327 230.39 327C231.156 327 231.702 327.336 232.028 328.008L232.378 324.396H233.932L233.022 334H231.762L231.664 332.922ZM231.832 329.982C231.832 329.525 231.711 329.17 231.468 328.918C231.235 328.666 230.955 328.54 230.628 328.54C230.311 328.54 230.04 328.619 229.816 328.778C229.602 328.927 229.429 329.119 229.298 329.352C229.028 329.8 228.892 330.304 228.892 330.864C228.892 331.415 229.009 331.853 229.242 332.18C229.485 332.497 229.802 332.656 230.194 332.656C230.54 332.656 230.866 332.511 231.174 332.222C231.492 331.923 231.678 331.541 231.734 331.074L231.818 330.206C231.828 330.159 231.832 330.117 231.832 330.08V329.982Z" fill="#98AFF3"/>
<path d="M169.95 343.686C169.876 344.339 169.656 344.895 169.292 345.352C168.938 345.809 168.443 346.131 167.808 346.318L169.656 350H167.654L166.198 346.458H165.092L164.77 350H163.23L164.084 340.886H167.136C168.126 340.886 168.858 341.143 169.334 341.656C169.82 342.16 170.025 342.837 169.95 343.686ZM166.562 345.324C167.104 345.324 167.524 345.189 167.822 344.918C168.13 344.647 168.308 344.293 168.354 343.854C168.382 343.406 168.284 343.047 168.06 342.776C167.846 342.496 167.491 342.356 166.996 342.356H165.484L165.19 345.324H166.562Z" fill="#98AFF3"/>
<path d="M172.331 347.018C172.321 347.065 172.317 347.111 172.317 347.158C172.317 347.205 172.317 347.251 172.317 347.298C172.317 347.755 172.415 348.124 172.611 348.404C172.816 348.684 173.087 348.824 173.423 348.824C174.104 348.824 174.519 348.539 174.669 347.97H176.223C176.073 348.623 175.737 349.155 175.215 349.566C174.692 349.986 174.09 350.196 173.409 350.196C172.671 350.196 172.06 349.916 171.575 349.356C171.08 348.787 170.833 348.031 170.833 347.088C170.833 346.024 171.117 345.091 171.687 344.288C172.293 343.429 173.091 343 174.081 343C174.855 343 175.448 343.28 175.859 343.84C176.241 344.344 176.433 344.997 176.433 345.8C176.433 346.183 176.381 346.589 176.279 347.018H172.331ZM173.941 344.358C173.549 344.358 173.222 344.507 172.961 344.806C172.699 345.105 172.527 345.483 172.443 345.94H175.005C175.014 345.893 175.019 345.847 175.019 345.8C175.019 345.753 175.019 345.674 175.019 345.562C175.019 345.45 175 345.319 174.963 345.17C174.935 345.011 174.879 344.871 174.795 344.75C174.617 344.489 174.333 344.358 173.941 344.358Z" fill="#98AFF3"/>
<path d="M178.918 343.182L179.786 348.306L181.648 343.182H183.412L180.5 350H178.778L177.154 343.182H178.918Z" fill="#98AFF3"/>
<path d="M184.571 343.168H186.097L185.453 350H183.927L184.571 343.168ZM184.571 340.998C184.608 340.699 184.716 340.461 184.893 340.284C185.08 340.097 185.322 340.004 185.621 340.004C185.92 340.004 186.139 340.097 186.279 340.284C186.428 340.461 186.489 340.704 186.461 341.012C186.442 341.311 186.34 341.549 186.153 341.726C185.966 341.903 185.724 341.992 185.425 341.992C185.136 341.992 184.916 341.903 184.767 341.726C184.618 341.549 184.552 341.306 184.571 340.998Z" fill="#98AFF3"/>
<path d="M188.895 347.018C188.886 347.065 188.881 347.111 188.881 347.158C188.881 347.205 188.881 347.251 188.881 347.298C188.881 347.755 188.979 348.124 189.175 348.404C189.38 348.684 189.651 348.824 189.987 348.824C190.668 348.824 191.084 348.539 191.233 347.97H192.787C192.638 348.623 192.302 349.155 191.779 349.566C191.256 349.986 190.654 350.196 189.973 350.196C189.236 350.196 188.624 349.916 188.139 349.356C187.644 348.787 187.397 348.031 187.397 347.088C187.397 346.024 187.682 345.091 188.251 344.288C188.858 343.429 189.656 343 190.645 343C191.42 343 192.012 343.28 192.423 343.84C192.806 344.344 192.997 344.997 192.997 345.8C192.997 346.183 192.946 346.589 192.843 347.018H188.895ZM190.505 344.358C190.113 344.358 189.786 344.507 189.525 344.806C189.264 345.105 189.091 345.483 189.007 345.94H191.569C191.578 345.893 191.583 345.847 191.583 345.8C191.583 345.753 191.583 345.674 191.583 345.562C191.583 345.45 191.564 345.319 191.527 345.17C191.499 345.011 191.443 344.871 191.359 344.75C191.182 344.489 190.897 344.358 190.505 344.358Z" fill="#98AFF3"/>
<path d="M195.314 343.182L196.07 347.998L197.638 343.574H199.038L199.766 348.04L201.446 343.182H202.986L200.326 350H198.814L198.072 345.982L196.616 350H195.104L193.718 343.182H195.314Z" fill="#98AFF3"/>
<path d="M209.064 340.886H210.996L212.83 350H211.192L210.814 348.068H207.79L207.034 350H205.424L209.064 340.886ZM208.308 346.78H210.562L209.806 342.902L208.308 346.78Z" fill="#98AFF3"/>
<path d="M216.923 343C217.716 343 218.309 343.196 218.701 343.588C219.093 343.971 219.265 344.456 219.219 345.044H217.777C217.777 344.829 217.697 344.657 217.539 344.526C217.38 344.395 217.142 344.33 216.825 344.33C216.507 344.33 216.255 344.4 216.069 344.54C215.882 344.671 215.779 344.829 215.761 345.016C215.723 345.333 215.933 345.567 216.391 345.716L217.819 346.332C218.267 346.509 218.607 346.738 218.841 347.018C219.074 347.289 219.172 347.601 219.135 347.956C219.107 348.311 219.018 348.619 218.869 348.88C218.719 349.132 218.519 349.356 218.267 349.552C217.725 349.981 217.049 350.196 216.237 350.196C215.425 350.196 214.785 350 214.319 349.608C213.852 349.207 213.651 348.642 213.717 347.914H215.145C215.117 348.241 215.201 348.479 215.397 348.628C215.602 348.777 215.882 348.852 216.237 348.852C216.591 348.852 216.871 348.777 217.077 348.628C217.282 348.479 217.394 348.306 217.413 348.11C217.441 347.905 217.399 347.751 217.287 347.648C217.175 347.545 216.993 347.447 216.741 347.354L215.439 346.808C214.487 346.416 214.057 345.791 214.151 344.932C214.207 344.344 214.482 343.877 214.977 343.532C215.49 343.177 216.139 343 216.923 343Z" fill="#98AFF3"/>
<path d="M223.274 343C224.067 343 224.66 343.196 225.052 343.588C225.444 343.971 225.616 344.456 225.57 345.044H224.128C224.128 344.829 224.048 344.657 223.89 344.526C223.731 344.395 223.493 344.33 223.176 344.33C222.858 344.33 222.606 344.4 222.42 344.54C222.233 344.671 222.13 344.829 222.112 345.016C222.074 345.333 222.284 345.567 222.742 345.716L224.17 346.332C224.618 346.509 224.958 346.738 225.192 347.018C225.425 347.289 225.523 347.601 225.486 347.956C225.458 348.311 225.369 348.619 225.22 348.88C225.07 349.132 224.87 349.356 224.618 349.552C224.076 349.981 223.4 350.196 222.588 350.196C221.776 350.196 221.136 350 220.67 349.608C220.203 349.207 220.002 348.642 220.068 347.914H221.496C221.468 348.241 221.552 348.479 221.748 348.628C221.953 348.777 222.233 348.852 222.588 348.852C222.942 348.852 223.222 348.777 223.428 348.628C223.633 348.479 223.745 348.306 223.764 348.11C223.792 347.905 223.75 347.751 223.638 347.648C223.526 347.545 223.344 347.447 223.092 347.354L221.79 346.808C220.838 346.416 220.408 345.791 220.502 344.932C220.558 344.344 220.833 343.877 221.328 343.532C221.841 343.177 222.49 343 223.274 343Z" fill="#98AFF3"/>
<path d="M227.902 347.018C227.893 347.065 227.888 347.111 227.888 347.158C227.888 347.205 227.888 347.251 227.888 347.298C227.888 347.755 227.986 348.124 228.182 348.404C228.388 348.684 228.658 348.824 228.994 348.824C229.676 348.824 230.091 348.539 230.24 347.97H231.794C231.645 348.623 231.309 349.155 230.786 349.566C230.264 349.986 229.662 350.196 228.98 350.196C228.243 350.196 227.632 349.916 227.146 349.356C226.652 348.787 226.404 348.031 226.404 347.088C226.404 346.024 226.689 345.091 227.258 344.288C227.865 343.429 228.663 343 229.652 343C230.427 343 231.02 343.28 231.43 343.84C231.813 344.344 232.004 344.997 232.004 345.8C232.004 346.183 231.953 346.589 231.85 347.018H227.902ZM229.512 344.358C229.12 344.358 228.794 344.507 228.532 344.806C228.271 345.105 228.098 345.483 228.014 345.94H230.576C230.586 345.893 230.59 345.847 230.59 345.8C230.59 345.753 230.59 345.674 230.59 345.562C230.59 345.45 230.572 345.319 230.534 345.17C230.506 345.011 230.45 344.871 230.366 344.75C230.189 344.489 229.904 344.358 229.512 344.358Z" fill="#98AFF3"/>
<path d="M236.576 349.832C236.007 350.075 235.559 350.196 235.232 350.196C234.905 350.196 234.625 350.154 234.392 350.07C234.159 349.986 233.958 349.86 233.79 349.692C233.426 349.319 233.281 348.787 233.356 348.096L233.706 344.316H232.866L232.978 343.182H233.818L233.986 341.404H235.526L235.358 343.182H236.996L236.884 344.316H235.232L234.896 348.04C234.84 348.581 235.05 348.852 235.526 348.852C235.769 348.852 236.081 348.777 236.464 348.628L236.576 349.832Z" fill="#98AFF3"/>
<path d="M170.322 324.704C170.826 324.704 171.256 324.774 171.61 324.914C171.974 325.045 172.278 325.236 172.52 325.488C173.024 325.983 173.304 326.65 173.36 327.49L171.694 327.826C171.62 327.35 171.456 326.967 171.204 326.678C170.962 326.389 170.63 326.244 170.21 326.244C169.65 326.244 169.17 326.505 168.768 327.028C168.358 327.588 168.096 328.386 167.984 329.422C167.9 330.439 167.994 331.233 168.264 331.802C168.535 332.362 168.955 332.642 169.524 332.642C170.103 332.642 170.546 332.488 170.854 332.18C171.172 331.863 171.354 331.466 171.4 330.99H173.052C172.95 332.017 172.581 332.81 171.946 333.37C171.312 333.921 170.481 334.196 169.454 334.196C168.362 334.196 167.532 333.776 166.962 332.936C166.402 332.096 166.197 330.925 166.346 329.422C166.496 327.919 166.939 326.748 167.676 325.908C168.386 325.105 169.268 324.704 170.322 324.704Z" stroke="#D2DCFA" stroke-width="7.76" mask="url(#path-14-outside-1)"/>
<path d="M178.25 332.796C177.783 333.683 177.125 334.126 176.276 334.126C175.184 334.126 174.512 333.659 174.26 332.726C174.166 332.399 174.143 331.998 174.19 331.522L174.61 327.168H176.136L175.73 331.34C175.692 331.779 175.758 332.105 175.926 332.32C176.103 332.535 176.378 332.642 176.752 332.642C177.134 332.642 177.498 332.46 177.844 332.096C178.189 331.723 178.399 331.163 178.474 330.416L178.782 327.168H180.322L179.692 334H178.138L178.25 332.796Z" stroke="#D2DCFA" stroke-width="7.76" mask="url(#path-14-outside-1)"/>
<path d="M184.597 327C185.391 327 185.983 327.196 186.375 327.588C186.767 327.971 186.94 328.456 186.893 329.044H185.451C185.451 328.829 185.372 328.657 185.213 328.526C185.055 328.395 184.817 328.33 184.499 328.33C184.182 328.33 183.93 328.4 183.743 328.54C183.557 328.671 183.454 328.829 183.435 329.016C183.398 329.333 183.608 329.567 184.065 329.716L185.493 330.332C185.941 330.509 186.282 330.738 186.515 331.018C186.749 331.289 186.847 331.601 186.809 331.956C186.781 332.311 186.693 332.619 186.543 332.88C186.394 333.132 186.193 333.356 185.941 333.552C185.4 333.981 184.723 334.196 183.911 334.196C183.099 334.196 182.46 334 181.993 333.608C181.527 333.207 181.326 332.642 181.391 331.914H182.819C182.791 332.241 182.875 332.479 183.071 332.628C183.277 332.777 183.557 332.852 183.911 332.852C184.266 332.852 184.546 332.777 184.751 332.628C184.957 332.479 185.069 332.306 185.087 332.11C185.115 331.905 185.073 331.751 184.961 331.648C184.849 331.545 184.667 331.447 184.415 331.354L183.113 330.808C182.161 330.416 181.732 329.791 181.825 328.932C181.881 328.344 182.157 327.877 182.651 327.532C183.165 327.177 183.813 327 184.597 327Z" stroke="#D2DCFA" stroke-width="7.76" mask="url(#path-14-outside-1)"/>
<path d="M191.494 333.832C190.925 334.075 190.477 334.196 190.15 334.196C189.824 334.196 189.544 334.154 189.31 334.07C189.077 333.986 188.876 333.86 188.708 333.692C188.344 333.319 188.2 332.787 188.274 332.096L188.624 328.316H187.784L187.896 327.182H188.736L188.904 325.404H190.444L190.276 327.182H191.914L191.802 328.316H190.15L189.814 332.04C189.758 332.581 189.968 332.852 190.444 332.852C190.687 332.852 191 332.777 191.382 332.628L191.494 333.832Z" stroke="#D2DCFA" stroke-width="7.76" mask="url(#path-14-outside-1)"/>
<path d="M195.966 327C196.386 327 196.769 327.075 197.114 327.224C197.469 327.364 197.768 327.583 198.01 327.882C198.533 328.517 198.738 329.427 198.626 330.612C198.524 331.751 198.15 332.647 197.506 333.3C196.909 333.897 196.176 334.196 195.308 334.196C194.431 334.196 193.75 333.897 193.264 333.3C192.742 332.665 192.536 331.769 192.648 330.612C192.751 329.436 193.124 328.526 193.768 327.882C194.356 327.294 195.089 327 195.966 327ZM197.072 330.598C197.147 329.889 197.077 329.361 196.862 329.016C196.648 328.661 196.321 328.484 195.882 328.484C195.453 328.484 195.08 328.661 194.762 329.016C194.454 329.361 194.263 329.889 194.188 330.598C194.114 331.307 194.188 331.839 194.412 332.194C194.636 332.539 194.963 332.712 195.392 332.712C195.822 332.712 196.19 332.539 196.498 332.194C196.816 331.839 197.007 331.307 197.072 330.598Z" stroke="#D2DCFA" stroke-width="7.76" mask="url(#path-14-outside-1)"/>
<path d="M205.595 328.456C206.08 327.485 206.822 327 207.821 327C208.549 327 209.09 327.28 209.445 327.84C209.762 328.344 209.883 329.072 209.809 330.024L209.445 334H207.891L208.255 330.024C208.301 329.529 208.231 329.161 208.045 328.918C207.858 328.666 207.569 328.54 207.177 328.54C206.785 328.54 206.444 328.736 206.155 329.128C205.865 329.511 205.683 330.113 205.609 330.934L205.329 334H203.789L204.153 330.024C204.209 329.529 204.139 329.161 203.943 328.918C203.756 328.666 203.467 328.54 203.075 328.54C202.683 328.54 202.328 328.741 202.011 329.142C201.693 329.543 201.497 330.155 201.423 330.976L201.143 334H199.603L200.247 327.182H201.591C201.6 327.378 201.605 327.574 201.605 327.77C201.614 327.957 201.623 328.143 201.633 328.33C202.127 327.443 202.813 327 203.691 327C204.204 327 204.615 327.131 204.923 327.392C205.24 327.653 205.464 328.008 205.595 328.456Z" stroke="#D2DCFA" stroke-width="7.76" mask="url(#path-14-outside-1)"/>
<path d="M212.083 327.168H213.609L212.965 334H211.439L212.083 327.168ZM212.083 324.998C212.12 324.699 212.228 324.461 212.405 324.284C212.592 324.097 212.834 324.004 213.133 324.004C213.432 324.004 213.651 324.097 213.791 324.284C213.94 324.461 214.001 324.704 213.973 325.012C213.954 325.311 213.852 325.549 213.665 325.726C213.478 325.903 213.236 325.992 212.937 325.992C212.648 325.992 212.428 325.903 212.279 325.726C212.13 325.549 212.064 325.306 212.083 324.998Z" stroke="#D2DCFA" stroke-width="7.76" mask="url(#path-14-outside-1)"/>
<path d="M214.881 332.614L218.381 328.568H215.245L215.385 327.182H220.215L220.075 328.568L216.673 332.614H219.711L219.571 334H214.741L214.881 332.614Z" stroke="#D2DCFA" stroke-width="7.76" mask="url(#path-14-outside-1)"/>
<path d="M222.389 331.018C222.379 331.065 222.375 331.111 222.375 331.158C222.375 331.205 222.375 331.251 222.375 331.298C222.375 331.755 222.473 332.124 222.669 332.404C222.874 332.684 223.145 332.824 223.481 332.824C224.162 332.824 224.577 332.539 224.727 331.97H226.281C226.131 332.623 225.795 333.155 225.273 333.566C224.75 333.986 224.148 334.196 223.467 334.196C222.729 334.196 222.118 333.916 221.633 333.356C221.138 332.787 220.891 332.031 220.891 331.088C220.891 330.024 221.175 329.091 221.745 328.288C222.351 327.429 223.149 327 224.139 327C224.913 327 225.506 327.28 225.917 327.84C226.299 328.344 226.491 328.997 226.491 329.8C226.491 330.183 226.439 330.589 226.337 331.018H222.389ZM223.999 328.358C223.607 328.358 223.28 328.507 223.019 328.806C222.757 329.105 222.585 329.483 222.501 329.94H225.063C225.072 329.893 225.077 329.847 225.077 329.8C225.077 329.753 225.077 329.674 225.077 329.562C225.077 329.45 225.058 329.319 225.021 329.17C224.993 329.011 224.937 328.871 224.853 328.75C224.675 328.489 224.391 328.358 223.999 328.358Z" stroke="#D2DCFA" stroke-width="7.76" mask="url(#path-14-outside-1)"/>
<path d="M231.664 332.922C231.207 333.771 230.591 334.196 229.816 334.196C229.098 334.196 228.505 333.911 228.038 333.342C227.562 332.763 227.324 332.003 227.324 331.06C227.324 330.052 227.586 329.147 228.108 328.344C228.706 327.448 229.466 327 230.39 327C231.156 327 231.702 327.336 232.028 328.008L232.378 324.396H233.932L233.022 334H231.762L231.664 332.922ZM231.832 329.982C231.832 329.525 231.711 329.17 231.468 328.918C231.235 328.666 230.955 328.54 230.628 328.54C230.311 328.54 230.04 328.619 229.816 328.778C229.602 328.927 229.429 329.119 229.298 329.352C229.028 329.8 228.892 330.304 228.892 330.864C228.892 331.415 229.009 331.853 229.242 332.18C229.485 332.497 229.802 332.656 230.194 332.656C230.54 332.656 230.866 332.511 231.174 332.222C231.492 331.923 231.678 331.541 231.734 331.074L231.818 330.206C231.828 330.159 231.832 330.117 231.832 330.08V329.982Z" stroke="#D2DCFA" stroke-width="7.76" mask="url(#path-14-outside-1)"/>
<path d="M169.95 343.686C169.876 344.339 169.656 344.895 169.292 345.352C168.938 345.809 168.443 346.131 167.808 346.318L169.656 350H167.654L166.198 346.458H165.092L164.77 350H163.23L164.084 340.886H167.136C168.126 340.886 168.858 341.143 169.334 341.656C169.82 342.16 170.025 342.837 169.95 343.686ZM166.562 345.324C167.104 345.324 167.524 345.189 167.822 344.918C168.13 344.647 168.308 344.293 168.354 343.854C168.382 343.406 168.284 343.047 168.06 342.776C167.846 342.496 167.491 342.356 166.996 342.356H165.484L165.19 345.324H166.562Z" stroke="#D2DCFA" stroke-width="7.76" mask="url(#path-14-outside-1)"/>
<path d="M172.331 347.018C172.321 347.065 172.317 347.111 172.317 347.158C172.317 347.205 172.317 347.251 172.317 347.298C172.317 347.755 172.415 348.124 172.611 348.404C172.816 348.684 173.087 348.824 173.423 348.824C174.104 348.824 174.519 348.539 174.669 347.97H176.223C176.073 348.623 175.737 349.155 175.215 349.566C174.692 349.986 174.09 350.196 173.409 350.196C172.671 350.196 172.06 349.916 171.575 349.356C171.08 348.787 170.833 348.031 170.833 347.088C170.833 346.024 171.117 345.091 171.687 344.288C172.293 343.429 173.091 343 174.081 343C174.855 343 175.448 343.28 175.859 343.84C176.241 344.344 176.433 344.997 176.433 345.8C176.433 346.183 176.381 346.589 176.279 347.018H172.331ZM173.941 344.358C173.549 344.358 173.222 344.507 172.961 344.806C172.699 345.105 172.527 345.483 172.443 345.94H175.005C175.014 345.893 175.019 345.847 175.019 345.8C175.019 345.753 175.019 345.674 175.019 345.562C175.019 345.45 175 345.319 174.963 345.17C174.935 345.011 174.879 344.871 174.795 344.75C174.617 344.489 174.333 344.358 173.941 344.358Z" stroke="#D2DCFA" stroke-width="7.76" mask="url(#path-14-outside-1)"/>
<path d="M178.918 343.182L179.786 348.306L181.648 343.182H183.412L180.5 350H178.778L177.154 343.182H178.918Z" stroke="#D2DCFA" stroke-width="7.76" mask="url(#path-14-outside-1)"/>
<path d="M184.571 343.168H186.097L185.453 350H183.927L184.571 343.168ZM184.571 340.998C184.608 340.699 184.716 340.461 184.893 340.284C185.08 340.097 185.322 340.004 185.621 340.004C185.92 340.004 186.139 340.097 186.279 340.284C186.428 340.461 186.489 340.704 186.461 341.012C186.442 341.311 186.34 341.549 186.153 341.726C185.966 341.903 185.724 341.992 185.425 341.992C185.136 341.992 184.916 341.903 184.767 341.726C184.618 341.549 184.552 341.306 184.571 340.998Z" stroke="#D2DCFA" stroke-width="7.76" mask="url(#path-14-outside-1)"/>
<path d="M188.895 347.018C188.886 347.065 188.881 347.111 188.881 347.158C188.881 347.205 188.881 347.251 188.881 347.298C188.881 347.755 188.979 348.124 189.175 348.404C189.38 348.684 189.651 348.824 189.987 348.824C190.668 348.824 191.084 348.539 191.233 347.97H192.787C192.638 348.623 192.302 349.155 191.779 349.566C191.256 349.986 190.654 350.196 189.973 350.196C189.236 350.196 188.624 349.916 188.139 349.356C187.644 348.787 187.397 348.031 187.397 347.088C187.397 346.024 187.682 345.091 188.251 344.288C188.858 343.429 189.656 343 190.645 343C191.42 343 192.012 343.28 192.423 343.84C192.806 344.344 192.997 344.997 192.997 345.8C192.997 346.183 192.946 346.589 192.843 347.018H188.895ZM190.505 344.358C190.113 344.358 189.786 344.507 189.525 344.806C189.264 345.105 189.091 345.483 189.007 345.94H191.569C191.578 345.893 191.583 345.847 191.583 345.8C191.583 345.753 191.583 345.674 191.583 345.562C191.583 345.45 191.564 345.319 191.527 345.17C191.499 345.011 191.443 344.871 191.359 344.75C191.182 344.489 190.897 344.358 190.505 344.358Z" stroke="#D2DCFA" stroke-width="7.76" mask="url(#path-14-outside-1)"/>
<path d="M195.314 343.182L196.07 347.998L197.638 343.574H199.038L199.766 348.04L201.446 343.182H202.986L200.326 350H198.814L198.072 345.982L196.616 350H195.104L193.718 343.182H195.314Z" stroke="#D2DCFA" stroke-width="7.76" mask="url(#path-14-outside-1)"/>
<path d="M209.064 340.886H210.996L212.83 350H211.192L210.814 348.068H207.79L207.034 350H205.424L209.064 340.886ZM208.308 346.78H210.562L209.806 342.902L208.308 346.78Z" stroke="#D2DCFA" stroke-width="7.76" mask="url(#path-14-outside-1)"/>
<path d="M216.923 343C217.716 343 218.309 343.196 218.701 343.588C219.093 343.971 219.265 344.456 219.219 345.044H217.777C217.777 344.829 217.697 344.657 217.539 344.526C217.38 344.395 217.142 344.33 216.825 344.33C216.507 344.33 216.255 344.4 216.069 344.54C215.882 344.671 215.779 344.829 215.761 345.016C215.723 345.333 215.933 345.567 216.391 345.716L217.819 346.332C218.267 346.509 218.607 346.738 218.841 347.018C219.074 347.289 219.172 347.601 219.135 347.956C219.107 348.311 219.018 348.619 218.869 348.88C218.719 349.132 218.519 349.356 218.267 349.552C217.725 349.981 217.049 350.196 216.237 350.196C215.425 350.196 214.785 350 214.319 349.608C213.852 349.207 213.651 348.642 213.717 347.914H215.145C215.117 348.241 215.201 348.479 215.397 348.628C215.602 348.777 215.882 348.852 216.237 348.852C216.591 348.852 216.871 348.777 217.077 348.628C217.282 348.479 217.394 348.306 217.413 348.11C217.441 347.905 217.399 347.751 217.287 347.648C217.175 347.545 216.993 347.447 216.741 347.354L215.439 346.808C214.487 346.416 214.057 345.791 214.151 344.932C214.207 344.344 214.482 343.877 214.977 343.532C215.49 343.177 216.139 343 216.923 343Z" stroke="#D2DCFA" stroke-width="7.76" mask="url(#path-14-outside-1)"/>
<path d="M223.274 343C224.067 343 224.66 343.196 225.052 343.588C225.444 343.971 225.616 344.456 225.57 345.044H224.128C224.128 344.829 224.048 344.657 223.89 344.526C223.731 344.395 223.493 344.33 223.176 344.33C222.858 344.33 222.606 344.4 222.42 344.54C222.233 344.671 222.13 344.829 222.112 345.016C222.074 345.333 222.284 345.567 222.742 345.716L224.17 346.332C224.618 346.509 224.958 346.738 225.192 347.018C225.425 347.289 225.523 347.601 225.486 347.956C225.458 348.311 225.369 348.619 225.22 348.88C225.07 349.132 224.87 349.356 224.618 349.552C224.076 349.981 223.4 350.196 222.588 350.196C221.776 350.196 221.136 350 220.67 349.608C220.203 349.207 220.002 348.642 220.068 347.914H221.496C221.468 348.241 221.552 348.479 221.748 348.628C221.953 348.777 222.233 348.852 222.588 348.852C222.942 348.852 223.222 348.777 223.428 348.628C223.633 348.479 223.745 348.306 223.764 348.11C223.792 347.905 223.75 347.751 223.638 347.648C223.526 347.545 223.344 347.447 223.092 347.354L221.79 346.808C220.838 346.416 220.408 345.791 220.502 344.932C220.558 344.344 220.833 343.877 221.328 343.532C221.841 343.177 222.49 343 223.274 343Z" stroke="#D2DCFA" stroke-width="7.76" mask="url(#path-14-outside-1)"/>
<path d="M227.902 347.018C227.893 347.065 227.888 347.111 227.888 347.158C227.888 347.205 227.888 347.251 227.888 347.298C227.888 347.755 227.986 348.124 228.182 348.404C228.388 348.684 228.658 348.824 228.994 348.824C229.676 348.824 230.091 348.539 230.24 347.97H231.794C231.645 348.623 231.309 349.155 230.786 349.566C230.264 349.986 229.662 350.196 228.98 350.196C228.243 350.196 227.632 349.916 227.146 349.356C226.652 348.787 226.404 348.031 226.404 347.088C226.404 346.024 226.689 345.091 227.258 344.288C227.865 343.429 228.663 343 229.652 343C230.427 343 231.02 343.28 231.43 343.84C231.813 344.344 232.004 344.997 232.004 345.8C232.004 346.183 231.953 346.589 231.85 347.018H227.902ZM229.512 344.358C229.12 344.358 228.794 344.507 228.532 344.806C228.271 345.105 228.098 345.483 228.014 345.94H230.576C230.586 345.893 230.59 345.847 230.59 345.8C230.59 345.753 230.59 345.674 230.59 345.562C230.59 345.45 230.572 345.319 230.534 345.17C230.506 345.011 230.45 344.871 230.366 344.75C230.189 344.489 229.904 344.358 229.512 344.358Z" stroke="#D2DCFA" stroke-width="7.76" mask="url(#path-14-outside-1)"/>
<path d="M236.576 349.832C236.007 350.075 235.559 350.196 235.232 350.196C234.905 350.196 234.625 350.154 234.392 350.07C234.159 349.986 233.958 349.86 233.79 349.692C233.426 349.319 233.281 348.787 233.356 348.096L233.706 344.316H232.866L232.978 343.182H233.818L233.986 341.404H235.526L235.358 343.182H236.996L236.884 344.316H235.232L234.896 348.04C234.84 348.581 235.05 348.852 235.526 348.852C235.769 348.852 236.081 348.777 236.464 348.628L236.576 349.832Z" stroke="#D2DCFA" stroke-width="7.76" mask="url(#path-14-outside-1)"/>
<path d="M57.4102 88.41L52.8302 93L57.4102 97.59L56.0002 99L50.0002 93L56.0002 87L57.4102 88.41Z" fill="#4285F4"/>
<path d="M76.868 87.084C77.588 87.084 78.212 87.174 78.74 87.354C79.268 87.522 79.724 87.762 80.108 88.074C80.864 88.686 81.356 89.544 81.584 90.648L79.316 91.062C79.124 90.45 78.824 89.958 78.416 89.586C78.02 89.202 77.522 89.01 76.922 89.01C76.106 89.01 75.446 89.352 74.942 90.036C74.402 90.78 74.132 91.812 74.132 93.132C74.132 94.44 74.372 95.466 74.852 96.21C75.332 96.942 75.986 97.308 76.814 97.308C77.642 97.308 78.266 97.11 78.686 96.714C79.106 96.306 79.316 95.784 79.316 95.148H81.602C81.602 96.456 81.182 97.47 80.342 98.19C79.514 98.898 78.374 99.252 76.922 99.252C75.374 99.252 74.144 98.712 73.232 97.632C72.308 96.528 71.846 95.028 71.846 93.132C71.846 91.212 72.32 89.712 73.268 88.632C74.18 87.6 75.38 87.084 76.868 87.084ZM89.5362 97.416C88.9842 98.58 88.0962 99.162 86.8722 99.162C85.3242 99.162 84.3042 98.556 83.8122 97.344C83.6322 96.924 83.5422 96.414 83.5422 95.814V90.234H85.6662V95.598C85.6662 96.174 85.8042 96.606 86.0802 96.894C86.3562 97.17 86.6922 97.308 87.0882 97.308C87.4962 97.308 87.8382 97.254 88.1142 97.146C88.3902 97.026 88.6302 96.852 88.8342 96.624C89.2782 96.108 89.5122 95.418 89.5362 94.554V90.234H91.6602V99H89.5362V97.416ZM95.8354 96.336C95.8594 97.164 96.4654 97.578 97.6534 97.578C98.1094 97.578 98.4814 97.482 98.7694 97.29C99.0694 97.086 99.2194 96.852 99.2194 96.588C99.2194 96.324 99.1294 96.12 98.9494 95.976C98.7694 95.832 98.4874 95.7 98.1034 95.58L96.1954 94.896C94.7794 94.404 94.0714 93.6 94.0714 92.484C94.0714 91.74 94.4014 91.146 95.0614 90.702C95.7334 90.246 96.6274 90.018 97.7434 90.018C98.8714 90.018 99.7354 90.264 100.335 90.756C100.947 91.248 101.265 91.866 101.289 92.61H99.2914C99.2674 92.322 99.1294 92.094 98.8774 91.926C98.6254 91.758 98.2654 91.674 97.7974 91.674C97.3294 91.674 96.9634 91.77 96.6994 91.962C96.4474 92.142 96.3214 92.352 96.3214 92.592C96.3214 93.012 96.6754 93.324 97.3834 93.528L99.4534 94.302C100.137 94.53 100.659 94.824 101.019 95.184C101.391 95.532 101.577 95.988 101.577 96.552C101.577 97.272 101.235 97.896 100.551 98.424C99.8434 98.976 98.9074 99.252 97.7434 99.252C96.5794 99.252 95.6434 99 94.9354 98.496C94.2274 97.98 93.8674 97.26 93.8554 96.336H95.8354ZM108.712 98.784C107.92 99.096 107.296 99.252 106.84 99.252C106.384 99.252 105.982 99.198 105.634 99.09C105.298 98.982 104.998 98.82 104.734 98.604C104.182 98.112 103.906 97.434 103.906 96.57V91.674H102.682V90.252H103.906V87.948H106.03V90.252H108.406V91.674H106.03V96.498C106.03 97.218 106.372 97.578 107.056 97.578C107.404 97.578 107.854 97.482 108.406 97.29L108.712 98.784ZM113.959 90.018C114.547 90.018 115.099 90.114 115.615 90.306C116.131 90.486 116.575 90.768 116.947 91.152C117.775 91.992 118.189 93.156 118.189 94.644C118.189 96.108 117.775 97.26 116.947 98.1C116.203 98.868 115.207 99.252 113.959 99.252C112.711 99.252 111.703 98.868 110.935 98.1C110.107 97.272 109.693 96.12 109.693 94.644C109.693 93.144 110.107 91.98 110.935 91.152C111.691 90.396 112.699 90.018 113.959 90.018ZM116.065 94.626C116.065 93.702 115.885 93.012 115.525 92.556C115.165 92.088 114.661 91.854 114.013 91.854C113.377 91.854 112.855 92.088 112.447 92.556C112.039 93.012 111.835 93.702 111.835 94.626C111.835 95.55 112.015 96.246 112.375 96.714C112.747 97.17 113.251 97.398 113.887 97.398C114.523 97.398 115.045 97.17 115.453 96.714C115.861 96.246 116.065 95.55 116.065 94.626ZM128.132 91.908C128.696 90.648 129.686 90.018 131.102 90.018C132.146 90.018 132.956 90.372 133.532 91.08C134.084 91.752 134.36 92.688 134.36 93.888V99H132.218V93.888C132.218 93.24 132.062 92.754 131.75 92.43C131.438 92.094 131 91.926 130.436 91.926C129.872 91.926 129.41 92.172 129.05 92.664C128.69 93.156 128.498 93.9 128.474 94.896V99H126.35V93.888C126.35 93.24 126.194 92.754 125.882 92.43C125.57 92.094 125.132 91.926 124.568 91.926C124.004 91.926 123.518 92.178 123.11 92.682C122.714 93.186 122.504 93.942 122.48 94.95V99H120.356V90.252H122.21L122.444 91.764C123.02 90.6 123.944 90.018 125.216 90.018C125.948 90.018 126.554 90.186 127.034 90.522C127.526 90.858 127.892 91.32 128.132 91.908ZM137.262 90.234H139.386V99H137.262V90.234ZM137.01 87.426C137.01 87.042 137.124 86.742 137.352 86.526C137.58 86.298 137.904 86.184 138.324 86.184C138.732 86.184 139.05 86.298 139.278 86.526C139.518 86.742 139.638 87.042 139.638 87.426C139.638 87.81 139.518 88.116 139.278 88.344C139.05 88.56 138.732 88.668 138.324 88.668C137.904 88.668 137.58 88.56 137.352 88.344C137.124 88.116 137.01 87.81 137.01 87.426ZM141.981 97.272L146.517 91.98H141.981V90.252H148.857V91.98L144.465 97.272H148.857V99H141.981V97.272ZM157.283 91.296C157.583 91.68 157.805 92.124 157.949 92.628C158.105 93.132 158.183 93.594 158.183 94.014C158.183 94.434 158.159 94.812 158.111 95.148H152.459C152.483 95.856 152.657 96.432 152.981 96.876C153.305 97.32 153.797 97.542 154.457 97.542C155.333 97.542 155.855 97.158 156.023 96.39H158.165C158.021 97.266 157.619 97.956 156.959 98.46C156.275 98.988 155.441 99.252 154.457 99.252C153.305 99.252 152.339 98.832 151.559 97.992C150.755 97.116 150.353 95.994 150.353 94.626C150.353 93.222 150.755 92.094 151.559 91.242C152.327 90.426 153.293 90.018 154.457 90.018C155.669 90.018 156.611 90.444 157.283 91.296ZM154.475 91.71C153.875 91.71 153.407 91.908 153.071 92.304C152.735 92.688 152.537 93.186 152.477 93.798H156.203C156.203 92.85 155.903 92.214 155.303 91.89C155.075 91.77 154.799 91.71 154.475 91.71ZM167.438 93.888C168.134 93.888 168.938 94.002 169.85 94.23V93.366C169.85 92.754 169.724 92.304 169.472 92.016C169.232 91.716 168.83 91.566 168.266 91.566C167.714 91.566 167.288 91.68 166.988 91.908C166.688 92.124 166.538 92.436 166.538 92.844H164.216C164.216 91.848 164.564 91.128 165.26 90.684C165.968 90.24 166.952 90.018 168.212 90.018C170.012 90.018 171.176 90.648 171.704 91.908C171.884 92.34 171.974 92.85 171.974 93.438V99H170.12L169.958 97.83C169.394 98.778 168.53 99.252 167.366 99.252C166.238 99.252 165.362 98.976 164.738 98.424C164.162 97.896 163.874 97.23 163.874 96.426C163.874 95.61 164.192 94.986 164.828 94.554C165.464 94.11 166.334 93.888 167.438 93.888ZM169.85 95.58C169.142 95.388 168.482 95.292 167.87 95.292C166.718 95.292 166.142 95.676 166.142 96.444C166.142 96.768 166.274 97.05 166.538 97.29C166.802 97.518 167.222 97.632 167.798 97.632C168.386 97.632 168.866 97.44 169.238 97.056C169.622 96.66 169.826 96.168 169.85 95.58ZM175.898 96.336C175.922 97.164 176.528 97.578 177.716 97.578C178.172 97.578 178.544 97.482 178.832 97.29C179.132 97.086 179.282 96.852 179.282 96.588C179.282 96.324 179.192 96.12 179.012 95.976C178.832 95.832 178.55 95.7 178.166 95.58L176.258 94.896C174.842 94.404 174.134 93.6 174.134 92.484C174.134 91.74 174.464 91.146 175.124 90.702C175.796 90.246 176.69 90.018 177.806 90.018C178.934 90.018 179.798 90.264 180.398 90.756C181.01 91.248 181.328 91.866 181.352 92.61H179.354C179.33 92.322 179.192 92.094 178.94 91.926C178.688 91.758 178.328 91.674 177.86 91.674C177.392 91.674 177.026 91.77 176.762 91.962C176.51 92.142 176.384 92.352 176.384 92.592C176.384 93.012 176.738 93.324 177.446 93.528L179.516 94.302C180.2 94.53 180.722 94.824 181.082 95.184C181.454 95.532 181.64 95.988 181.64 96.552C181.64 97.272 181.298 97.896 180.614 98.424C179.906 98.976 178.97 99.252 177.806 99.252C176.642 99.252 175.706 99 174.998 98.496C174.29 97.98 173.93 97.26 173.918 96.336H175.898ZM185.03 96.336C185.054 97.164 185.66 97.578 186.848 97.578C187.304 97.578 187.676 97.482 187.964 97.29C188.264 97.086 188.414 96.852 188.414 96.588C188.414 96.324 188.324 96.12 188.144 95.976C187.964 95.832 187.682 95.7 187.298 95.58L185.39 94.896C183.974 94.404 183.266 93.6 183.266 92.484C183.266 91.74 183.596 91.146 184.256 90.702C184.928 90.246 185.822 90.018 186.938 90.018C188.066 90.018 188.93 90.264 189.53 90.756C190.142 91.248 190.46 91.866 190.484 92.61H188.486C188.462 92.322 188.324 92.094 188.072 91.926C187.82 91.758 187.46 91.674 186.992 91.674C186.524 91.674 186.158 91.77 185.894 91.962C185.642 92.142 185.516 92.352 185.516 92.592C185.516 93.012 185.87 93.324 186.578 93.528L188.648 94.302C189.332 94.53 189.854 94.824 190.214 95.184C190.586 95.532 190.772 95.988 190.772 96.552C190.772 97.272 190.43 97.896 189.746 98.424C189.038 98.976 188.102 99.252 186.938 99.252C185.774 99.252 184.838 99 184.13 98.496C183.422 97.98 183.062 97.26 183.05 96.336H185.03ZM199.076 91.296C199.376 91.68 199.598 92.124 199.742 92.628C199.898 93.132 199.976 93.594 199.976 94.014C199.976 94.434 199.952 94.812 199.904 95.148H194.252C194.276 95.856 194.45 96.432 194.774 96.876C195.098 97.32 195.59 97.542 196.25 97.542C197.126 97.542 197.648 97.158 197.816 96.39H199.958C199.814 97.266 199.412 97.956 198.752 98.46C198.068 98.988 197.234 99.252 196.25 99.252C195.098 99.252 194.132 98.832 193.352 97.992C192.548 97.116 192.146 95.994 192.146 94.626C192.146 93.222 192.548 92.094 193.352 91.242C194.12 90.426 195.086 90.018 196.25 90.018C197.462 90.018 198.404 90.444 199.076 91.296ZM196.268 91.71C195.668 91.71 195.2 91.908 194.864 92.304C194.528 92.688 194.33 93.186 194.27 93.798H197.996C197.996 92.85 197.696 92.214 197.096 91.89C196.868 91.77 196.592 91.71 196.268 91.71ZM207.091 98.784C206.299 99.096 205.675 99.252 205.219 99.252C204.763 99.252 204.361 99.198 204.013 99.09C203.677 98.982 203.377 98.82 203.113 98.604C202.561 98.112 202.285 97.434 202.285 96.57V91.674H201.061V90.252H202.285V87.948H204.409V90.252H206.785V91.674H204.409V96.498C204.409 97.218 204.751 97.578 205.435 97.578C205.783 97.578 206.233 97.482 206.785 97.29L207.091 98.784Z" fill="#4285F4"/>
</g>
<defs>
<clipPath id="clip0">
<rect width="400" height="797.554" fill="white"/>
</clipPath>
</defs>
</svg>
