<svg width="400" height="798" viewBox="0 0 400 798" fill="none" xmlns="http://www.w3.org/2000/svg">
<g clip-path="url(#clip0)">
<rect width="400" height="797.554" fill="white"/>
<rect x="399" y="1" width="796" height="398" rx="5" transform="rotate(90 399 1)" fill="white" stroke="#D2DCFA" stroke-width="2"/>
<path d="M1 51H399V791C399 794.314 396.314 797 393 797H7C3.6863 797 1 794.314 1 791V51Z" fill="#D2DCFA" fill-opacity="0.5"/>
<g filter="url(#filter0_dd)">
<rect x="370" y="772" width="340" height="678" rx="6" transform="rotate(-180 370 772)" fill="white"/>
</g>
<line y1="50" x2="400" y2="50" stroke="#D2DCFA" stroke-width="2"/>
<path d="M26.076 23.42C25.9267 22.6267 25.3667 22.23 24.396 22.23C23.92 22.23 23.5467 22.328 23.276 22.524C23.0147 22.7107 22.884 22.9393 22.884 23.21C22.884 23.4807 22.968 23.6953 23.136 23.854C23.3133 24.0033 23.584 24.1433 23.948 24.274L25.922 25.044C26.594 25.3053 27.112 25.6367 27.476 26.038C27.84 26.43 28.022 26.9247 28.022 27.522C28.022 28.3433 27.714 28.9967 27.098 29.482C26.482 29.958 25.6047 30.196 24.466 30.196C23.458 30.196 22.6413 29.9487 22.016 29.454C21.316 28.9127 20.9473 28.1473 20.91 27.158H22.548C22.548 27.9047 22.9353 28.376 23.71 28.572C23.9433 28.6373 24.2513 28.67 24.634 28.67C25.0167 28.67 25.3713 28.5767 25.698 28.39C26.0247 28.194 26.188 27.9373 26.188 27.62C26.188 27.2933 26.0993 27.046 25.922 26.878C25.7447 26.7007 25.4553 26.5373 25.054 26.388L23.248 25.674C22.548 25.4033 22.0113 25.086 21.638 24.722C21.2647 24.358 21.078 23.854 21.078 23.21C21.078 22.454 21.372 21.8567 21.96 21.418C22.5573 20.9607 23.3647 20.732 24.382 20.732C25.4087 20.732 26.1973 20.97 26.748 21.446C27.308 21.9127 27.63 22.5707 27.714 23.42H26.076ZM35.9977 24.484C36.4364 23.504 37.2064 23.014 38.3077 23.014C39.1197 23.014 39.7497 23.2893 40.1977 23.84C40.6271 24.3627 40.8417 25.0907 40.8417 26.024V30H39.1757V26.024C39.1757 25.52 39.0544 25.142 38.8117 24.89C38.5691 24.6287 38.2284 24.498 37.7897 24.498C37.3511 24.498 36.9917 24.6893 36.7117 25.072C36.4317 25.4547 36.2824 26.0333 36.2637 26.808V30H34.6117V26.024C34.6117 25.52 34.4904 25.142 34.2477 24.89C34.0051 24.6287 33.6644 24.498 33.2257 24.498C32.7871 24.498 32.4091 24.694 32.0917 25.086C31.7837 25.478 31.6204 26.066 31.6017 26.85V30H29.9497V23.196H31.3917L31.5737 24.372C32.0217 23.4667 32.7404 23.014 33.7297 23.014C34.2991 23.014 34.7704 23.1447 35.1437 23.406C35.5264 23.6673 35.8111 24.0267 35.9977 24.484ZM45.1988 26.024C45.7401 26.024 46.3655 26.1127 47.0748 26.29V25.618C47.0748 25.142 46.9768 24.792 46.7808 24.568C46.5941 24.3347 46.2815 24.218 45.8428 24.218C45.4135 24.218 45.0821 24.3067 44.8488 24.484C44.6155 24.652 44.4988 24.8947 44.4988 25.212H42.6928C42.6928 24.4373 42.9635 23.8773 43.5048 23.532C44.0555 23.1867 44.8208 23.014 45.8008 23.014C47.2008 23.014 48.1061 23.504 48.5168 24.484C48.6568 24.82 48.7268 25.2167 48.7268 25.674V30H47.2848L47.1588 29.09C46.7201 29.8273 46.0481 30.196 45.1428 30.196C44.2655 30.196 43.5841 29.9813 43.0988 29.552C42.6508 29.1413 42.4268 28.6233 42.4268 27.998C42.4268 27.3633 42.6741 26.878 43.1688 26.542C43.6635 26.1967 44.3401 26.024 45.1988 26.024ZM47.0748 27.34C46.5241 27.1907 46.0108 27.116 45.5348 27.116C44.6388 27.116 44.1908 27.4147 44.1908 28.012C44.1908 28.264 44.2935 28.4833 44.4988 28.67C44.7041 28.8473 45.0308 28.936 45.4788 28.936C45.9361 28.936 46.3095 28.7867 46.5988 28.488C46.8975 28.18 47.0561 27.7973 47.0748 27.34ZM50.8546 20.396H52.5066V30H50.8546V20.396ZM54.8265 20.396H56.4785V30H54.8265V20.396ZM60.8415 20.914H68.1215V22.342H65.3075V30H63.6555V22.342H60.8415V20.914ZM70.8827 24.302C71.3493 23.4433 72.0307 23.014 72.9267 23.014C73.8227 23.014 74.4807 23.2893 74.9007 23.84C75.33 24.3907 75.5447 25.1187 75.5447 26.024V30H73.8927V26.024C73.8927 25.52 73.7713 25.142 73.5287 24.89C73.286 24.6287 72.9453 24.498 72.5067 24.498C72.068 24.498 71.69 24.694 71.3727 25.086C71.0647 25.478 70.9013 26.066 70.8827 26.85V30H69.2307V20.396H70.8827V24.302ZM79.9133 26.024C80.4547 26.024 81.08 26.1127 81.7893 26.29V25.618C81.7893 25.142 81.6913 24.792 81.4953 24.568C81.3087 24.3347 80.996 24.218 80.5573 24.218C80.128 24.218 79.7967 24.3067 79.5633 24.484C79.33 24.652 79.2133 24.8947 79.2133 25.212H77.4073C77.4073 24.4373 77.678 23.8773 78.2193 23.532C78.77 23.1867 79.5353 23.014 80.5153 23.014C81.9153 23.014 82.8207 23.504 83.2313 24.484C83.3713 24.82 83.4413 25.2167 83.4413 25.674V30H81.9993L81.8733 29.09C81.4347 29.8273 80.7627 30.196 79.8573 30.196C78.98 30.196 78.2987 29.9813 77.8133 29.552C77.3653 29.1413 77.1413 28.6233 77.1413 27.998C77.1413 27.3633 77.3887 26.878 77.8833 26.542C78.378 26.1967 79.0547 26.024 79.9133 26.024ZM81.7893 27.34C81.2387 27.1907 80.7253 27.116 80.2493 27.116C79.3533 27.116 78.9053 27.4147 78.9053 28.012C78.9053 28.264 79.008 28.4833 79.2133 28.67C79.4187 28.8473 79.7453 28.936 80.1933 28.936C80.6507 28.936 81.024 28.7867 81.3133 28.488C81.612 28.18 81.7707 27.7973 81.7893 27.34ZM87.1931 24.372C87.6411 23.4667 88.3598 23.014 89.3491 23.014C90.1891 23.014 90.8191 23.2893 91.2391 23.84C91.6684 24.3907 91.8831 25.1187 91.8831 26.024V30H90.2311V26.024C90.2311 25.52 90.1098 25.142 89.8671 24.89C89.6244 24.6287 89.2838 24.498 88.8451 24.498C88.4064 24.498 88.0284 24.694 87.7111 25.086C87.4031 25.478 87.2398 26.066 87.2211 26.85V30H85.5691V23.196H87.0111L87.1931 24.372ZM96.4198 26.682L95.6638 27.312V30H94.0118V20.396H95.6638V25.59L98.3518 23.196H100.592L97.5818 25.716L100.76 30H98.7438L96.4198 26.682ZM102.708 27.928C102.727 28.572 103.198 28.894 104.122 28.894C104.477 28.894 104.766 28.8193 104.99 28.67C105.224 28.5113 105.34 28.3293 105.34 28.124C105.34 27.9187 105.27 27.76 105.13 27.648C104.99 27.536 104.771 27.4333 104.472 27.34L102.988 26.808C101.887 26.4253 101.336 25.8 101.336 24.932C101.336 24.3533 101.593 23.8913 102.106 23.546C102.629 23.1913 103.324 23.014 104.192 23.014C105.07 23.014 105.742 23.2053 106.208 23.588C106.684 23.9707 106.932 24.4513 106.95 25.03H105.396C105.378 24.806 105.27 24.6287 105.074 24.498C104.878 24.3673 104.598 24.302 104.234 24.302C103.87 24.302 103.586 24.3767 103.38 24.526C103.184 24.666 103.086 24.8293 103.086 25.016C103.086 25.3427 103.362 25.5853 103.912 25.744L105.522 26.346C106.054 26.5233 106.46 26.752 106.74 27.032C107.03 27.3027 107.174 27.6573 107.174 28.096C107.174 28.656 106.908 29.1413 106.376 29.552C105.826 29.9813 105.098 30.196 104.192 30.196C103.287 30.196 102.559 30 102.008 29.608C101.458 29.2067 101.178 28.6467 101.168 27.928H102.708ZM112.75 23.196L114.122 28.054L115.424 23.574H116.922L118.224 28.068L119.61 23.196H121.262L119.022 30H117.398L116.138 25.926L114.906 30H113.268L111.014 23.196H112.75ZM122.618 23.182H124.27V30H122.618V23.182ZM122.422 20.998C122.422 20.6993 122.51 20.466 122.688 20.298C122.865 20.1207 123.117 20.032 123.444 20.032C123.761 20.032 124.008 20.1207 124.186 20.298C124.372 20.466 124.466 20.6993 124.466 20.998C124.466 21.2967 124.372 21.5347 124.186 21.712C124.008 21.88 123.761 21.964 123.444 21.964C123.117 21.964 122.865 21.88 122.688 21.712C122.51 21.5347 122.422 21.2967 122.422 20.998ZM130.627 29.832C130.011 30.0747 129.526 30.196 129.171 30.196C128.817 30.196 128.504 30.154 128.233 30.07C127.972 29.986 127.739 29.86 127.533 29.692C127.104 29.3093 126.889 28.782 126.889 28.11V24.302H125.937V23.196H126.889V21.404H128.541V23.196H130.389V24.302H128.541V28.054C128.541 28.614 128.807 28.894 129.339 28.894C129.61 28.894 129.96 28.8193 130.389 28.67L130.627 29.832ZM133.687 24.302C134.154 23.4433 134.835 23.014 135.731 23.014C136.627 23.014 137.285 23.2893 137.705 23.84C138.134 24.3907 138.349 25.1187 138.349 26.024V30H136.697V26.024C136.697 25.52 136.576 25.142 136.333 24.89C136.09 24.6287 135.75 24.498 135.311 24.498C134.872 24.498 134.494 24.694 134.177 25.086C133.869 25.478 133.706 26.066 133.687 26.85V30H132.035V20.396H133.687V24.302ZM149.311 28.558C148.919 29.65 148.167 30.196 147.057 30.196C145.918 30.196 144.98 29.7667 144.243 28.908C143.477 28.0213 143.095 26.8873 143.095 25.506C143.095 24.05 143.505 22.8833 144.327 22.006C145.12 21.1567 146.142 20.732 147.393 20.732C148.242 20.732 148.951 20.9187 149.521 21.292C150.099 21.656 150.552 22.2347 150.879 23.028L149.185 23.42C148.69 22.6267 148.065 22.23 147.309 22.23C146.618 22.23 146.044 22.524 145.587 23.112C145.111 23.7093 144.873 24.5073 144.873 25.506C144.873 26.4487 145.087 27.214 145.517 27.802C145.937 28.3807 146.497 28.67 147.197 28.67C147.794 28.67 148.284 28.4787 148.667 28.096C149.059 27.704 149.255 27.1673 149.255 26.486V26.43L147.211 26.388V25.324H150.837V30H149.493L149.311 28.558ZM155.607 23.014C156.064 23.014 156.494 23.0887 156.895 23.238C157.296 23.378 157.642 23.5973 157.931 23.896C158.575 24.5493 158.897 25.4547 158.897 26.612C158.897 27.7507 158.575 28.6467 157.931 29.3C157.352 29.8973 156.578 30.196 155.607 30.196C154.636 30.196 153.852 29.8973 153.255 29.3C152.611 28.656 152.289 27.76 152.289 26.612C152.289 25.4453 152.611 24.54 153.255 23.896C153.843 23.308 154.627 23.014 155.607 23.014ZM157.245 26.598C157.245 25.8793 157.105 25.3427 156.825 24.988C156.545 24.624 156.153 24.442 155.649 24.442C155.154 24.442 154.748 24.624 154.431 24.988C154.114 25.3427 153.955 25.8793 153.955 26.598C153.955 27.3167 154.095 27.858 154.375 28.222C154.664 28.5767 155.056 28.754 155.551 28.754C156.046 28.754 156.452 28.5767 156.769 28.222C157.086 27.858 157.245 27.3167 157.245 26.598ZM163.257 23.014C163.714 23.014 164.144 23.0887 164.545 23.238C164.946 23.378 165.292 23.5973 165.581 23.896C166.225 24.5493 166.547 25.4547 166.547 26.612C166.547 27.7507 166.225 28.6467 165.581 29.3C165.002 29.8973 164.228 30.196 163.257 30.196C162.286 30.196 161.502 29.8973 160.905 29.3C160.261 28.656 159.939 27.76 159.939 26.612C159.939 25.4453 160.261 24.54 160.905 23.896C161.493 23.308 162.277 23.014 163.257 23.014ZM164.895 26.598C164.895 25.8793 164.755 25.3427 164.475 24.988C164.195 24.624 163.803 24.442 163.299 24.442C162.804 24.442 162.398 24.624 162.081 24.988C161.764 25.3427 161.605 25.8793 161.605 26.598C161.605 27.3167 161.745 27.858 162.025 28.222C162.314 28.5767 162.706 28.754 163.201 28.754C163.696 28.754 164.102 28.5767 164.419 28.222C164.736 27.858 164.895 27.3167 164.895 26.598ZM168.821 27.214C168.27 26.7473 167.995 26.164 167.995 25.464C167.995 24.7267 168.284 24.1293 168.863 23.672C169.423 23.2333 170.062 23.014 170.781 23.014C171.509 23.014 172.115 23.1493 172.601 23.42C172.657 22.888 172.885 22.4587 173.287 22.132C173.679 21.8053 174.141 21.642 174.673 21.642L174.589 23.224C173.786 23.224 173.371 23.49 173.343 24.022C173.688 24.4513 173.861 24.89 173.861 25.338C173.861 25.786 173.781 26.164 173.623 26.472C173.464 26.7707 173.249 27.0227 172.979 27.228C172.419 27.676 171.737 27.9 170.935 27.9C170.477 27.9 170.062 27.83 169.689 27.69C169.315 27.802 169.129 28.026 169.129 28.362C169.129 28.782 169.483 28.992 170.193 28.992H172.475C174.024 28.992 174.799 29.5333 174.799 30.616C174.799 30.98 174.705 31.3347 174.519 31.68C174.341 32.0347 174.08 32.3473 173.735 32.618C172.969 33.2153 172.008 33.514 170.851 33.514C169.731 33.514 168.821 33.2853 168.121 32.828C167.467 32.3893 167.141 31.8527 167.141 31.218C167.141 30.798 167.267 30.462 167.519 30.21C167.78 29.9673 168.121 29.8133 168.541 29.748C167.99 29.412 167.715 28.9967 167.715 28.502C167.715 28.1753 167.817 27.9047 168.023 27.69C168.228 27.466 168.494 27.3073 168.821 27.214ZM170.081 30.154C169.203 30.1913 168.765 30.5227 168.765 31.148C168.765 31.4653 168.947 31.7173 169.311 31.904C169.684 32.1 170.123 32.198 170.627 32.198C171.131 32.198 171.523 32.156 171.803 32.072C172.092 31.988 172.335 31.876 172.531 31.736C172.951 31.456 173.161 31.12 173.161 30.728C173.161 30.56 173.1 30.42 172.979 30.308C172.867 30.2053 172.699 30.154 172.475 30.154H170.081ZM172.223 25.45C172.223 25.0673 172.115 24.7593 171.901 24.526C171.695 24.2833 171.378 24.162 170.949 24.162C170.519 24.162 170.193 24.2833 169.969 24.526C169.745 24.7593 169.633 25.0673 169.633 25.45C169.633 25.8233 169.745 26.1313 169.969 26.374C170.193 26.6167 170.519 26.738 170.949 26.738C171.378 26.738 171.695 26.6167 171.901 26.374C172.115 26.1313 172.223 25.8233 172.223 25.45ZM176.101 20.396H177.753V30H176.101V20.396ZM184.819 24.008C185.052 24.3067 185.225 24.652 185.337 25.044C185.458 25.436 185.519 25.7953 185.519 26.122C185.519 26.4487 185.5 26.7427 185.463 27.004H181.067C181.086 27.5547 181.221 28.0027 181.473 28.348C181.725 28.6933 182.108 28.866 182.621 28.866C183.302 28.866 183.708 28.5673 183.839 27.97H185.505C185.393 28.6513 185.08 29.188 184.567 29.58C184.035 29.9907 183.386 30.196 182.621 30.196C181.725 30.196 180.974 29.8693 180.367 29.216C179.742 28.5347 179.429 27.662 179.429 26.598C179.429 25.506 179.742 24.6287 180.367 23.966C180.964 23.3313 181.716 23.014 182.621 23.014C183.564 23.014 184.296 23.3453 184.819 24.008ZM182.635 24.33C182.168 24.33 181.804 24.484 181.543 24.792C181.282 25.0907 181.128 25.478 181.081 25.954H183.979C183.979 25.2167 183.746 24.722 183.279 24.47C183.102 24.3767 182.887 24.33 182.635 24.33Z" fill="#4285F4"/>
<rect x="50" y="560" width="300" height="50" rx="25" fill="#4285F4"/>
<path d="M155.602 578.318C157.378 578.318 158.812 578.846 159.904 579.902C161.008 580.958 161.56 582.38 161.56 584.168C161.56 585.944 161.008 587.36 159.904 588.416C158.812 589.472 157.378 590 155.602 590H151.804V578.318H155.602ZM153.946 588.074H155.602C156.706 588.074 157.6 587.702 158.284 586.958C158.932 586.238 159.256 585.308 159.256 584.168C159.256 583.004 158.932 582.062 158.284 581.342C157.612 580.61 156.718 580.244 155.602 580.244H153.946V588.074ZM168.644 578.084C169.424 578.084 170.138 578.216 170.786 578.48C171.434 578.732 171.992 579.11 172.46 579.614C173.444 580.67 173.936 582.182 173.936 584.15C173.936 586.13 173.444 587.66 172.46 588.74C171.524 589.748 170.246 590.252 168.626 590.252C167.018 590.252 165.746 589.736 164.81 588.704C163.826 587.636 163.334 586.118 163.334 584.15C163.334 582.158 163.826 580.634 164.81 579.578C165.734 578.582 167.012 578.084 168.644 578.084ZM171.74 584.186C171.74 582.842 171.458 581.81 170.894 581.09C170.342 580.358 169.592 579.992 168.644 579.992C167.696 579.992 166.94 580.358 166.376 581.09C165.812 581.81 165.53 582.842 165.53 584.186C165.53 585.518 165.812 586.544 166.376 587.264C166.94 587.972 167.696 588.326 168.644 588.326C169.592 588.326 170.342 587.972 170.894 587.264C171.458 586.544 171.74 585.518 171.74 584.186ZM177.511 578.318L180.085 587.192L182.587 579.092H184.027L186.673 587.228L189.409 578.318H191.803L187.789 590H185.557L183.361 583.412L181.183 590H178.951L175.135 578.318H177.511ZM196.12 578.318L201.268 586.598V578.318H203.392V590H201.232L195.922 581.432V590H193.798V578.318H196.12ZM208.861 588.146H213.667V590H206.737V578.318H208.861V588.146ZM220.113 578.084C220.893 578.084 221.607 578.216 222.255 578.48C222.903 578.732 223.461 579.11 223.929 579.614C224.913 580.67 225.405 582.182 225.405 584.15C225.405 586.13 224.913 587.66 223.929 588.74C222.993 589.748 221.715 590.252 220.095 590.252C218.487 590.252 217.215 589.736 216.279 588.704C215.295 587.636 214.803 586.118 214.803 584.15C214.803 582.158 215.295 580.634 216.279 579.578C217.203 578.582 218.481 578.084 220.113 578.084ZM223.209 584.186C223.209 582.842 222.927 581.81 222.363 581.09C221.811 580.358 221.061 579.992 220.113 579.992C219.165 579.992 218.409 580.358 217.845 581.09C217.281 581.81 216.999 582.842 216.999 584.186C216.999 585.518 217.281 586.544 217.845 587.264C218.409 587.972 219.165 588.326 220.113 588.326C221.061 588.326 221.811 587.972 222.363 587.264C222.927 586.544 223.209 585.518 223.209 584.186ZM230.618 578.318H233.282L237.116 590H234.866L234.056 587.48H229.718L228.89 590H226.64L230.618 578.318ZM230.258 585.878H233.534L231.914 580.856L230.258 585.878ZM242.966 578.318C244.742 578.318 246.176 578.846 247.268 579.902C248.372 580.958 248.924 582.38 248.924 584.168C248.924 585.944 248.372 587.36 247.268 588.416C246.176 589.472 244.742 590 242.966 590H239.168V578.318H242.966ZM241.31 588.074H242.966C244.07 588.074 244.964 587.702 245.648 586.958C246.296 586.238 246.62 585.308 246.62 584.168C246.62 583.004 246.296 582.062 245.648 581.342C244.976 580.61 244.082 580.244 242.966 580.244H241.31V588.074Z" fill="white"/>
<rect x="50" y="630" width="300" height="50" rx="25" fill="#4285F4"/>
<path d="M180.746 648.318C182.066 648.318 183.092 648.642 183.824 649.29C184.568 649.926 184.94 650.844 184.94 652.044C184.94 653.232 184.568 654.15 183.824 654.798C183.092 655.434 182.066 655.752 180.746 655.752H178.766V660H176.624V648.318H180.746ZM180.746 653.898C181.406 653.898 181.904 653.724 182.24 653.376C182.576 653.028 182.744 652.584 182.744 652.044C182.744 651.492 182.576 651.042 182.24 650.694C181.904 650.334 181.406 650.154 180.746 650.154H178.766V653.898H180.746ZM195.813 651.9C195.813 652.728 195.579 653.436 195.111 654.024C194.643 654.612 193.971 655.02 193.095 655.248L196.227 660H193.455L190.881 655.446H189.261V660H187.137V648.318H191.457C192.837 648.318 193.911 648.648 194.679 649.308C195.435 649.944 195.813 650.808 195.813 651.9ZM191.259 654.024C192.039 654.024 192.627 653.85 193.023 653.502C193.419 653.142 193.617 652.674 193.617 652.098C193.617 651.51 193.437 651.042 193.077 650.694C192.717 650.334 192.177 650.154 191.457 650.154H189.261V654.024H191.259ZM198.721 648.318H200.845V660H198.721V648.318ZM206.474 648.318L211.622 656.598V648.318H213.746V660H211.586L206.276 651.432V660H204.152V648.318H206.474ZM215.524 648.318H224.884V650.154H221.266V660H219.142V650.154H215.524V648.318Z" fill="white"/>
<rect x="50" y="700" width="300" height="50" rx="25" fill="#4285F4"/>
<path d="M179.019 721.54C178.827 720.52 178.107 720.01 176.859 720.01C176.247 720.01 175.767 720.136 175.419 720.388C175.083 720.628 174.915 720.922 174.915 721.27C174.915 721.618 175.023 721.894 175.239 722.098C175.467 722.29 175.815 722.47 176.283 722.638L178.821 723.628C179.685 723.964 180.351 724.39 180.819 724.906C181.287 725.41 181.521 726.046 181.521 726.814C181.521 727.87 181.125 728.71 180.333 729.334C179.541 729.946 178.413 730.252 176.949 730.252C175.653 730.252 174.603 729.934 173.799 729.298C172.899 728.602 172.425 727.618 172.377 726.346H174.483C174.483 727.306 174.981 727.912 175.977 728.164C176.277 728.248 176.673 728.29 177.165 728.29C177.657 728.29 178.113 728.17 178.533 727.93C178.953 727.678 179.163 727.348 179.163 726.94C179.163 726.52 179.049 726.202 178.821 725.986C178.593 725.758 178.221 725.548 177.705 725.356L175.383 724.438C174.483 724.09 173.793 723.682 173.313 723.214C172.833 722.746 172.593 722.098 172.593 721.27C172.593 720.298 172.971 719.53 173.727 718.966C174.495 718.378 175.533 718.084 176.841 718.084C178.161 718.084 179.175 718.39 179.883 719.002C180.603 719.602 181.017 720.448 181.125 721.54H179.019ZM186.484 718.318V723.196H191.578V718.318H193.702V730H191.578V725.05H186.484V730H184.36V718.318H186.484ZM199.769 718.318H202.433L206.267 730H204.017L203.207 727.48H198.869L198.041 730H195.791L199.769 718.318ZM199.409 725.878H202.685L201.065 720.856L199.409 725.878ZM217.012 721.9C217.012 722.728 216.778 723.436 216.31 724.024C215.842 724.612 215.17 725.02 214.294 725.248L217.426 730H214.654L212.08 725.446H210.46V730H208.336V718.318H212.656C214.036 718.318 215.11 718.648 215.878 719.308C216.634 719.944 217.012 720.808 217.012 721.9ZM212.458 724.024C213.238 724.024 213.826 723.85 214.222 723.502C214.618 723.142 214.816 722.674 214.816 722.098C214.816 721.51 214.636 721.042 214.276 720.694C213.916 720.334 213.376 720.154 212.656 720.154H210.46V724.024H212.458ZM219.902 718.318H227.426V720.154H222.026V723.232H227.084V725.068H222.026V728.146H227.426V730H219.902V718.318Z" fill="white"/>
<rect x="50" y="139" width="299.998" height="399.997" rx="6" fill="#D2DCFA"/>
<g style="mix-blend-mode:overlay">
<line x1="50.4" y1="138.7" x2="350.398" y2="538.697" stroke="black"/>
</g>
<g style="mix-blend-mode:overlay">
<line y1="-0.5" x2="499.996" y2="-0.5" transform="matrix(-0.6 0.8 0.8 0.6 350 139)" stroke="black"/>
</g>
<mask id="path-16-outside-1" maskUnits="userSpaceOnUse" x="158.23" y="321.004" width="84" height="45" fill="black">
<rect fill="white" x="158.23" y="321.004" width="84" height="45"/>
<path d="M170.322 326.704C170.826 326.704 171.256 326.774 171.61 326.914C171.974 327.045 172.278 327.236 172.52 327.488C173.024 327.983 173.304 328.65 173.36 329.49L171.694 329.826C171.62 329.35 171.456 328.967 171.204 328.678C170.962 328.389 170.63 328.244 170.21 328.244C169.65 328.244 169.17 328.505 168.768 329.028C168.358 329.588 168.096 330.386 167.984 331.422C167.9 332.439 167.994 333.233 168.264 333.802C168.535 334.362 168.955 334.642 169.524 334.642C170.103 334.642 170.546 334.488 170.854 334.18C171.172 333.863 171.354 333.466 171.4 332.99H173.052C172.95 334.017 172.581 334.81 171.946 335.37C171.312 335.921 170.481 336.196 169.454 336.196C168.362 336.196 167.532 335.776 166.962 334.936C166.402 334.096 166.197 332.925 166.346 331.422C166.496 329.919 166.939 328.748 167.676 327.908C168.386 327.105 169.268 326.704 170.322 326.704Z"/>
<path d="M178.25 334.796C177.783 335.683 177.125 336.126 176.276 336.126C175.184 336.126 174.512 335.659 174.26 334.726C174.166 334.399 174.143 333.998 174.19 333.522L174.61 329.168H176.136L175.73 333.34C175.692 333.779 175.758 334.105 175.926 334.32C176.103 334.535 176.378 334.642 176.752 334.642C177.134 334.642 177.498 334.46 177.844 334.096C178.189 333.723 178.399 333.163 178.474 332.416L178.782 329.168H180.322L179.692 336H178.138L178.25 334.796Z"/>
<path d="M184.597 329C185.391 329 185.983 329.196 186.375 329.588C186.767 329.971 186.94 330.456 186.893 331.044H185.451C185.451 330.829 185.372 330.657 185.213 330.526C185.055 330.395 184.817 330.33 184.499 330.33C184.182 330.33 183.93 330.4 183.743 330.54C183.557 330.671 183.454 330.829 183.435 331.016C183.398 331.333 183.608 331.567 184.065 331.716L185.493 332.332C185.941 332.509 186.282 332.738 186.515 333.018C186.749 333.289 186.847 333.601 186.809 333.956C186.781 334.311 186.693 334.619 186.543 334.88C186.394 335.132 186.193 335.356 185.941 335.552C185.4 335.981 184.723 336.196 183.911 336.196C183.099 336.196 182.46 336 181.993 335.608C181.527 335.207 181.326 334.642 181.391 333.914H182.819C182.791 334.241 182.875 334.479 183.071 334.628C183.277 334.777 183.557 334.852 183.911 334.852C184.266 334.852 184.546 334.777 184.751 334.628C184.957 334.479 185.069 334.306 185.087 334.11C185.115 333.905 185.073 333.751 184.961 333.648C184.849 333.545 184.667 333.447 184.415 333.354L183.113 332.808C182.161 332.416 181.732 331.791 181.825 330.932C181.881 330.344 182.157 329.877 182.651 329.532C183.165 329.177 183.813 329 184.597 329Z"/>
<path d="M191.494 335.832C190.925 336.075 190.477 336.196 190.15 336.196C189.824 336.196 189.544 336.154 189.31 336.07C189.077 335.986 188.876 335.86 188.708 335.692C188.344 335.319 188.2 334.787 188.274 334.096L188.624 330.316H187.784L187.896 329.182H188.736L188.904 327.404H190.444L190.276 329.182H191.914L191.802 330.316H190.15L189.814 334.04C189.758 334.581 189.968 334.852 190.444 334.852C190.687 334.852 191 334.777 191.382 334.628L191.494 335.832Z"/>
<path d="M195.966 329C196.386 329 196.769 329.075 197.114 329.224C197.469 329.364 197.768 329.583 198.01 329.882C198.533 330.517 198.738 331.427 198.626 332.612C198.524 333.751 198.15 334.647 197.506 335.3C196.909 335.897 196.176 336.196 195.308 336.196C194.431 336.196 193.75 335.897 193.264 335.3C192.742 334.665 192.536 333.769 192.648 332.612C192.751 331.436 193.124 330.526 193.768 329.882C194.356 329.294 195.089 329 195.966 329ZM197.072 332.598C197.147 331.889 197.077 331.361 196.862 331.016C196.648 330.661 196.321 330.484 195.882 330.484C195.453 330.484 195.08 330.661 194.762 331.016C194.454 331.361 194.263 331.889 194.188 332.598C194.114 333.307 194.188 333.839 194.412 334.194C194.636 334.539 194.963 334.712 195.392 334.712C195.822 334.712 196.19 334.539 196.498 334.194C196.816 333.839 197.007 333.307 197.072 332.598Z"/>
<path d="M205.595 330.456C206.08 329.485 206.822 329 207.821 329C208.549 329 209.09 329.28 209.445 329.84C209.762 330.344 209.883 331.072 209.809 332.024L209.445 336H207.891L208.255 332.024C208.301 331.529 208.231 331.161 208.045 330.918C207.858 330.666 207.569 330.54 207.177 330.54C206.785 330.54 206.444 330.736 206.155 331.128C205.865 331.511 205.683 332.113 205.609 332.934L205.329 336H203.789L204.153 332.024C204.209 331.529 204.139 331.161 203.943 330.918C203.756 330.666 203.467 330.54 203.075 330.54C202.683 330.54 202.328 330.741 202.011 331.142C201.693 331.543 201.497 332.155 201.423 332.976L201.143 336H199.603L200.247 329.182H201.591C201.6 329.378 201.605 329.574 201.605 329.77C201.614 329.957 201.623 330.143 201.633 330.33C202.127 329.443 202.813 329 203.691 329C204.204 329 204.615 329.131 204.923 329.392C205.24 329.653 205.464 330.008 205.595 330.456Z"/>
<path d="M212.083 329.168H213.609L212.965 336H211.439L212.083 329.168ZM212.083 326.998C212.12 326.699 212.228 326.461 212.405 326.284C212.592 326.097 212.834 326.004 213.133 326.004C213.432 326.004 213.651 326.097 213.791 326.284C213.94 326.461 214.001 326.704 213.973 327.012C213.954 327.311 213.852 327.549 213.665 327.726C213.478 327.903 213.236 327.992 212.937 327.992C212.648 327.992 212.428 327.903 212.279 327.726C212.13 327.549 212.064 327.306 212.083 326.998Z"/>
<path d="M214.881 334.614L218.381 330.568H215.245L215.385 329.182H220.215L220.075 330.568L216.673 334.614H219.711L219.571 336H214.741L214.881 334.614Z"/>
<path d="M222.389 333.018C222.379 333.065 222.375 333.111 222.375 333.158C222.375 333.205 222.375 333.251 222.375 333.298C222.375 333.755 222.473 334.124 222.669 334.404C222.874 334.684 223.145 334.824 223.481 334.824C224.162 334.824 224.577 334.539 224.727 333.97H226.281C226.131 334.623 225.795 335.155 225.273 335.566C224.75 335.986 224.148 336.196 223.467 336.196C222.729 336.196 222.118 335.916 221.633 335.356C221.138 334.787 220.891 334.031 220.891 333.088C220.891 332.024 221.175 331.091 221.745 330.288C222.351 329.429 223.149 329 224.139 329C224.913 329 225.506 329.28 225.917 329.84C226.299 330.344 226.491 330.997 226.491 331.8C226.491 332.183 226.439 332.589 226.337 333.018H222.389ZM223.999 330.358C223.607 330.358 223.28 330.507 223.019 330.806C222.757 331.105 222.585 331.483 222.501 331.94H225.063C225.072 331.893 225.077 331.847 225.077 331.8C225.077 331.753 225.077 331.674 225.077 331.562C225.077 331.45 225.058 331.319 225.021 331.17C224.993 331.011 224.937 330.871 224.853 330.75C224.675 330.489 224.391 330.358 223.999 330.358Z"/>
<path d="M231.664 334.922C231.207 335.771 230.591 336.196 229.816 336.196C229.098 336.196 228.505 335.911 228.038 335.342C227.562 334.763 227.324 334.003 227.324 333.06C227.324 332.052 227.586 331.147 228.108 330.344C228.706 329.448 229.466 329 230.39 329C231.156 329 231.702 329.336 232.028 330.008L232.378 326.396H233.932L233.022 336H231.762L231.664 334.922ZM231.832 331.982C231.832 331.525 231.711 331.17 231.468 330.918C231.235 330.666 230.955 330.54 230.628 330.54C230.311 330.54 230.04 330.619 229.816 330.778C229.602 330.927 229.429 331.119 229.298 331.352C229.028 331.8 228.892 332.304 228.892 332.864C228.892 333.415 229.009 333.853 229.242 334.18C229.485 334.497 229.802 334.656 230.194 334.656C230.54 334.656 230.866 334.511 231.174 334.222C231.492 333.923 231.678 333.541 231.734 333.074L231.818 332.206C231.828 332.159 231.832 332.117 231.832 332.08V331.982Z"/>
<path d="M169.95 345.686C169.876 346.339 169.656 346.895 169.292 347.352C168.938 347.809 168.443 348.131 167.808 348.318L169.656 352H167.654L166.198 348.458H165.092L164.77 352H163.23L164.084 342.886H167.136C168.126 342.886 168.858 343.143 169.334 343.656C169.82 344.16 170.025 344.837 169.95 345.686ZM166.562 347.324C167.104 347.324 167.524 347.189 167.822 346.918C168.13 346.647 168.308 346.293 168.354 345.854C168.382 345.406 168.284 345.047 168.06 344.776C167.846 344.496 167.491 344.356 166.996 344.356H165.484L165.19 347.324H166.562Z"/>
<path d="M172.331 349.018C172.321 349.065 172.317 349.111 172.317 349.158C172.317 349.205 172.317 349.251 172.317 349.298C172.317 349.755 172.415 350.124 172.611 350.404C172.816 350.684 173.087 350.824 173.423 350.824C174.104 350.824 174.519 350.539 174.669 349.97H176.223C176.073 350.623 175.737 351.155 175.215 351.566C174.692 351.986 174.09 352.196 173.409 352.196C172.671 352.196 172.06 351.916 171.575 351.356C171.08 350.787 170.833 350.031 170.833 349.088C170.833 348.024 171.117 347.091 171.687 346.288C172.293 345.429 173.091 345 174.081 345C174.855 345 175.448 345.28 175.859 345.84C176.241 346.344 176.433 346.997 176.433 347.8C176.433 348.183 176.381 348.589 176.279 349.018H172.331ZM173.941 346.358C173.549 346.358 173.222 346.507 172.961 346.806C172.699 347.105 172.527 347.483 172.443 347.94H175.005C175.014 347.893 175.019 347.847 175.019 347.8C175.019 347.753 175.019 347.674 175.019 347.562C175.019 347.45 175 347.319 174.963 347.17C174.935 347.011 174.879 346.871 174.795 346.75C174.617 346.489 174.333 346.358 173.941 346.358Z"/>
<path d="M178.918 345.182L179.786 350.306L181.648 345.182H183.412L180.5 352H178.778L177.154 345.182H178.918Z"/>
<path d="M184.571 345.168H186.097L185.453 352H183.927L184.571 345.168ZM184.571 342.998C184.608 342.699 184.716 342.461 184.893 342.284C185.08 342.097 185.322 342.004 185.621 342.004C185.92 342.004 186.139 342.097 186.279 342.284C186.428 342.461 186.489 342.704 186.461 343.012C186.442 343.311 186.34 343.549 186.153 343.726C185.966 343.903 185.724 343.992 185.425 343.992C185.136 343.992 184.916 343.903 184.767 343.726C184.618 343.549 184.552 343.306 184.571 342.998Z"/>
<path d="M188.895 349.018C188.886 349.065 188.881 349.111 188.881 349.158C188.881 349.205 188.881 349.251 188.881 349.298C188.881 349.755 188.979 350.124 189.175 350.404C189.38 350.684 189.651 350.824 189.987 350.824C190.668 350.824 191.084 350.539 191.233 349.97H192.787C192.638 350.623 192.302 351.155 191.779 351.566C191.256 351.986 190.654 352.196 189.973 352.196C189.236 352.196 188.624 351.916 188.139 351.356C187.644 350.787 187.397 350.031 187.397 349.088C187.397 348.024 187.682 347.091 188.251 346.288C188.858 345.429 189.656 345 190.645 345C191.42 345 192.012 345.28 192.423 345.84C192.806 346.344 192.997 346.997 192.997 347.8C192.997 348.183 192.946 348.589 192.843 349.018H188.895ZM190.505 346.358C190.113 346.358 189.786 346.507 189.525 346.806C189.264 347.105 189.091 347.483 189.007 347.94H191.569C191.578 347.893 191.583 347.847 191.583 347.8C191.583 347.753 191.583 347.674 191.583 347.562C191.583 347.45 191.564 347.319 191.527 347.17C191.499 347.011 191.443 346.871 191.359 346.75C191.182 346.489 190.897 346.358 190.505 346.358Z"/>
<path d="M195.314 345.182L196.07 349.998L197.638 345.574H199.038L199.766 350.04L201.446 345.182H202.986L200.326 352H198.814L198.072 347.982L196.616 352H195.104L193.718 345.182H195.314Z"/>
<path d="M209.064 342.886H210.996L212.83 352H211.192L210.814 350.068H207.79L207.034 352H205.424L209.064 342.886ZM208.308 348.78H210.562L209.806 344.902L208.308 348.78Z"/>
<path d="M216.923 345C217.716 345 218.309 345.196 218.701 345.588C219.093 345.971 219.265 346.456 219.219 347.044H217.777C217.777 346.829 217.697 346.657 217.539 346.526C217.38 346.395 217.142 346.33 216.825 346.33C216.507 346.33 216.255 346.4 216.069 346.54C215.882 346.671 215.779 346.829 215.761 347.016C215.723 347.333 215.933 347.567 216.391 347.716L217.819 348.332C218.267 348.509 218.607 348.738 218.841 349.018C219.074 349.289 219.172 349.601 219.135 349.956C219.107 350.311 219.018 350.619 218.869 350.88C218.719 351.132 218.519 351.356 218.267 351.552C217.725 351.981 217.049 352.196 216.237 352.196C215.425 352.196 214.785 352 214.319 351.608C213.852 351.207 213.651 350.642 213.717 349.914H215.145C215.117 350.241 215.201 350.479 215.397 350.628C215.602 350.777 215.882 350.852 216.237 350.852C216.591 350.852 216.871 350.777 217.077 350.628C217.282 350.479 217.394 350.306 217.413 350.11C217.441 349.905 217.399 349.751 217.287 349.648C217.175 349.545 216.993 349.447 216.741 349.354L215.439 348.808C214.487 348.416 214.057 347.791 214.151 346.932C214.207 346.344 214.482 345.877 214.977 345.532C215.49 345.177 216.139 345 216.923 345Z"/>
<path d="M223.274 345C224.067 345 224.66 345.196 225.052 345.588C225.444 345.971 225.616 346.456 225.57 347.044H224.128C224.128 346.829 224.048 346.657 223.89 346.526C223.731 346.395 223.493 346.33 223.176 346.33C222.858 346.33 222.606 346.4 222.42 346.54C222.233 346.671 222.13 346.829 222.112 347.016C222.074 347.333 222.284 347.567 222.742 347.716L224.17 348.332C224.618 348.509 224.958 348.738 225.192 349.018C225.425 349.289 225.523 349.601 225.486 349.956C225.458 350.311 225.369 350.619 225.22 350.88C225.07 351.132 224.87 351.356 224.618 351.552C224.076 351.981 223.4 352.196 222.588 352.196C221.776 352.196 221.136 352 220.67 351.608C220.203 351.207 220.002 350.642 220.068 349.914H221.496C221.468 350.241 221.552 350.479 221.748 350.628C221.953 350.777 222.233 350.852 222.588 350.852C222.942 350.852 223.222 350.777 223.428 350.628C223.633 350.479 223.745 350.306 223.764 350.11C223.792 349.905 223.75 349.751 223.638 349.648C223.526 349.545 223.344 349.447 223.092 349.354L221.79 348.808C220.838 348.416 220.408 347.791 220.502 346.932C220.558 346.344 220.833 345.877 221.328 345.532C221.841 345.177 222.49 345 223.274 345Z"/>
<path d="M227.902 349.018C227.893 349.065 227.888 349.111 227.888 349.158C227.888 349.205 227.888 349.251 227.888 349.298C227.888 349.755 227.986 350.124 228.182 350.404C228.388 350.684 228.658 350.824 228.994 350.824C229.676 350.824 230.091 350.539 230.24 349.97H231.794C231.645 350.623 231.309 351.155 230.786 351.566C230.264 351.986 229.662 352.196 228.98 352.196C228.243 352.196 227.632 351.916 227.146 351.356C226.652 350.787 226.404 350.031 226.404 349.088C226.404 348.024 226.689 347.091 227.258 346.288C227.865 345.429 228.663 345 229.652 345C230.427 345 231.02 345.28 231.43 345.84C231.813 346.344 232.004 346.997 232.004 347.8C232.004 348.183 231.953 348.589 231.85 349.018H227.902ZM229.512 346.358C229.12 346.358 228.794 346.507 228.532 346.806C228.271 347.105 228.098 347.483 228.014 347.94H230.576C230.586 347.893 230.59 347.847 230.59 347.8C230.59 347.753 230.59 347.674 230.59 347.562C230.59 347.45 230.572 347.319 230.534 347.17C230.506 347.011 230.45 346.871 230.366 346.75C230.189 346.489 229.904 346.358 229.512 346.358Z"/>
<path d="M236.576 351.832C236.007 352.075 235.559 352.196 235.232 352.196C234.905 352.196 234.625 352.154 234.392 352.07C234.159 351.986 233.958 351.86 233.79 351.692C233.426 351.319 233.281 350.787 233.356 350.096L233.706 346.316H232.866L232.978 345.182H233.818L233.986 343.404H235.526L235.358 345.182H236.996L236.884 346.316H235.232L234.896 350.04C234.84 350.581 235.05 350.852 235.526 350.852C235.769 350.852 236.081 350.777 236.464 350.628L236.576 351.832Z"/>
</mask>
<path d="M170.322 326.704C170.826 326.704 171.256 326.774 171.61 326.914C171.974 327.045 172.278 327.236 172.52 327.488C173.024 327.983 173.304 328.65 173.36 329.49L171.694 329.826C171.62 329.35 171.456 328.967 171.204 328.678C170.962 328.389 170.63 328.244 170.21 328.244C169.65 328.244 169.17 328.505 168.768 329.028C168.358 329.588 168.096 330.386 167.984 331.422C167.9 332.439 167.994 333.233 168.264 333.802C168.535 334.362 168.955 334.642 169.524 334.642C170.103 334.642 170.546 334.488 170.854 334.18C171.172 333.863 171.354 333.466 171.4 332.99H173.052C172.95 334.017 172.581 334.81 171.946 335.37C171.312 335.921 170.481 336.196 169.454 336.196C168.362 336.196 167.532 335.776 166.962 334.936C166.402 334.096 166.197 332.925 166.346 331.422C166.496 329.919 166.939 328.748 167.676 327.908C168.386 327.105 169.268 326.704 170.322 326.704Z" fill="#98AFF3"/>
<path d="M178.25 334.796C177.783 335.683 177.125 336.126 176.276 336.126C175.184 336.126 174.512 335.659 174.26 334.726C174.166 334.399 174.143 333.998 174.19 333.522L174.61 329.168H176.136L175.73 333.34C175.692 333.779 175.758 334.105 175.926 334.32C176.103 334.535 176.378 334.642 176.752 334.642C177.134 334.642 177.498 334.46 177.844 334.096C178.189 333.723 178.399 333.163 178.474 332.416L178.782 329.168H180.322L179.692 336H178.138L178.25 334.796Z" fill="#98AFF3"/>
<path d="M184.597 329C185.391 329 185.983 329.196 186.375 329.588C186.767 329.971 186.94 330.456 186.893 331.044H185.451C185.451 330.829 185.372 330.657 185.213 330.526C185.055 330.395 184.817 330.33 184.499 330.33C184.182 330.33 183.93 330.4 183.743 330.54C183.557 330.671 183.454 330.829 183.435 331.016C183.398 331.333 183.608 331.567 184.065 331.716L185.493 332.332C185.941 332.509 186.282 332.738 186.515 333.018C186.749 333.289 186.847 333.601 186.809 333.956C186.781 334.311 186.693 334.619 186.543 334.88C186.394 335.132 186.193 335.356 185.941 335.552C185.4 335.981 184.723 336.196 183.911 336.196C183.099 336.196 182.46 336 181.993 335.608C181.527 335.207 181.326 334.642 181.391 333.914H182.819C182.791 334.241 182.875 334.479 183.071 334.628C183.277 334.777 183.557 334.852 183.911 334.852C184.266 334.852 184.546 334.777 184.751 334.628C184.957 334.479 185.069 334.306 185.087 334.11C185.115 333.905 185.073 333.751 184.961 333.648C184.849 333.545 184.667 333.447 184.415 333.354L183.113 332.808C182.161 332.416 181.732 331.791 181.825 330.932C181.881 330.344 182.157 329.877 182.651 329.532C183.165 329.177 183.813 329 184.597 329Z" fill="#98AFF3"/>
<path d="M191.494 335.832C190.925 336.075 190.477 336.196 190.15 336.196C189.824 336.196 189.544 336.154 189.31 336.07C189.077 335.986 188.876 335.86 188.708 335.692C188.344 335.319 188.2 334.787 188.274 334.096L188.624 330.316H187.784L187.896 329.182H188.736L188.904 327.404H190.444L190.276 329.182H191.914L191.802 330.316H190.15L189.814 334.04C189.758 334.581 189.968 334.852 190.444 334.852C190.687 334.852 191 334.777 191.382 334.628L191.494 335.832Z" fill="#98AFF3"/>
<path d="M195.966 329C196.386 329 196.769 329.075 197.114 329.224C197.469 329.364 197.768 329.583 198.01 329.882C198.533 330.517 198.738 331.427 198.626 332.612C198.524 333.751 198.15 334.647 197.506 335.3C196.909 335.897 196.176 336.196 195.308 336.196C194.431 336.196 193.75 335.897 193.264 335.3C192.742 334.665 192.536 333.769 192.648 332.612C192.751 331.436 193.124 330.526 193.768 329.882C194.356 329.294 195.089 329 195.966 329ZM197.072 332.598C197.147 331.889 197.077 331.361 196.862 331.016C196.648 330.661 196.321 330.484 195.882 330.484C195.453 330.484 195.08 330.661 194.762 331.016C194.454 331.361 194.263 331.889 194.188 332.598C194.114 333.307 194.188 333.839 194.412 334.194C194.636 334.539 194.963 334.712 195.392 334.712C195.822 334.712 196.19 334.539 196.498 334.194C196.816 333.839 197.007 333.307 197.072 332.598Z" fill="#98AFF3"/>
<path d="M205.595 330.456C206.08 329.485 206.822 329 207.821 329C208.549 329 209.09 329.28 209.445 329.84C209.762 330.344 209.883 331.072 209.809 332.024L209.445 336H207.891L208.255 332.024C208.301 331.529 208.231 331.161 208.045 330.918C207.858 330.666 207.569 330.54 207.177 330.54C206.785 330.54 206.444 330.736 206.155 331.128C205.865 331.511 205.683 332.113 205.609 332.934L205.329 336H203.789L204.153 332.024C204.209 331.529 204.139 331.161 203.943 330.918C203.756 330.666 203.467 330.54 203.075 330.54C202.683 330.54 202.328 330.741 202.011 331.142C201.693 331.543 201.497 332.155 201.423 332.976L201.143 336H199.603L200.247 329.182H201.591C201.6 329.378 201.605 329.574 201.605 329.77C201.614 329.957 201.623 330.143 201.633 330.33C202.127 329.443 202.813 329 203.691 329C204.204 329 204.615 329.131 204.923 329.392C205.24 329.653 205.464 330.008 205.595 330.456Z" fill="#98AFF3"/>
<path d="M212.083 329.168H213.609L212.965 336H211.439L212.083 329.168ZM212.083 326.998C212.12 326.699 212.228 326.461 212.405 326.284C212.592 326.097 212.834 326.004 213.133 326.004C213.432 326.004 213.651 326.097 213.791 326.284C213.94 326.461 214.001 326.704 213.973 327.012C213.954 327.311 213.852 327.549 213.665 327.726C213.478 327.903 213.236 327.992 212.937 327.992C212.648 327.992 212.428 327.903 212.279 327.726C212.13 327.549 212.064 327.306 212.083 326.998Z" fill="#98AFF3"/>
<path d="M214.881 334.614L218.381 330.568H215.245L215.385 329.182H220.215L220.075 330.568L216.673 334.614H219.711L219.571 336H214.741L214.881 334.614Z" fill="#98AFF3"/>
<path d="M222.389 333.018C222.379 333.065 222.375 333.111 222.375 333.158C222.375 333.205 222.375 333.251 222.375 333.298C222.375 333.755 222.473 334.124 222.669 334.404C222.874 334.684 223.145 334.824 223.481 334.824C224.162 334.824 224.577 334.539 224.727 333.97H226.281C226.131 334.623 225.795 335.155 225.273 335.566C224.75 335.986 224.148 336.196 223.467 336.196C222.729 336.196 222.118 335.916 221.633 335.356C221.138 334.787 220.891 334.031 220.891 333.088C220.891 332.024 221.175 331.091 221.745 330.288C222.351 329.429 223.149 329 224.139 329C224.913 329 225.506 329.28 225.917 329.84C226.299 330.344 226.491 330.997 226.491 331.8C226.491 332.183 226.439 332.589 226.337 333.018H222.389ZM223.999 330.358C223.607 330.358 223.28 330.507 223.019 330.806C222.757 331.105 222.585 331.483 222.501 331.94H225.063C225.072 331.893 225.077 331.847 225.077 331.8C225.077 331.753 225.077 331.674 225.077 331.562C225.077 331.45 225.058 331.319 225.021 331.17C224.993 331.011 224.937 330.871 224.853 330.75C224.675 330.489 224.391 330.358 223.999 330.358Z" fill="#98AFF3"/>
<path d="M231.664 334.922C231.207 335.771 230.591 336.196 229.816 336.196C229.098 336.196 228.505 335.911 228.038 335.342C227.562 334.763 227.324 334.003 227.324 333.06C227.324 332.052 227.586 331.147 228.108 330.344C228.706 329.448 229.466 329 230.39 329C231.156 329 231.702 329.336 232.028 330.008L232.378 326.396H233.932L233.022 336H231.762L231.664 334.922ZM231.832 331.982C231.832 331.525 231.711 331.17 231.468 330.918C231.235 330.666 230.955 330.54 230.628 330.54C230.311 330.54 230.04 330.619 229.816 330.778C229.602 330.927 229.429 331.119 229.298 331.352C229.028 331.8 228.892 332.304 228.892 332.864C228.892 333.415 229.009 333.853 229.242 334.18C229.485 334.497 229.802 334.656 230.194 334.656C230.54 334.656 230.866 334.511 231.174 334.222C231.492 333.923 231.678 333.541 231.734 333.074L231.818 332.206C231.828 332.159 231.832 332.117 231.832 332.08V331.982Z" fill="#98AFF3"/>
<path d="M169.95 345.686C169.876 346.339 169.656 346.895 169.292 347.352C168.938 347.809 168.443 348.131 167.808 348.318L169.656 352H167.654L166.198 348.458H165.092L164.77 352H163.23L164.084 342.886H167.136C168.126 342.886 168.858 343.143 169.334 343.656C169.82 344.16 170.025 344.837 169.95 345.686ZM166.562 347.324C167.104 347.324 167.524 347.189 167.822 346.918C168.13 346.647 168.308 346.293 168.354 345.854C168.382 345.406 168.284 345.047 168.06 344.776C167.846 344.496 167.491 344.356 166.996 344.356H165.484L165.19 347.324H166.562Z" fill="#98AFF3"/>
<path d="M172.331 349.018C172.321 349.065 172.317 349.111 172.317 349.158C172.317 349.205 172.317 349.251 172.317 349.298C172.317 349.755 172.415 350.124 172.611 350.404C172.816 350.684 173.087 350.824 173.423 350.824C174.104 350.824 174.519 350.539 174.669 349.97H176.223C176.073 350.623 175.737 351.155 175.215 351.566C174.692 351.986 174.09 352.196 173.409 352.196C172.671 352.196 172.06 351.916 171.575 351.356C171.08 350.787 170.833 350.031 170.833 349.088C170.833 348.024 171.117 347.091 171.687 346.288C172.293 345.429 173.091 345 174.081 345C174.855 345 175.448 345.28 175.859 345.84C176.241 346.344 176.433 346.997 176.433 347.8C176.433 348.183 176.381 348.589 176.279 349.018H172.331ZM173.941 346.358C173.549 346.358 173.222 346.507 172.961 346.806C172.699 347.105 172.527 347.483 172.443 347.94H175.005C175.014 347.893 175.019 347.847 175.019 347.8C175.019 347.753 175.019 347.674 175.019 347.562C175.019 347.45 175 347.319 174.963 347.17C174.935 347.011 174.879 346.871 174.795 346.75C174.617 346.489 174.333 346.358 173.941 346.358Z" fill="#98AFF3"/>
<path d="M178.918 345.182L179.786 350.306L181.648 345.182H183.412L180.5 352H178.778L177.154 345.182H178.918Z" fill="#98AFF3"/>
<path d="M184.571 345.168H186.097L185.453 352H183.927L184.571 345.168ZM184.571 342.998C184.608 342.699 184.716 342.461 184.893 342.284C185.08 342.097 185.322 342.004 185.621 342.004C185.92 342.004 186.139 342.097 186.279 342.284C186.428 342.461 186.489 342.704 186.461 343.012C186.442 343.311 186.34 343.549 186.153 343.726C185.966 343.903 185.724 343.992 185.425 343.992C185.136 343.992 184.916 343.903 184.767 343.726C184.618 343.549 184.552 343.306 184.571 342.998Z" fill="#98AFF3"/>
<path d="M188.895 349.018C188.886 349.065 188.881 349.111 188.881 349.158C188.881 349.205 188.881 349.251 188.881 349.298C188.881 349.755 188.979 350.124 189.175 350.404C189.38 350.684 189.651 350.824 189.987 350.824C190.668 350.824 191.084 350.539 191.233 349.97H192.787C192.638 350.623 192.302 351.155 191.779 351.566C191.256 351.986 190.654 352.196 189.973 352.196C189.236 352.196 188.624 351.916 188.139 351.356C187.644 350.787 187.397 350.031 187.397 349.088C187.397 348.024 187.682 347.091 188.251 346.288C188.858 345.429 189.656 345 190.645 345C191.42 345 192.012 345.28 192.423 345.84C192.806 346.344 192.997 346.997 192.997 347.8C192.997 348.183 192.946 348.589 192.843 349.018H188.895ZM190.505 346.358C190.113 346.358 189.786 346.507 189.525 346.806C189.264 347.105 189.091 347.483 189.007 347.94H191.569C191.578 347.893 191.583 347.847 191.583 347.8C191.583 347.753 191.583 347.674 191.583 347.562C191.583 347.45 191.564 347.319 191.527 347.17C191.499 347.011 191.443 346.871 191.359 346.75C191.182 346.489 190.897 346.358 190.505 346.358Z" fill="#98AFF3"/>
<path d="M195.314 345.182L196.07 349.998L197.638 345.574H199.038L199.766 350.04L201.446 345.182H202.986L200.326 352H198.814L198.072 347.982L196.616 352H195.104L193.718 345.182H195.314Z" fill="#98AFF3"/>
<path d="M209.064 342.886H210.996L212.83 352H211.192L210.814 350.068H207.79L207.034 352H205.424L209.064 342.886ZM208.308 348.78H210.562L209.806 344.902L208.308 348.78Z" fill="#98AFF3"/>
<path d="M216.923 345C217.716 345 218.309 345.196 218.701 345.588C219.093 345.971 219.265 346.456 219.219 347.044H217.777C217.777 346.829 217.697 346.657 217.539 346.526C217.38 346.395 217.142 346.33 216.825 346.33C216.507 346.33 216.255 346.4 216.069 346.54C215.882 346.671 215.779 346.829 215.761 347.016C215.723 347.333 215.933 347.567 216.391 347.716L217.819 348.332C218.267 348.509 218.607 348.738 218.841 349.018C219.074 349.289 219.172 349.601 219.135 349.956C219.107 350.311 219.018 350.619 218.869 350.88C218.719 351.132 218.519 351.356 218.267 351.552C217.725 351.981 217.049 352.196 216.237 352.196C215.425 352.196 214.785 352 214.319 351.608C213.852 351.207 213.651 350.642 213.717 349.914H215.145C215.117 350.241 215.201 350.479 215.397 350.628C215.602 350.777 215.882 350.852 216.237 350.852C216.591 350.852 216.871 350.777 217.077 350.628C217.282 350.479 217.394 350.306 217.413 350.11C217.441 349.905 217.399 349.751 217.287 349.648C217.175 349.545 216.993 349.447 216.741 349.354L215.439 348.808C214.487 348.416 214.057 347.791 214.151 346.932C214.207 346.344 214.482 345.877 214.977 345.532C215.49 345.177 216.139 345 216.923 345Z" fill="#98AFF3"/>
<path d="M223.274 345C224.067 345 224.66 345.196 225.052 345.588C225.444 345.971 225.616 346.456 225.57 347.044H224.128C224.128 346.829 224.048 346.657 223.89 346.526C223.731 346.395 223.493 346.33 223.176 346.33C222.858 346.33 222.606 346.4 222.42 346.54C222.233 346.671 222.13 346.829 222.112 347.016C222.074 347.333 222.284 347.567 222.742 347.716L224.17 348.332C224.618 348.509 224.958 348.738 225.192 349.018C225.425 349.289 225.523 349.601 225.486 349.956C225.458 350.311 225.369 350.619 225.22 350.88C225.07 351.132 224.87 351.356 224.618 351.552C224.076 351.981 223.4 352.196 222.588 352.196C221.776 352.196 221.136 352 220.67 351.608C220.203 351.207 220.002 350.642 220.068 349.914H221.496C221.468 350.241 221.552 350.479 221.748 350.628C221.953 350.777 222.233 350.852 222.588 350.852C222.942 350.852 223.222 350.777 223.428 350.628C223.633 350.479 223.745 350.306 223.764 350.11C223.792 349.905 223.75 349.751 223.638 349.648C223.526 349.545 223.344 349.447 223.092 349.354L221.79 348.808C220.838 348.416 220.408 347.791 220.502 346.932C220.558 346.344 220.833 345.877 221.328 345.532C221.841 345.177 222.49 345 223.274 345Z" fill="#98AFF3"/>
<path d="M227.902 349.018C227.893 349.065 227.888 349.111 227.888 349.158C227.888 349.205 227.888 349.251 227.888 349.298C227.888 349.755 227.986 350.124 228.182 350.404C228.388 350.684 228.658 350.824 228.994 350.824C229.676 350.824 230.091 350.539 230.24 349.97H231.794C231.645 350.623 231.309 351.155 230.786 351.566C230.264 351.986 229.662 352.196 228.98 352.196C228.243 352.196 227.632 351.916 227.146 351.356C226.652 350.787 226.404 350.031 226.404 349.088C226.404 348.024 226.689 347.091 227.258 346.288C227.865 345.429 228.663 345 229.652 345C230.427 345 231.02 345.28 231.43 345.84C231.813 346.344 232.004 346.997 232.004 347.8C232.004 348.183 231.953 348.589 231.85 349.018H227.902ZM229.512 346.358C229.12 346.358 228.794 346.507 228.532 346.806C228.271 347.105 228.098 347.483 228.014 347.94H230.576C230.586 347.893 230.59 347.847 230.59 347.8C230.59 347.753 230.59 347.674 230.59 347.562C230.59 347.45 230.572 347.319 230.534 347.17C230.506 347.011 230.45 346.871 230.366 346.75C230.189 346.489 229.904 346.358 229.512 346.358Z" fill="#98AFF3"/>
<path d="M236.576 351.832C236.007 352.075 235.559 352.196 235.232 352.196C234.905 352.196 234.625 352.154 234.392 352.07C234.159 351.986 233.958 351.86 233.79 351.692C233.426 351.319 233.281 350.787 233.356 350.096L233.706 346.316H232.866L232.978 345.182H233.818L233.986 343.404H235.526L235.358 345.182H236.996L236.884 346.316H235.232L234.896 350.04C234.84 350.581 235.05 350.852 235.526 350.852C235.769 350.852 236.081 350.777 236.464 350.628L236.576 351.832Z" fill="#98AFF3"/>
<path d="M170.322 326.704C170.826 326.704 171.256 326.774 171.61 326.914C171.974 327.045 172.278 327.236 172.52 327.488C173.024 327.983 173.304 328.65 173.36 329.49L171.694 329.826C171.62 329.35 171.456 328.967 171.204 328.678C170.962 328.389 170.63 328.244 170.21 328.244C169.65 328.244 169.17 328.505 168.768 329.028C168.358 329.588 168.096 330.386 167.984 331.422C167.9 332.439 167.994 333.233 168.264 333.802C168.535 334.362 168.955 334.642 169.524 334.642C170.103 334.642 170.546 334.488 170.854 334.18C171.172 333.863 171.354 333.466 171.4 332.99H173.052C172.95 334.017 172.581 334.81 171.946 335.37C171.312 335.921 170.481 336.196 169.454 336.196C168.362 336.196 167.532 335.776 166.962 334.936C166.402 334.096 166.197 332.925 166.346 331.422C166.496 329.919 166.939 328.748 167.676 327.908C168.386 327.105 169.268 326.704 170.322 326.704Z" stroke="#D2DCFA" stroke-width="7.76" mask="url(#path-16-outside-1)"/>
<path d="M178.25 334.796C177.783 335.683 177.125 336.126 176.276 336.126C175.184 336.126 174.512 335.659 174.26 334.726C174.166 334.399 174.143 333.998 174.19 333.522L174.61 329.168H176.136L175.73 333.34C175.692 333.779 175.758 334.105 175.926 334.32C176.103 334.535 176.378 334.642 176.752 334.642C177.134 334.642 177.498 334.46 177.844 334.096C178.189 333.723 178.399 333.163 178.474 332.416L178.782 329.168H180.322L179.692 336H178.138L178.25 334.796Z" stroke="#D2DCFA" stroke-width="7.76" mask="url(#path-16-outside-1)"/>
<path d="M184.597 329C185.391 329 185.983 329.196 186.375 329.588C186.767 329.971 186.94 330.456 186.893 331.044H185.451C185.451 330.829 185.372 330.657 185.213 330.526C185.055 330.395 184.817 330.33 184.499 330.33C184.182 330.33 183.93 330.4 183.743 330.54C183.557 330.671 183.454 330.829 183.435 331.016C183.398 331.333 183.608 331.567 184.065 331.716L185.493 332.332C185.941 332.509 186.282 332.738 186.515 333.018C186.749 333.289 186.847 333.601 186.809 333.956C186.781 334.311 186.693 334.619 186.543 334.88C186.394 335.132 186.193 335.356 185.941 335.552C185.4 335.981 184.723 336.196 183.911 336.196C183.099 336.196 182.46 336 181.993 335.608C181.527 335.207 181.326 334.642 181.391 333.914H182.819C182.791 334.241 182.875 334.479 183.071 334.628C183.277 334.777 183.557 334.852 183.911 334.852C184.266 334.852 184.546 334.777 184.751 334.628C184.957 334.479 185.069 334.306 185.087 334.11C185.115 333.905 185.073 333.751 184.961 333.648C184.849 333.545 184.667 333.447 184.415 333.354L183.113 332.808C182.161 332.416 181.732 331.791 181.825 330.932C181.881 330.344 182.157 329.877 182.651 329.532C183.165 329.177 183.813 329 184.597 329Z" stroke="#D2DCFA" stroke-width="7.76" mask="url(#path-16-outside-1)"/>
<path d="M191.494 335.832C190.925 336.075 190.477 336.196 190.15 336.196C189.824 336.196 189.544 336.154 189.31 336.07C189.077 335.986 188.876 335.86 188.708 335.692C188.344 335.319 188.2 334.787 188.274 334.096L188.624 330.316H187.784L187.896 329.182H188.736L188.904 327.404H190.444L190.276 329.182H191.914L191.802 330.316H190.15L189.814 334.04C189.758 334.581 189.968 334.852 190.444 334.852C190.687 334.852 191 334.777 191.382 334.628L191.494 335.832Z" stroke="#D2DCFA" stroke-width="7.76" mask="url(#path-16-outside-1)"/>
<path d="M195.966 329C196.386 329 196.769 329.075 197.114 329.224C197.469 329.364 197.768 329.583 198.01 329.882C198.533 330.517 198.738 331.427 198.626 332.612C198.524 333.751 198.15 334.647 197.506 335.3C196.909 335.897 196.176 336.196 195.308 336.196C194.431 336.196 193.75 335.897 193.264 335.3C192.742 334.665 192.536 333.769 192.648 332.612C192.751 331.436 193.124 330.526 193.768 329.882C194.356 329.294 195.089 329 195.966 329ZM197.072 332.598C197.147 331.889 197.077 331.361 196.862 331.016C196.648 330.661 196.321 330.484 195.882 330.484C195.453 330.484 195.08 330.661 194.762 331.016C194.454 331.361 194.263 331.889 194.188 332.598C194.114 333.307 194.188 333.839 194.412 334.194C194.636 334.539 194.963 334.712 195.392 334.712C195.822 334.712 196.19 334.539 196.498 334.194C196.816 333.839 197.007 333.307 197.072 332.598Z" stroke="#D2DCFA" stroke-width="7.76" mask="url(#path-16-outside-1)"/>
<path d="M205.595 330.456C206.08 329.485 206.822 329 207.821 329C208.549 329 209.09 329.28 209.445 329.84C209.762 330.344 209.883 331.072 209.809 332.024L209.445 336H207.891L208.255 332.024C208.301 331.529 208.231 331.161 208.045 330.918C207.858 330.666 207.569 330.54 207.177 330.54C206.785 330.54 206.444 330.736 206.155 331.128C205.865 331.511 205.683 332.113 205.609 332.934L205.329 336H203.789L204.153 332.024C204.209 331.529 204.139 331.161 203.943 330.918C203.756 330.666 203.467 330.54 203.075 330.54C202.683 330.54 202.328 330.741 202.011 331.142C201.693 331.543 201.497 332.155 201.423 332.976L201.143 336H199.603L200.247 329.182H201.591C201.6 329.378 201.605 329.574 201.605 329.77C201.614 329.957 201.623 330.143 201.633 330.33C202.127 329.443 202.813 329 203.691 329C204.204 329 204.615 329.131 204.923 329.392C205.24 329.653 205.464 330.008 205.595 330.456Z" stroke="#D2DCFA" stroke-width="7.76" mask="url(#path-16-outside-1)"/>
<path d="M212.083 329.168H213.609L212.965 336H211.439L212.083 329.168ZM212.083 326.998C212.12 326.699 212.228 326.461 212.405 326.284C212.592 326.097 212.834 326.004 213.133 326.004C213.432 326.004 213.651 326.097 213.791 326.284C213.94 326.461 214.001 326.704 213.973 327.012C213.954 327.311 213.852 327.549 213.665 327.726C213.478 327.903 213.236 327.992 212.937 327.992C212.648 327.992 212.428 327.903 212.279 327.726C212.13 327.549 212.064 327.306 212.083 326.998Z" stroke="#D2DCFA" stroke-width="7.76" mask="url(#path-16-outside-1)"/>
<path d="M214.881 334.614L218.381 330.568H215.245L215.385 329.182H220.215L220.075 330.568L216.673 334.614H219.711L219.571 336H214.741L214.881 334.614Z" stroke="#D2DCFA" stroke-width="7.76" mask="url(#path-16-outside-1)"/>
<path d="M222.389 333.018C222.379 333.065 222.375 333.111 222.375 333.158C222.375 333.205 222.375 333.251 222.375 333.298C222.375 333.755 222.473 334.124 222.669 334.404C222.874 334.684 223.145 334.824 223.481 334.824C224.162 334.824 224.577 334.539 224.727 333.97H226.281C226.131 334.623 225.795 335.155 225.273 335.566C224.75 335.986 224.148 336.196 223.467 336.196C222.729 336.196 222.118 335.916 221.633 335.356C221.138 334.787 220.891 334.031 220.891 333.088C220.891 332.024 221.175 331.091 221.745 330.288C222.351 329.429 223.149 329 224.139 329C224.913 329 225.506 329.28 225.917 329.84C226.299 330.344 226.491 330.997 226.491 331.8C226.491 332.183 226.439 332.589 226.337 333.018H222.389ZM223.999 330.358C223.607 330.358 223.28 330.507 223.019 330.806C222.757 331.105 222.585 331.483 222.501 331.94H225.063C225.072 331.893 225.077 331.847 225.077 331.8C225.077 331.753 225.077 331.674 225.077 331.562C225.077 331.45 225.058 331.319 225.021 331.17C224.993 331.011 224.937 330.871 224.853 330.75C224.675 330.489 224.391 330.358 223.999 330.358Z" stroke="#D2DCFA" stroke-width="7.76" mask="url(#path-16-outside-1)"/>
<path d="M231.664 334.922C231.207 335.771 230.591 336.196 229.816 336.196C229.098 336.196 228.505 335.911 228.038 335.342C227.562 334.763 227.324 334.003 227.324 333.06C227.324 332.052 227.586 331.147 228.108 330.344C228.706 329.448 229.466 329 230.39 329C231.156 329 231.702 329.336 232.028 330.008L232.378 326.396H233.932L233.022 336H231.762L231.664 334.922ZM231.832 331.982C231.832 331.525 231.711 331.17 231.468 330.918C231.235 330.666 230.955 330.54 230.628 330.54C230.311 330.54 230.04 330.619 229.816 330.778C229.602 330.927 229.429 331.119 229.298 331.352C229.028 331.8 228.892 332.304 228.892 332.864C228.892 333.415 229.009 333.853 229.242 334.18C229.485 334.497 229.802 334.656 230.194 334.656C230.54 334.656 230.866 334.511 231.174 334.222C231.492 333.923 231.678 333.541 231.734 333.074L231.818 332.206C231.828 332.159 231.832 332.117 231.832 332.08V331.982Z" stroke="#D2DCFA" stroke-width="7.76" mask="url(#path-16-outside-1)"/>
<path d="M169.95 345.686C169.876 346.339 169.656 346.895 169.292 347.352C168.938 347.809 168.443 348.131 167.808 348.318L169.656 352H167.654L166.198 348.458H165.092L164.77 352H163.23L164.084 342.886H167.136C168.126 342.886 168.858 343.143 169.334 343.656C169.82 344.16 170.025 344.837 169.95 345.686ZM166.562 347.324C167.104 347.324 167.524 347.189 167.822 346.918C168.13 346.647 168.308 346.293 168.354 345.854C168.382 345.406 168.284 345.047 168.06 344.776C167.846 344.496 167.491 344.356 166.996 344.356H165.484L165.19 347.324H166.562Z" stroke="#D2DCFA" stroke-width="7.76" mask="url(#path-16-outside-1)"/>
<path d="M172.331 349.018C172.321 349.065 172.317 349.111 172.317 349.158C172.317 349.205 172.317 349.251 172.317 349.298C172.317 349.755 172.415 350.124 172.611 350.404C172.816 350.684 173.087 350.824 173.423 350.824C174.104 350.824 174.519 350.539 174.669 349.97H176.223C176.073 350.623 175.737 351.155 175.215 351.566C174.692 351.986 174.09 352.196 173.409 352.196C172.671 352.196 172.06 351.916 171.575 351.356C171.08 350.787 170.833 350.031 170.833 349.088C170.833 348.024 171.117 347.091 171.687 346.288C172.293 345.429 173.091 345 174.081 345C174.855 345 175.448 345.28 175.859 345.84C176.241 346.344 176.433 346.997 176.433 347.8C176.433 348.183 176.381 348.589 176.279 349.018H172.331ZM173.941 346.358C173.549 346.358 173.222 346.507 172.961 346.806C172.699 347.105 172.527 347.483 172.443 347.94H175.005C175.014 347.893 175.019 347.847 175.019 347.8C175.019 347.753 175.019 347.674 175.019 347.562C175.019 347.45 175 347.319 174.963 347.17C174.935 347.011 174.879 346.871 174.795 346.75C174.617 346.489 174.333 346.358 173.941 346.358Z" stroke="#D2DCFA" stroke-width="7.76" mask="url(#path-16-outside-1)"/>
<path d="M178.918 345.182L179.786 350.306L181.648 345.182H183.412L180.5 352H178.778L177.154 345.182H178.918Z" stroke="#D2DCFA" stroke-width="7.76" mask="url(#path-16-outside-1)"/>
<path d="M184.571 345.168H186.097L185.453 352H183.927L184.571 345.168ZM184.571 342.998C184.608 342.699 184.716 342.461 184.893 342.284C185.08 342.097 185.322 342.004 185.621 342.004C185.92 342.004 186.139 342.097 186.279 342.284C186.428 342.461 186.489 342.704 186.461 343.012C186.442 343.311 186.34 343.549 186.153 343.726C185.966 343.903 185.724 343.992 185.425 343.992C185.136 343.992 184.916 343.903 184.767 343.726C184.618 343.549 184.552 343.306 184.571 342.998Z" stroke="#D2DCFA" stroke-width="7.76" mask="url(#path-16-outside-1)"/>
<path d="M188.895 349.018C188.886 349.065 188.881 349.111 188.881 349.158C188.881 349.205 188.881 349.251 188.881 349.298C188.881 349.755 188.979 350.124 189.175 350.404C189.38 350.684 189.651 350.824 189.987 350.824C190.668 350.824 191.084 350.539 191.233 349.97H192.787C192.638 350.623 192.302 351.155 191.779 351.566C191.256 351.986 190.654 352.196 189.973 352.196C189.236 352.196 188.624 351.916 188.139 351.356C187.644 350.787 187.397 350.031 187.397 349.088C187.397 348.024 187.682 347.091 188.251 346.288C188.858 345.429 189.656 345 190.645 345C191.42 345 192.012 345.28 192.423 345.84C192.806 346.344 192.997 346.997 192.997 347.8C192.997 348.183 192.946 348.589 192.843 349.018H188.895ZM190.505 346.358C190.113 346.358 189.786 346.507 189.525 346.806C189.264 347.105 189.091 347.483 189.007 347.94H191.569C191.578 347.893 191.583 347.847 191.583 347.8C191.583 347.753 191.583 347.674 191.583 347.562C191.583 347.45 191.564 347.319 191.527 347.17C191.499 347.011 191.443 346.871 191.359 346.75C191.182 346.489 190.897 346.358 190.505 346.358Z" stroke="#D2DCFA" stroke-width="7.76" mask="url(#path-16-outside-1)"/>
<path d="M195.314 345.182L196.07 349.998L197.638 345.574H199.038L199.766 350.04L201.446 345.182H202.986L200.326 352H198.814L198.072 347.982L196.616 352H195.104L193.718 345.182H195.314Z" stroke="#D2DCFA" stroke-width="7.76" mask="url(#path-16-outside-1)"/>
<path d="M209.064 342.886H210.996L212.83 352H211.192L210.814 350.068H207.79L207.034 352H205.424L209.064 342.886ZM208.308 348.78H210.562L209.806 344.902L208.308 348.78Z" stroke="#D2DCFA" stroke-width="7.76" mask="url(#path-16-outside-1)"/>
<path d="M216.923 345C217.716 345 218.309 345.196 218.701 345.588C219.093 345.971 219.265 346.456 219.219 347.044H217.777C217.777 346.829 217.697 346.657 217.539 346.526C217.38 346.395 217.142 346.33 216.825 346.33C216.507 346.33 216.255 346.4 216.069 346.54C215.882 346.671 215.779 346.829 215.761 347.016C215.723 347.333 215.933 347.567 216.391 347.716L217.819 348.332C218.267 348.509 218.607 348.738 218.841 349.018C219.074 349.289 219.172 349.601 219.135 349.956C219.107 350.311 219.018 350.619 218.869 350.88C218.719 351.132 218.519 351.356 218.267 351.552C217.725 351.981 217.049 352.196 216.237 352.196C215.425 352.196 214.785 352 214.319 351.608C213.852 351.207 213.651 350.642 213.717 349.914H215.145C215.117 350.241 215.201 350.479 215.397 350.628C215.602 350.777 215.882 350.852 216.237 350.852C216.591 350.852 216.871 350.777 217.077 350.628C217.282 350.479 217.394 350.306 217.413 350.11C217.441 349.905 217.399 349.751 217.287 349.648C217.175 349.545 216.993 349.447 216.741 349.354L215.439 348.808C214.487 348.416 214.057 347.791 214.151 346.932C214.207 346.344 214.482 345.877 214.977 345.532C215.49 345.177 216.139 345 216.923 345Z" stroke="#D2DCFA" stroke-width="7.76" mask="url(#path-16-outside-1)"/>
<path d="M223.274 345C224.067 345 224.66 345.196 225.052 345.588C225.444 345.971 225.616 346.456 225.57 347.044H224.128C224.128 346.829 224.048 346.657 223.89 346.526C223.731 346.395 223.493 346.33 223.176 346.33C222.858 346.33 222.606 346.4 222.42 346.54C222.233 346.671 222.13 346.829 222.112 347.016C222.074 347.333 222.284 347.567 222.742 347.716L224.17 348.332C224.618 348.509 224.958 348.738 225.192 349.018C225.425 349.289 225.523 349.601 225.486 349.956C225.458 350.311 225.369 350.619 225.22 350.88C225.07 351.132 224.87 351.356 224.618 351.552C224.076 351.981 223.4 352.196 222.588 352.196C221.776 352.196 221.136 352 220.67 351.608C220.203 351.207 220.002 350.642 220.068 349.914H221.496C221.468 350.241 221.552 350.479 221.748 350.628C221.953 350.777 222.233 350.852 222.588 350.852C222.942 350.852 223.222 350.777 223.428 350.628C223.633 350.479 223.745 350.306 223.764 350.11C223.792 349.905 223.75 349.751 223.638 349.648C223.526 349.545 223.344 349.447 223.092 349.354L221.79 348.808C220.838 348.416 220.408 347.791 220.502 346.932C220.558 346.344 220.833 345.877 221.328 345.532C221.841 345.177 222.49 345 223.274 345Z" stroke="#D2DCFA" stroke-width="7.76" mask="url(#path-16-outside-1)"/>
<path d="M227.902 349.018C227.893 349.065 227.888 349.111 227.888 349.158C227.888 349.205 227.888 349.251 227.888 349.298C227.888 349.755 227.986 350.124 228.182 350.404C228.388 350.684 228.658 350.824 228.994 350.824C229.676 350.824 230.091 350.539 230.24 349.97H231.794C231.645 350.623 231.309 351.155 230.786 351.566C230.264 351.986 229.662 352.196 228.98 352.196C228.243 352.196 227.632 351.916 227.146 351.356C226.652 350.787 226.404 350.031 226.404 349.088C226.404 348.024 226.689 347.091 227.258 346.288C227.865 345.429 228.663 345 229.652 345C230.427 345 231.02 345.28 231.43 345.84C231.813 346.344 232.004 346.997 232.004 347.8C232.004 348.183 231.953 348.589 231.85 349.018H227.902ZM229.512 346.358C229.12 346.358 228.794 346.507 228.532 346.806C228.271 347.105 228.098 347.483 228.014 347.94H230.576C230.586 347.893 230.59 347.847 230.59 347.8C230.59 347.753 230.59 347.674 230.59 347.562C230.59 347.45 230.572 347.319 230.534 347.17C230.506 347.011 230.45 346.871 230.366 346.75C230.189 346.489 229.904 346.358 229.512 346.358Z" stroke="#D2DCFA" stroke-width="7.76" mask="url(#path-16-outside-1)"/>
<path d="M236.576 351.832C236.007 352.075 235.559 352.196 235.232 352.196C234.905 352.196 234.625 352.154 234.392 352.07C234.159 351.986 233.958 351.86 233.79 351.692C233.426 351.319 233.281 350.787 233.356 350.096L233.706 346.316H232.866L232.978 345.182H233.818L233.986 343.404H235.526L235.358 345.182H236.996L236.884 346.316H235.232L234.896 350.04C234.84 350.581 235.05 350.852 235.526 350.852C235.769 350.852 236.081 350.777 236.464 350.628L236.576 351.832Z" stroke="#D2DCFA" stroke-width="7.76" mask="url(#path-16-outside-1)"/>
<rect x="176" y="71" width="48" height="48" rx="24" fill="white" stroke="#4285F4" stroke-width="2"/>
<path d="M195.41 89L200 93.58L204.59 89L206 90.41L200 96.41L194 90.41L195.41 89Z" fill="#4285F4"/>
<path d="M204.59 101.82L200 97.2401L195.41 101.82L194 100.41L200 94.4101L206 100.41L204.59 101.82Z" fill="#4285F4"/>
</g>
<defs>
<filter id="filter0_dd" x="22" y="86" width="356" height="694" filterUnits="userSpaceOnUse" color-interpolation-filters="sRGB">
<feFlood flood-opacity="0" result="BackgroundImageFix"/>
<feColorMatrix in="SourceAlpha" type="matrix" values="0 0 0 0 0 0 0 0 0 0 0 0 0 0 0 0 0 0 127 0"/>
<feOffset/>
<feGaussianBlur stdDeviation="4"/>
<feColorMatrix type="matrix" values="0 0 0 0 0.823529 0 0 0 0 0.862745 0 0 0 0 0.980392 0 0 0 0.5 0"/>
<feBlend mode="normal" in2="BackgroundImageFix" result="effect1_dropShadow"/>
<feColorMatrix in="SourceAlpha" type="matrix" values="0 0 0 0 0 0 0 0 0 0 0 0 0 0 0 0 0 0 127 0"/>
<feOffset dy="2"/>
<feGaussianBlur stdDeviation="1"/>
<feColorMatrix type="matrix" values="0 0 0 0 0.823529 0 0 0 0 0.862745 0 0 0 0 0.980392 0 0 0 1 0"/>
<feBlend mode="normal" in2="effect1_dropShadow" result="effect2_dropShadow"/>
<feBlend mode="normal" in="SourceGraphic" in2="effect2_dropShadow" result="shape"/>
</filter>
<clipPath id="clip0">
<rect width="400" height="797.554" fill="white"/>
</clipPath>
</defs>
</svg>
