<svg width="312" height="393" viewBox="0 0 312 393" fill="none" xmlns="http://www.w3.org/2000/svg">
<g clip-path="url(#clip0)">
<rect width="312" height="393" fill="white"/>
<rect width="312" height="393" rx="6" fill="#F3F3F3"/>
<rect x="17" y="-30" width="278" height="61" rx="5" fill="#F3F3F3" stroke="#AFAFAF" stroke-width="2"/>
<rect x="16" y="-31" width="280" height="63" rx="6" fill="url(#paint0_linear)"/>
<rect opacity="0.5" x="16" y="-31" width="280" height="63" rx="6" fill="url(#paint1_linear)"/>
<rect x="17" y="51" width="278" height="290" rx="5" fill="#F3F3F3" stroke="#444444" stroke-width="2"/>
<rect x="17" y="363" width="278" height="61" rx="5" fill="#F3F3F3" stroke="#AFAFAF" stroke-width="2"/>
<rect x="296" y="424" width="280" height="63" rx="6" transform="rotate(180 296 424)" fill="url(#paint2_linear)"/>
<rect opacity="0.5" x="296" y="424" width="280" height="63" rx="6" transform="rotate(180 296 424)" fill="url(#paint3_linear)"/>
<path d="M60.609 149.352C59.1277 149.352 57.7637 148.993 56.517 148.274C55.2704 147.555 54.2804 146.565 53.547 145.304C52.8137 144.043 52.447 142.649 52.447 141.124C52.447 139.599 52.8137 138.205 53.547 136.944C54.2804 135.683 55.2704 134.693 56.517 133.974C57.7637 133.255 59.1277 132.896 60.609 132.896C61.7677 132.896 62.853 133.101 63.865 133.512C64.8917 133.923 65.735 134.502 66.395 135.25L65.053 136.592C64.5544 135.976 63.9164 135.507 63.139 135.184C62.3617 134.847 61.5257 134.678 60.631 134.678C59.5164 134.678 58.475 134.949 57.507 135.492C56.5537 136.02 55.7837 136.775 55.197 137.758C54.625 138.726 54.339 139.848 54.339 141.124C54.339 142.4 54.625 143.529 55.197 144.512C55.7837 145.48 56.561 146.235 57.529 146.778C58.497 147.306 59.531 147.57 60.631 147.57C61.687 147.57 62.567 147.409 63.271 147.086C63.9897 146.749 64.6057 146.309 65.119 145.766C65.5004 145.355 65.8084 144.864 66.043 144.292C66.2777 143.705 66.4244 143.06 66.483 142.356H60.653V140.618H68.221C68.2944 141.029 68.331 141.41 68.331 141.762C68.331 142.73 68.177 143.676 67.869 144.6C67.561 145.509 67.0697 146.309 66.395 146.998C64.943 148.567 63.0144 149.352 60.609 149.352ZM70.3098 137.78H72.0918V139.584H72.1798C72.3998 138.968 72.8252 138.462 73.4558 138.066C74.0865 137.655 74.7465 137.45 75.4358 137.45C75.9492 137.45 76.3892 137.523 76.7558 137.67V139.694C76.2865 139.459 75.7585 139.342 75.1718 139.342C74.6292 139.342 74.1305 139.496 73.6758 139.804C73.2212 140.112 72.8545 140.53 72.5758 141.058C72.3118 141.571 72.1798 142.129 72.1798 142.73V149H70.3098V137.78ZM82.8878 149.352C81.8171 149.352 80.8565 149.095 80.0058 148.582C79.1551 148.069 78.4878 147.365 78.0038 146.47C77.5345 145.561 77.2998 144.541 77.2998 143.412C77.2998 142.327 77.5198 141.329 77.9598 140.42C78.4145 139.511 79.0525 138.785 79.8738 138.242C80.6951 137.699 81.6485 137.428 82.7338 137.428C83.8338 137.428 84.7871 137.677 85.5938 138.176C86.4005 138.66 87.0165 139.335 87.4418 140.2C87.8818 141.065 88.1018 142.055 88.1018 143.17C88.1018 143.39 88.0798 143.581 88.0358 143.742H79.1698C79.2138 144.593 79.4191 145.311 79.7858 145.898C80.1525 146.485 80.6145 146.925 81.1718 147.218C81.7438 147.511 82.3378 147.658 82.9538 147.658C84.3911 147.658 85.4985 146.983 86.2758 145.634L87.8598 146.404C87.3758 147.313 86.7158 148.032 85.8798 148.56C85.0585 149.088 84.0611 149.352 82.8878 149.352ZM86.1218 142.202C86.0925 141.733 85.9605 141.263 85.7258 140.794C85.4911 140.325 85.1171 139.929 84.6038 139.606C84.1051 139.283 83.4745 139.122 82.7118 139.122C81.8318 139.122 81.0838 139.408 80.4678 139.98C79.8665 140.537 79.4705 141.278 79.2798 142.202H86.1218ZM93.9837 149.352C93.1624 149.352 92.4291 149.191 91.7837 148.868C91.1384 148.545 90.6397 148.105 90.2877 147.548C89.9357 146.976 89.7597 146.331 89.7597 145.612C89.7597 144.424 90.2071 143.5 91.1017 142.84C91.9964 142.165 93.1257 141.828 94.4897 141.828C95.1644 141.828 95.7877 141.901 96.3597 142.048C96.9464 142.195 97.3937 142.363 97.7017 142.554V141.872C97.7017 141.036 97.4084 140.369 96.8217 139.87C96.2351 139.357 95.4944 139.1 94.5997 139.1C93.9691 139.1 93.3897 139.239 92.8617 139.518C92.3337 139.782 91.9157 140.156 91.6077 140.64L90.1997 139.584C90.6397 138.909 91.2411 138.381 92.0037 138C92.7811 137.619 93.6391 137.428 94.5777 137.428C96.1031 137.428 97.2984 137.831 98.1637 138.638C99.0437 139.43 99.4837 140.515 99.4837 141.894V149H97.7017V147.394H97.6137C97.2911 147.937 96.8071 148.399 96.1617 148.78C95.5164 149.161 94.7904 149.352 93.9837 149.352ZM94.1597 147.702C94.7904 147.702 95.3771 147.541 95.9197 147.218C96.4624 146.895 96.8951 146.463 97.2177 145.92C97.5404 145.377 97.7017 144.783 97.7017 144.138C97.3497 143.903 96.9171 143.713 96.4037 143.566C95.8904 143.419 95.3477 143.346 94.7757 143.346C93.7491 143.346 92.9717 143.559 92.4437 143.984C91.9304 144.409 91.6737 144.959 91.6737 145.634C91.6737 146.25 91.9084 146.749 92.3777 147.13C92.8471 147.511 93.4411 147.702 94.1597 147.702ZM106.182 149.176C105.728 149.176 105.302 149.103 104.906 148.956C104.525 148.809 104.202 148.611 103.938 148.362C103.645 148.083 103.425 147.761 103.278 147.394C103.132 147.027 103.058 146.58 103.058 146.052V139.474H101.1V137.78H103.058V134.612H104.928V137.78H107.656V139.474H104.928V145.59C104.928 146.206 105.046 146.661 105.28 146.954C105.559 147.277 105.962 147.438 106.49 147.438C106.916 147.438 107.326 147.313 107.722 147.064V148.89C107.502 148.993 107.275 149.066 107.04 149.11C106.82 149.154 106.534 149.176 106.182 149.176ZM120.738 149.352C119.888 149.352 119.118 149.161 118.428 148.78C117.754 148.384 117.248 147.907 116.91 147.35H116.822V149H115.04V133.248H116.91V137.89L116.822 139.452H116.91C117.248 138.88 117.754 138.403 118.428 138.022C119.118 137.626 119.888 137.428 120.738 137.428C121.736 137.428 122.645 137.685 123.466 138.198C124.288 138.711 124.933 139.423 125.402 140.332C125.872 141.241 126.106 142.261 126.106 143.39C126.106 144.534 125.872 145.561 125.402 146.47C124.933 147.365 124.288 148.069 123.466 148.582C122.645 149.095 121.736 149.352 120.738 149.352ZM120.518 147.658C121.164 147.658 121.772 147.482 122.344 147.13C122.916 146.778 123.371 146.279 123.708 145.634C124.06 144.974 124.236 144.226 124.236 143.39C124.236 142.554 124.06 141.813 123.708 141.168C123.371 140.508 122.916 140.002 122.344 139.65C121.772 139.298 121.164 139.122 120.518 139.122C119.873 139.122 119.264 139.298 118.692 139.65C118.12 140.002 117.666 140.501 117.328 141.146C116.991 141.791 116.822 142.539 116.822 143.39C116.822 144.241 116.991 144.989 117.328 145.634C117.666 146.279 118.12 146.778 118.692 147.13C119.264 147.482 119.873 147.658 120.518 147.658ZM133.269 149.352C132.198 149.352 131.237 149.095 130.387 148.582C129.536 148.069 128.869 147.365 128.385 146.47C127.915 145.561 127.681 144.541 127.681 143.412C127.681 142.327 127.901 141.329 128.341 140.42C128.795 139.511 129.433 138.785 130.255 138.242C131.076 137.699 132.029 137.428 133.115 137.428C134.215 137.428 135.168 137.677 135.975 138.176C136.781 138.66 137.397 139.335 137.823 140.2C138.263 141.065 138.483 142.055 138.483 143.17C138.483 143.39 138.461 143.581 138.417 143.742H129.551C129.595 144.593 129.8 145.311 130.167 145.898C130.533 146.485 130.995 146.925 131.553 147.218C132.125 147.511 132.719 147.658 133.335 147.658C134.772 147.658 135.879 146.983 136.657 145.634L138.241 146.404C137.757 147.313 137.097 148.032 136.261 148.56C135.439 149.088 134.442 149.352 133.269 149.352ZM136.503 142.202C136.473 141.733 136.341 141.263 136.107 140.794C135.872 140.325 135.498 139.929 134.985 139.606C134.486 139.283 133.855 139.122 133.093 139.122C132.213 139.122 131.465 139.408 130.849 139.98C130.247 140.537 129.851 141.278 129.661 142.202H136.503ZM145.773 149.352C144.702 149.352 143.741 149.095 142.891 148.582C142.04 148.069 141.373 147.365 140.889 146.47C140.419 145.561 140.185 144.541 140.185 143.412C140.185 142.327 140.405 141.329 140.845 140.42C141.299 139.511 141.937 138.785 142.759 138.242C143.58 137.699 144.533 137.428 145.619 137.428C146.719 137.428 147.672 137.677 148.479 138.176C149.285 138.66 149.901 139.335 150.327 140.2C150.767 141.065 150.987 142.055 150.987 143.17C150.987 143.39 150.965 143.581 150.921 143.742H142.055C142.099 144.593 142.304 145.311 142.671 145.898C143.037 146.485 143.499 146.925 144.057 147.218C144.629 147.511 145.223 147.658 145.839 147.658C147.276 147.658 148.383 146.983 149.161 145.634L150.745 146.404C150.261 147.313 149.601 148.032 148.765 148.56C147.943 149.088 146.946 149.352 145.773 149.352ZM149.007 142.202C148.977 141.733 148.845 141.263 148.611 140.794C148.376 140.325 148.002 139.929 147.489 139.606C146.99 139.283 146.359 139.122 145.597 139.122C144.717 139.122 143.969 139.408 143.353 139.98C142.751 140.537 142.355 141.278 142.165 142.202H149.007ZM153.175 137.78H154.957V139.584H155.045C155.265 138.968 155.69 138.462 156.321 138.066C156.952 137.655 157.612 137.45 158.301 137.45C158.814 137.45 159.254 137.523 159.621 137.67V139.694C159.152 139.459 158.624 139.342 158.037 139.342C157.494 139.342 156.996 139.496 156.541 139.804C156.086 140.112 155.72 140.53 155.441 141.058C155.177 141.571 155.045 142.129 155.045 142.73V149H153.175V137.78ZM170.454 149.352C169.252 149.352 168.247 149.073 167.44 148.516C166.634 147.944 166.062 147.218 165.724 146.338L167.396 145.59C167.675 146.265 168.086 146.785 168.628 147.152C169.186 147.519 169.794 147.702 170.454 147.702C171.158 147.702 171.76 147.563 172.258 147.284C172.757 146.991 173.006 146.58 173.006 146.052C173.006 145.583 172.808 145.209 172.412 144.93C172.016 144.637 171.393 144.387 170.542 144.182L169.178 143.83C168.284 143.61 167.55 143.236 166.978 142.708C166.406 142.18 166.12 141.498 166.12 140.662C166.12 140.017 166.311 139.452 166.692 138.968C167.088 138.469 167.609 138.088 168.254 137.824C168.9 137.56 169.596 137.428 170.344 137.428C171.327 137.428 172.2 137.641 172.962 138.066C173.74 138.491 174.29 139.085 174.612 139.848L172.984 140.596C172.486 139.599 171.598 139.1 170.322 139.1C169.706 139.1 169.164 139.247 168.694 139.54C168.24 139.819 168.012 140.178 168.012 140.618C168.012 141.029 168.174 141.366 168.496 141.63C168.819 141.879 169.303 142.085 169.948 142.246L171.576 142.664C172.676 142.943 173.505 143.361 174.062 143.918C174.62 144.461 174.898 145.128 174.898 145.92C174.898 146.609 174.7 147.218 174.304 147.746C173.908 148.259 173.373 148.655 172.698 148.934C172.024 149.213 171.276 149.352 170.454 149.352ZM182.038 149.352C180.968 149.352 180.007 149.095 179.156 148.582C178.306 148.069 177.638 147.365 177.154 146.47C176.685 145.561 176.45 144.541 176.45 143.412C176.45 142.327 176.67 141.329 177.11 140.42C177.565 139.511 178.203 138.785 179.024 138.242C179.846 137.699 180.799 137.428 181.884 137.428C182.984 137.428 183.938 137.677 184.744 138.176C185.551 138.66 186.167 139.335 186.592 140.2C187.032 141.065 187.252 142.055 187.252 143.17C187.252 143.39 187.23 143.581 187.186 143.742H178.32C178.364 144.593 178.57 145.311 178.936 145.898C179.303 146.485 179.765 146.925 180.322 147.218C180.894 147.511 181.488 147.658 182.104 147.658C183.542 147.658 184.649 146.983 185.426 145.634L187.01 146.404C186.526 147.313 185.866 148.032 185.03 148.56C184.209 149.088 183.212 149.352 182.038 149.352ZM185.272 142.202C185.243 141.733 185.111 141.263 184.876 140.794C184.642 140.325 184.268 139.929 183.754 139.606C183.256 139.283 182.625 139.122 181.862 139.122C180.982 139.122 180.234 139.408 179.618 139.98C179.017 140.537 178.621 141.278 178.43 142.202H185.272ZM189.441 133.248H191.311V149H189.441V133.248ZM198.968 149.352C197.897 149.352 196.937 149.095 196.086 148.582C195.235 148.069 194.568 147.365 194.084 146.47C193.615 145.561 193.38 144.541 193.38 143.412C193.38 142.327 193.6 141.329 194.04 140.42C194.495 139.511 195.133 138.785 195.954 138.242C196.775 137.699 197.729 137.428 198.814 137.428C199.914 137.428 200.867 137.677 201.674 138.176C202.481 138.66 203.097 139.335 203.522 140.2C203.962 141.065 204.182 142.055 204.182 143.17C204.182 143.39 204.16 143.581 204.116 143.742H195.25C195.294 144.593 195.499 145.311 195.866 145.898C196.233 146.485 196.695 146.925 197.252 147.218C197.824 147.511 198.418 147.658 199.034 147.658C200.471 147.658 201.579 146.983 202.356 145.634L203.94 146.404C203.456 147.313 202.796 148.032 201.96 148.56C201.139 149.088 200.141 149.352 198.968 149.352ZM202.202 142.202C202.173 141.733 202.041 141.263 201.806 140.794C201.571 140.325 201.197 139.929 200.684 139.606C200.185 139.283 199.555 139.122 198.792 139.122C197.912 139.122 197.164 139.408 196.548 139.98C195.947 140.537 195.551 141.278 195.36 142.202H202.202ZM211.56 149.352C210.474 149.352 209.499 149.095 208.634 148.582C207.768 148.054 207.094 147.343 206.61 146.448C206.126 145.539 205.884 144.519 205.884 143.39C205.884 142.261 206.126 141.241 206.61 140.332C207.094 139.423 207.768 138.711 208.634 138.198C209.499 137.685 210.474 137.428 211.56 137.428C212.777 137.428 213.796 137.714 214.618 138.286C215.454 138.843 216.048 139.591 216.4 140.53L214.706 141.234C214.427 140.545 214.009 140.024 213.452 139.672C212.909 139.305 212.249 139.122 211.472 139.122C210.812 139.122 210.196 139.305 209.624 139.672C209.052 140.024 208.59 140.523 208.238 141.168C207.9 141.813 207.732 142.554 207.732 143.39C207.732 144.226 207.9 144.967 208.238 145.612C208.59 146.257 209.052 146.763 209.624 147.13C210.196 147.482 210.812 147.658 211.472 147.658C212.264 147.658 212.946 147.475 213.518 147.108C214.09 146.741 214.515 146.221 214.794 145.546L216.466 146.25C216.084 147.174 215.468 147.922 214.618 148.494C213.782 149.066 212.762 149.352 211.56 149.352ZM222.692 149.176C222.237 149.176 221.812 149.103 221.416 148.956C221.035 148.809 220.712 148.611 220.448 148.362C220.155 148.083 219.935 147.761 219.788 147.394C219.641 147.027 219.568 146.58 219.568 146.052V139.474H217.61V137.78H219.568V134.612H221.438V137.78H224.166V139.474H221.438V145.59C221.438 146.206 221.555 146.661 221.79 146.954C222.069 147.277 222.472 147.438 223 147.438C223.425 147.438 223.836 147.313 224.232 147.064V148.89C224.012 148.993 223.785 149.066 223.55 149.11C223.33 149.154 223.044 149.176 222.692 149.176ZM227.644 135.712C227.278 135.712 226.962 135.58 226.698 135.316C226.434 135.052 226.302 134.737 226.302 134.37C226.302 134.003 226.434 133.695 226.698 133.446C226.962 133.182 227.278 133.05 227.644 133.05C228.011 133.05 228.326 133.182 228.59 133.446C228.854 133.695 228.986 134.003 228.986 134.37C228.986 134.737 228.854 135.052 228.59 135.316C228.341 135.58 228.026 135.712 227.644 135.712ZM226.72 137.78H228.568V149H226.72V137.78ZM236.57 149.352C235.47 149.352 234.48 149.088 233.6 148.56C232.72 148.032 232.03 147.313 231.532 146.404C231.048 145.495 230.806 144.49 230.806 143.39C230.806 142.29 231.048 141.285 231.532 140.376C232.03 139.467 232.72 138.748 233.6 138.22C234.48 137.692 235.47 137.428 236.57 137.428C237.67 137.428 238.66 137.692 239.54 138.22C240.42 138.748 241.102 139.467 241.586 140.376C242.084 141.285 242.334 142.29 242.334 143.39C242.334 144.49 242.084 145.495 241.586 146.404C241.102 147.313 240.42 148.032 239.54 148.56C238.66 149.088 237.67 149.352 236.57 149.352ZM236.57 147.658C237.259 147.658 237.897 147.489 238.484 147.152C239.085 146.8 239.562 146.301 239.914 145.656C240.28 145.011 240.464 144.255 240.464 143.39C240.464 142.525 240.28 141.769 239.914 141.124C239.562 140.479 239.085 139.987 238.484 139.65C237.897 139.298 237.259 139.122 236.57 139.122C235.88 139.122 235.235 139.298 234.634 139.65C234.032 139.987 233.548 140.479 233.182 141.124C232.83 141.769 232.654 142.525 232.654 143.39C232.654 144.255 232.83 145.011 233.182 145.656C233.548 146.301 234.032 146.8 234.634 147.152C235.235 147.489 235.88 147.658 236.57 147.658ZM244.29 137.78H246.072V139.43H246.16C246.468 138.873 246.96 138.403 247.634 138.022C248.309 137.626 249.028 137.428 249.79 137.428C251.14 137.428 252.166 137.824 252.87 138.616C253.589 139.393 253.948 140.457 253.948 141.806V149H252.078V142.092C252.078 141.051 251.829 140.295 251.33 139.826C250.832 139.357 250.15 139.122 249.284 139.122C248.683 139.122 248.14 139.291 247.656 139.628C247.187 139.965 246.82 140.413 246.556 140.97C246.292 141.513 246.16 142.085 246.16 142.686V149H244.29V137.78ZM256.358 150.826L257.524 149C257.26 148.956 257.026 148.817 256.82 148.582C256.615 148.347 256.512 148.061 256.512 147.724C256.512 147.343 256.644 147.02 256.908 146.756C257.187 146.477 257.524 146.338 257.92 146.338C258.316 146.338 258.646 146.477 258.91 146.756C259.189 147.02 259.328 147.343 259.328 147.724C259.328 147.973 259.277 148.215 259.174 148.45C259.072 148.67 258.918 148.927 258.712 149.22L257.26 151.42L256.358 150.826ZM73.3005 177.176C72.8459 177.176 72.4205 177.103 72.0245 176.956C71.6432 176.809 71.3205 176.611 71.0565 176.362C70.7632 176.083 70.5432 175.761 70.3965 175.394C70.2499 175.027 70.1765 174.58 70.1765 174.052V167.474H68.2185V165.78H70.1765V162.612H72.0465V165.78H74.7745V167.474H72.0465V173.59C72.0465 174.206 72.1639 174.661 72.3985 174.954C72.6772 175.277 73.0805 175.438 73.6085 175.438C74.0339 175.438 74.4445 175.313 74.8405 175.064V176.89C74.6205 176.993 74.3932 177.066 74.1585 177.11C73.9385 177.154 73.6525 177.176 73.3005 177.176ZM77.1526 161.248H79.0226V165.89L78.9346 167.43H79.0226C79.3306 166.858 79.8146 166.381 80.4746 166C81.1493 165.619 81.8826 165.428 82.6746 165.428C84.0386 165.428 85.0799 165.831 85.7986 166.638C86.5173 167.43 86.8766 168.486 86.8766 169.806V177H85.0066V170.092C85.0066 169.08 84.7499 168.332 84.2366 167.848C83.7233 167.364 83.0559 167.122 82.2346 167.122C81.6479 167.122 81.1053 167.298 80.6066 167.65C80.1226 168.002 79.7339 168.457 79.4406 169.014C79.1619 169.571 79.0226 170.151 79.0226 170.752V177H77.1526V161.248ZM94.5646 177.352C93.4939 177.352 92.5332 177.095 91.6826 176.582C90.8319 176.069 90.1646 175.365 89.6806 174.47C89.2112 173.561 88.9766 172.541 88.9766 171.412C88.9766 170.327 89.1966 169.329 89.6366 168.42C90.0912 167.511 90.7292 166.785 91.5506 166.242C92.3719 165.699 93.3252 165.428 94.4106 165.428C95.5106 165.428 96.4639 165.677 97.2706 166.176C98.0772 166.66 98.6932 167.335 99.1186 168.2C99.5586 169.065 99.7786 170.055 99.7786 171.17C99.7786 171.39 99.7566 171.581 99.7126 171.742H90.8466C90.8906 172.593 91.0959 173.311 91.4626 173.898C91.8292 174.485 92.2912 174.925 92.8486 175.218C93.4206 175.511 94.0146 175.658 94.6306 175.658C96.0679 175.658 97.1752 174.983 97.9526 173.634L99.5366 174.404C99.0526 175.313 98.3926 176.032 97.5566 176.56C96.7352 177.088 95.7379 177.352 94.5646 177.352ZM97.7986 170.202C97.7692 169.733 97.6372 169.263 97.4026 168.794C97.1679 168.325 96.7939 167.929 96.2806 167.606C95.7819 167.283 95.1512 167.122 94.3886 167.122C93.5086 167.122 92.7606 167.408 92.1446 167.98C91.5432 168.537 91.1472 169.278 90.9566 170.202H97.7986ZM112.008 182.104C110.688 182.104 109.596 181.796 108.73 181.18C107.88 180.564 107.308 179.823 107.014 178.958L108.708 178.232C108.958 178.877 109.368 179.398 109.94 179.794C110.527 180.205 111.216 180.41 112.008 180.41C113.167 180.41 114.062 180.073 114.692 179.398C115.338 178.723 115.66 177.77 115.66 176.538V175.284H115.572C115.206 175.856 114.685 176.325 114.01 176.692C113.35 177.044 112.595 177.22 111.744 177.22C110.776 177.22 109.889 176.971 109.082 176.472C108.29 175.973 107.66 175.277 107.19 174.382C106.721 173.487 106.486 172.468 106.486 171.324C106.486 170.195 106.721 169.183 107.19 168.288C107.66 167.379 108.29 166.675 109.082 166.176C109.889 165.677 110.776 165.428 111.744 165.428C112.595 165.428 113.35 165.611 114.01 165.978C114.685 166.33 115.206 166.799 115.572 167.386H115.66V165.78H117.442V176.56C117.442 178.364 116.944 179.735 115.946 180.674C114.949 181.627 113.636 182.104 112.008 182.104ZM112.008 175.526C112.683 175.526 113.292 175.357 113.834 175.02C114.392 174.683 114.832 174.199 115.154 173.568C115.492 172.937 115.66 172.189 115.66 171.324C115.66 170.444 115.492 169.689 115.154 169.058C114.832 168.427 114.392 167.951 113.834 167.628C113.292 167.291 112.683 167.122 112.008 167.122C111.334 167.122 110.718 167.291 110.16 167.628C109.603 167.965 109.156 168.449 108.818 169.08C108.496 169.711 108.334 170.459 108.334 171.324C108.334 172.189 108.496 172.945 108.818 173.59C109.156 174.221 109.603 174.705 110.16 175.042C110.718 175.365 111.334 175.526 112.008 175.526ZM120.207 165.78H121.989V167.584H122.077C122.297 166.968 122.723 166.462 123.353 166.066C123.984 165.655 124.644 165.45 125.333 165.45C125.847 165.45 126.287 165.523 126.653 165.67V167.694C126.184 167.459 125.656 167.342 125.069 167.342C124.527 167.342 124.028 167.496 123.573 167.804C123.119 168.112 122.752 168.53 122.473 169.058C122.209 169.571 122.077 170.129 122.077 170.73V177H120.207V165.78ZM129.557 163.712C129.191 163.712 128.875 163.58 128.611 163.316C128.347 163.052 128.215 162.737 128.215 162.37C128.215 162.003 128.347 161.695 128.611 161.446C128.875 161.182 129.191 161.05 129.557 161.05C129.924 161.05 130.239 161.182 130.503 161.446C130.767 161.695 130.899 162.003 130.899 162.37C130.899 162.737 130.767 163.052 130.503 163.316C130.254 163.58 129.939 163.712 129.557 163.712ZM128.633 165.78H130.481V177H128.633V165.78ZM133.42 161.248H135.29V177H133.42V161.248ZM138.061 161.248H139.931V177H138.061V161.248ZM147.588 177.352C146.517 177.352 145.557 177.095 144.706 176.582C143.855 176.069 143.188 175.365 142.704 174.47C142.235 173.561 142 172.541 142 171.412C142 170.327 142.22 169.329 142.66 168.42C143.115 167.511 143.753 166.785 144.574 166.242C145.395 165.699 146.349 165.428 147.434 165.428C148.534 165.428 149.487 165.677 150.294 166.176C151.101 166.66 151.717 167.335 152.142 168.2C152.582 169.065 152.802 170.055 152.802 171.17C152.802 171.39 152.78 171.581 152.736 171.742H143.87C143.914 172.593 144.119 173.311 144.486 173.898C144.853 174.485 145.315 174.925 145.872 175.218C146.444 175.511 147.038 175.658 147.654 175.658C149.091 175.658 150.199 174.983 150.976 173.634L152.56 174.404C152.076 175.313 151.416 176.032 150.58 176.56C149.759 177.088 148.761 177.352 147.588 177.352ZM150.822 170.202C150.793 169.733 150.661 169.263 150.426 168.794C150.191 168.325 149.817 167.929 149.304 167.606C148.805 167.283 148.175 167.122 147.412 167.122C146.532 167.122 145.784 167.408 145.168 167.98C144.567 168.537 144.171 169.278 143.98 170.202H150.822ZM159.85 177.352C158.853 177.352 157.943 177.095 157.122 176.582C156.315 176.069 155.677 175.365 155.208 174.47C154.739 173.561 154.504 172.534 154.504 171.39C154.504 170.261 154.739 169.241 155.208 168.332C155.677 167.423 156.315 166.711 157.122 166.198C157.943 165.685 158.853 165.428 159.85 165.428C160.715 165.428 161.485 165.626 162.16 166.022C162.835 166.403 163.348 166.88 163.7 167.452H163.788L163.7 165.89V161.248H165.57V177H163.788V175.35H163.7C163.348 175.907 162.835 176.384 162.16 176.78C161.485 177.161 160.715 177.352 159.85 177.352ZM160.07 175.658C160.73 175.658 161.339 175.482 161.896 175.13C162.468 174.778 162.923 174.279 163.26 173.634C163.612 172.989 163.788 172.241 163.788 171.39C163.788 170.539 163.612 169.791 163.26 169.146C162.923 168.501 162.468 168.002 161.896 167.65C161.339 167.298 160.73 167.122 160.07 167.122C159.425 167.122 158.816 167.298 158.244 167.65C157.672 168.002 157.21 168.508 156.858 169.168C156.521 169.813 156.352 170.554 156.352 171.39C156.352 172.226 156.521 172.974 156.858 173.634C157.21 174.279 157.672 174.778 158.244 175.13C158.816 175.482 159.425 175.658 160.07 175.658ZM178.528 177.352C177.442 177.352 176.467 177.095 175.602 176.582C174.736 176.054 174.062 175.343 173.578 174.448C173.094 173.539 172.852 172.519 172.852 171.39C172.852 170.261 173.094 169.241 173.578 168.332C174.062 167.423 174.736 166.711 175.602 166.198C176.467 165.685 177.442 165.428 178.528 165.428C179.745 165.428 180.764 165.714 181.586 166.286C182.422 166.843 183.016 167.591 183.368 168.53L181.674 169.234C181.395 168.545 180.977 168.024 180.42 167.672C179.877 167.305 179.217 167.122 178.44 167.122C177.78 167.122 177.164 167.305 176.592 167.672C176.02 168.024 175.558 168.523 175.206 169.168C174.868 169.813 174.7 170.554 174.7 171.39C174.7 172.226 174.868 172.967 175.206 173.612C175.558 174.257 176.02 174.763 176.592 175.13C177.164 175.482 177.78 175.658 178.44 175.658C179.232 175.658 179.914 175.475 180.486 175.108C181.058 174.741 181.483 174.221 181.762 173.546L183.434 174.25C183.052 175.174 182.436 175.922 181.586 176.494C180.75 177.066 179.73 177.352 178.528 177.352ZM185.455 161.248H187.325V165.89L187.237 167.43H187.325C187.633 166.858 188.117 166.381 188.777 166C189.452 165.619 190.185 165.428 190.977 165.428C192.341 165.428 193.383 165.831 194.101 166.638C194.82 167.43 195.179 168.486 195.179 169.806V177H193.309V170.092C193.309 169.08 193.053 168.332 192.539 167.848C192.026 167.364 191.359 167.122 190.537 167.122C189.951 167.122 189.408 167.298 188.909 167.65C188.425 168.002 188.037 168.457 187.743 169.014C187.465 169.571 187.325 170.151 187.325 170.752V177H185.455V161.248ZM202.867 177.352C201.797 177.352 200.836 177.095 199.985 176.582C199.135 176.069 198.467 175.365 197.983 174.47C197.514 173.561 197.279 172.541 197.279 171.412C197.279 170.327 197.499 169.329 197.939 168.42C198.394 167.511 199.032 166.785 199.853 166.242C200.675 165.699 201.628 165.428 202.713 165.428C203.813 165.428 204.767 165.677 205.573 166.176C206.38 166.66 206.996 167.335 207.421 168.2C207.861 169.065 208.081 170.055 208.081 171.17C208.081 171.39 208.059 171.581 208.015 171.742H199.149C199.193 172.593 199.399 173.311 199.765 173.898C200.132 174.485 200.594 174.925 201.151 175.218C201.723 175.511 202.317 175.658 202.933 175.658C204.371 175.658 205.478 174.983 206.255 173.634L207.839 174.404C207.355 175.313 206.695 176.032 205.859 176.56C205.038 177.088 204.041 177.352 202.867 177.352ZM206.101 170.202C206.072 169.733 205.94 169.263 205.705 168.794C205.471 168.325 205.097 167.929 204.583 167.606C204.085 167.283 203.454 167.122 202.691 167.122C201.811 167.122 201.063 167.408 200.447 167.98C199.846 168.537 199.45 169.278 199.259 170.202H206.101ZM215.371 177.352C214.301 177.352 213.34 177.095 212.489 176.582C211.639 176.069 210.971 175.365 210.487 174.47C210.018 173.561 209.783 172.541 209.783 171.412C209.783 170.327 210.003 169.329 210.443 168.42C210.898 167.511 211.536 166.785 212.357 166.242C213.179 165.699 214.132 165.428 215.217 165.428C216.317 165.428 217.271 165.677 218.077 166.176C218.884 166.66 219.5 167.335 219.925 168.2C220.365 169.065 220.585 170.055 220.585 171.17C220.585 171.39 220.563 171.581 220.519 171.742H211.653C211.697 172.593 211.903 173.311 212.269 173.898C212.636 174.485 213.098 174.925 213.655 175.218C214.227 175.511 214.821 175.658 215.437 175.658C216.875 175.658 217.982 174.983 218.759 173.634L220.343 174.404C219.859 175.313 219.199 176.032 218.363 176.56C217.542 177.088 216.545 177.352 215.371 177.352ZM218.605 170.202C218.576 169.733 218.444 169.263 218.209 168.794C217.975 168.325 217.601 167.929 217.087 167.606C216.589 167.283 215.958 167.122 215.195 167.122C214.315 167.122 213.567 167.408 212.951 167.98C212.35 168.537 211.954 169.278 211.763 170.202H218.605ZM226.797 177.352C225.594 177.352 224.59 177.073 223.783 176.516C222.976 175.944 222.404 175.218 222.067 174.338L223.739 173.59C224.018 174.265 224.428 174.785 224.971 175.152C225.528 175.519 226.137 175.702 226.797 175.702C227.501 175.702 228.102 175.563 228.601 175.284C229.1 174.991 229.349 174.58 229.349 174.052C229.349 173.583 229.151 173.209 228.755 172.93C228.359 172.637 227.736 172.387 226.885 172.182L225.521 171.83C224.626 171.61 223.893 171.236 223.321 170.708C222.749 170.18 222.463 169.498 222.463 168.662C222.463 168.017 222.654 167.452 223.035 166.968C223.431 166.469 223.952 166.088 224.597 165.824C225.242 165.56 225.939 165.428 226.687 165.428C227.67 165.428 228.542 165.641 229.305 166.066C230.082 166.491 230.632 167.085 230.955 167.848L229.327 168.596C228.828 167.599 227.941 167.1 226.665 167.1C226.049 167.1 225.506 167.247 225.037 167.54C224.582 167.819 224.355 168.178 224.355 168.618C224.355 169.029 224.516 169.366 224.839 169.63C225.162 169.879 225.646 170.085 226.291 170.246L227.919 170.664C229.019 170.943 229.848 171.361 230.405 171.918C230.962 172.461 231.241 173.128 231.241 173.92C231.241 174.609 231.043 175.218 230.647 175.746C230.251 176.259 229.716 176.655 229.041 176.934C228.366 177.213 227.618 177.352 226.797 177.352ZM238.381 177.352C237.31 177.352 236.35 177.095 235.499 176.582C234.648 176.069 233.981 175.365 233.497 174.47C233.028 173.561 232.793 172.541 232.793 171.412C232.793 170.327 233.013 169.329 233.453 168.42C233.908 167.511 234.546 166.785 235.367 166.242C236.188 165.699 237.142 165.428 238.227 165.428C239.327 165.428 240.28 165.677 241.087 166.176C241.894 166.66 242.51 167.335 242.935 168.2C243.375 169.065 243.595 170.055 243.595 171.17C243.595 171.39 243.573 171.581 243.529 171.742H234.663C234.707 172.593 234.912 173.311 235.279 173.898C235.646 174.485 236.108 174.925 236.665 175.218C237.237 175.511 237.831 175.658 238.447 175.658C239.884 175.658 240.992 174.983 241.769 173.634L243.353 174.404C242.869 175.313 242.209 176.032 241.373 176.56C240.552 177.088 239.554 177.352 238.381 177.352ZM241.615 170.202C241.586 169.733 241.454 169.263 241.219 168.794C240.984 168.325 240.61 167.929 240.097 167.606C239.598 167.283 238.968 167.122 238.205 167.122C237.325 167.122 236.577 167.408 235.961 167.98C235.36 168.537 234.964 169.278 234.773 170.202H241.615ZM80.9492 205.352C80.0986 205.352 79.3286 205.161 78.6392 204.78C77.9646 204.384 77.4586 203.907 77.1212 203.35H77.0332V205H75.2512V189.248H77.1212V193.89L77.0332 195.452H77.1212C77.4586 194.88 77.9646 194.403 78.6392 194.022C79.3286 193.626 80.0986 193.428 80.9492 193.428C81.9466 193.428 82.8559 193.685 83.6772 194.198C84.4986 194.711 85.1439 195.423 85.6132 196.332C86.0826 197.241 86.3172 198.261 86.3172 199.39C86.3172 200.534 86.0826 201.561 85.6132 202.47C85.1439 203.365 84.4986 204.069 83.6772 204.582C82.8559 205.095 81.9466 205.352 80.9492 205.352ZM80.7292 203.658C81.3746 203.658 81.9832 203.482 82.5552 203.13C83.1272 202.778 83.5819 202.279 83.9192 201.634C84.2712 200.974 84.4472 200.226 84.4472 199.39C84.4472 198.554 84.2712 197.813 83.9192 197.168C83.5819 196.508 83.1272 196.002 82.5552 195.65C81.9832 195.298 81.3746 195.122 80.7292 195.122C80.0839 195.122 79.4752 195.298 78.9032 195.65C78.3312 196.002 77.8766 196.501 77.5392 197.146C77.2019 197.791 77.0332 198.539 77.0332 199.39C77.0332 200.241 77.2019 200.989 77.5392 201.634C77.8766 202.279 78.3312 202.778 78.9032 203.13C79.4752 203.482 80.0839 203.658 80.7292 203.658ZM92.4482 205.352C91.0989 205.352 90.0649 204.956 89.3462 204.164C88.6422 203.372 88.2902 202.265 88.2902 200.842V193.78H90.1602V200.556C90.1602 201.627 90.4022 202.411 90.8862 202.91C91.3702 203.409 92.0229 203.658 92.8442 203.658C93.4749 203.658 94.0322 203.489 94.5162 203.152C95.0149 202.815 95.3962 202.375 95.6602 201.832C95.9389 201.289 96.0782 200.717 96.0782 200.116V193.78H97.9482V205H96.1662V203.372H96.0782C95.7702 203.929 95.2789 204.399 94.6042 204.78C93.9295 205.161 93.2109 205.352 92.4482 205.352ZM100.71 193.78H102.492V195.584H102.58C102.8 194.968 103.226 194.462 103.856 194.066C104.487 193.655 105.147 193.45 105.836 193.45C106.35 193.45 106.79 193.523 107.156 193.67V195.694C106.687 195.459 106.159 195.342 105.572 195.342C105.03 195.342 104.531 195.496 104.076 195.804C103.622 196.112 103.255 196.53 102.976 197.058C102.712 197.571 102.58 198.129 102.58 198.73V205H100.71V193.78ZM113.33 210.104C112.01 210.104 110.917 209.796 110.052 209.18C109.201 208.564 108.629 207.823 108.336 206.958L110.03 206.232C110.279 206.877 110.69 207.398 111.262 207.794C111.848 208.205 112.538 208.41 113.33 208.41C114.488 208.41 115.383 208.073 116.014 207.398C116.659 206.723 116.982 205.77 116.982 204.538V203.284H116.894C116.527 203.856 116.006 204.325 115.332 204.692C114.672 205.044 113.916 205.22 113.066 205.22C112.098 205.22 111.21 204.971 110.404 204.472C109.612 203.973 108.981 203.277 108.512 202.382C108.042 201.487 107.808 200.468 107.808 199.324C107.808 198.195 108.042 197.183 108.512 196.288C108.981 195.379 109.612 194.675 110.404 194.176C111.21 193.677 112.098 193.428 113.066 193.428C113.916 193.428 114.672 193.611 115.332 193.978C116.006 194.33 116.527 194.799 116.894 195.386H116.982V193.78H118.764V204.56C118.764 206.364 118.265 207.735 117.268 208.674C116.27 209.627 114.958 210.104 113.33 210.104ZM113.33 203.526C114.004 203.526 114.613 203.357 115.156 203.02C115.713 202.683 116.153 202.199 116.476 201.568C116.813 200.937 116.982 200.189 116.982 199.324C116.982 198.444 116.813 197.689 116.476 197.058C116.153 196.427 115.713 195.951 115.156 195.628C114.613 195.291 114.004 195.122 113.33 195.122C112.655 195.122 112.039 195.291 111.482 195.628C110.924 195.965 110.477 196.449 110.14 197.08C109.817 197.711 109.656 198.459 109.656 199.324C109.656 200.189 109.817 200.945 110.14 201.59C110.477 202.221 110.924 202.705 111.482 203.042C112.039 203.365 112.655 203.526 113.33 203.526ZM126.415 205.352C125.344 205.352 124.384 205.095 123.533 204.582C122.682 204.069 122.015 203.365 121.531 202.47C121.062 201.561 120.827 200.541 120.827 199.412C120.827 198.327 121.047 197.329 121.487 196.42C121.942 195.511 122.58 194.785 123.401 194.242C124.222 193.699 125.176 193.428 126.261 193.428C127.361 193.428 128.314 193.677 129.121 194.176C129.928 194.66 130.544 195.335 130.969 196.2C131.409 197.065 131.629 198.055 131.629 199.17C131.629 199.39 131.607 199.581 131.563 199.742H122.697C122.741 200.593 122.946 201.311 123.313 201.898C123.68 202.485 124.142 202.925 124.699 203.218C125.271 203.511 125.865 203.658 126.481 203.658C127.918 203.658 129.026 202.983 129.803 201.634L131.387 202.404C130.903 203.313 130.243 204.032 129.407 204.56C128.586 205.088 127.588 205.352 126.415 205.352ZM129.649 198.202C129.62 197.733 129.488 197.263 129.253 196.794C129.018 196.325 128.644 195.929 128.131 195.606C127.632 195.283 127.002 195.122 126.239 195.122C125.359 195.122 124.611 195.408 123.995 195.98C123.394 196.537 122.998 197.278 122.807 198.202H129.649ZM133.818 193.78H135.6V195.584H135.688C135.908 194.968 136.333 194.462 136.964 194.066C137.594 193.655 138.254 193.45 138.944 193.45C139.457 193.45 139.897 193.523 140.264 193.67V195.694C139.794 195.459 139.266 195.342 138.68 195.342C138.137 195.342 137.638 195.496 137.184 195.804C136.729 196.112 136.362 196.53 136.084 197.058C135.82 197.571 135.688 198.129 135.688 198.73V205H133.818V193.78ZM148.281 191.712C147.914 191.712 147.599 191.58 147.335 191.316C147.071 191.052 146.939 190.737 146.939 190.37C146.939 190.003 147.071 189.695 147.335 189.446C147.599 189.182 147.914 189.05 148.281 189.05C148.648 189.05 148.963 189.182 149.227 189.446C149.491 189.695 149.623 190.003 149.623 190.37C149.623 190.737 149.491 191.052 149.227 191.316C148.978 191.58 148.662 191.712 148.281 191.712ZM147.357 193.78H149.205V205H147.357V193.78ZM156.06 205.352C154.857 205.352 153.852 205.073 153.046 204.516C152.239 203.944 151.667 203.218 151.33 202.338L153.002 201.59C153.28 202.265 153.691 202.785 154.234 203.152C154.791 203.519 155.4 203.702 156.06 203.702C156.764 203.702 157.365 203.563 157.864 203.284C158.362 202.991 158.612 202.58 158.612 202.052C158.612 201.583 158.414 201.209 158.018 200.93C157.622 200.637 156.998 200.387 156.148 200.182L154.784 199.83C153.889 199.61 153.156 199.236 152.584 198.708C152.012 198.18 151.726 197.498 151.726 196.662C151.726 196.017 151.916 195.452 152.298 194.968C152.694 194.469 153.214 194.088 153.86 193.824C154.505 193.56 155.202 193.428 155.95 193.428C156.932 193.428 157.805 193.641 158.568 194.066C159.345 194.491 159.895 195.085 160.218 195.848L158.59 196.596C158.091 195.599 157.204 195.1 155.928 195.1C155.312 195.1 154.769 195.247 154.3 195.54C153.845 195.819 153.618 196.178 153.618 196.618C153.618 197.029 153.779 197.366 154.102 197.63C154.424 197.879 154.908 198.085 155.554 198.246L157.182 198.664C158.282 198.943 159.11 199.361 159.668 199.918C160.225 200.461 160.504 201.128 160.504 201.92C160.504 202.609 160.306 203.218 159.91 203.746C159.514 204.259 158.978 204.655 158.304 204.934C157.629 205.213 156.881 205.352 156.06 205.352ZM171.242 205.352C170.42 205.352 169.687 205.191 169.042 204.868C168.396 204.545 167.898 204.105 167.546 203.548C167.194 202.976 167.018 202.331 167.018 201.612C167.018 200.424 167.465 199.5 168.36 198.84C169.254 198.165 170.384 197.828 171.748 197.828C172.422 197.828 173.046 197.901 173.618 198.048C174.204 198.195 174.652 198.363 174.96 198.554V197.872C174.96 197.036 174.666 196.369 174.08 195.87C173.493 195.357 172.752 195.1 171.858 195.1C171.227 195.1 170.648 195.239 170.12 195.518C169.592 195.782 169.174 196.156 168.866 196.64L167.458 195.584C167.898 194.909 168.499 194.381 169.262 194C170.039 193.619 170.897 193.428 171.836 193.428C173.361 193.428 174.556 193.831 175.422 194.638C176.302 195.43 176.742 196.515 176.742 197.894V205H174.96V203.394H174.872C174.549 203.937 174.065 204.399 173.42 204.78C172.774 205.161 172.048 205.352 171.242 205.352ZM171.418 203.702C172.048 203.702 172.635 203.541 173.178 203.218C173.72 202.895 174.153 202.463 174.476 201.92C174.798 201.377 174.96 200.783 174.96 200.138C174.608 199.903 174.175 199.713 173.662 199.566C173.148 199.419 172.606 199.346 172.034 199.346C171.007 199.346 170.23 199.559 169.702 199.984C169.188 200.409 168.932 200.959 168.932 201.634C168.932 202.25 169.166 202.749 169.636 203.13C170.105 203.511 170.699 203.702 171.418 203.702ZM184.456 193.78H186.238V195.43H186.326C186.649 194.858 187.133 194.381 187.778 194C188.424 193.619 189.106 193.428 189.824 193.428C190.646 193.428 191.357 193.626 191.958 194.022C192.574 194.418 193.014 194.946 193.278 195.606C193.674 194.946 194.195 194.418 194.84 194.022C195.5 193.626 196.263 193.428 197.128 193.428C198.419 193.428 199.387 193.824 200.032 194.616C200.692 195.393 201.022 196.457 201.022 197.806V205H199.174V198.092C199.174 197.051 198.962 196.295 198.536 195.826C198.111 195.357 197.48 195.122 196.644 195.122C196.087 195.122 195.581 195.283 195.126 195.606C194.672 195.929 194.312 196.361 194.048 196.904C193.799 197.447 193.674 198.033 193.674 198.664V205H191.804V198.114C191.804 197.058 191.592 196.295 191.166 195.826C190.741 195.357 190.118 195.122 189.296 195.122C188.739 195.122 188.233 195.291 187.778 195.628C187.324 195.951 186.964 196.391 186.7 196.948C186.451 197.491 186.326 198.077 186.326 198.708V205H184.456V193.78ZM207.776 205.352C206.427 205.352 205.393 204.956 204.674 204.164C203.97 203.372 203.618 202.265 203.618 200.842V193.78H205.488V200.556C205.488 201.627 205.73 202.411 206.214 202.91C206.698 203.409 207.351 203.658 208.172 203.658C208.803 203.658 209.36 203.489 209.844 203.152C210.343 202.815 210.724 202.375 210.988 201.832C211.267 201.289 211.406 200.717 211.406 200.116V193.78H213.276V205H211.494V203.372H211.406C211.098 203.929 210.607 204.399 209.932 204.78C209.258 205.161 208.539 205.352 207.776 205.352ZM219.847 205.352C218.644 205.352 217.64 205.073 216.833 204.516C216.026 203.944 215.454 203.218 215.117 202.338L216.789 201.59C217.068 202.265 217.478 202.785 218.021 203.152C218.578 203.519 219.187 203.702 219.847 203.702C220.551 203.702 221.152 203.563 221.651 203.284C222.15 202.991 222.399 202.58 222.399 202.052C222.399 201.583 222.201 201.209 221.805 200.93C221.409 200.637 220.786 200.387 219.935 200.182L218.571 199.83C217.676 199.61 216.943 199.236 216.371 198.708C215.799 198.18 215.513 197.498 215.513 196.662C215.513 196.017 215.704 195.452 216.085 194.968C216.481 194.469 217.002 194.088 217.647 193.824C218.292 193.56 218.989 193.428 219.737 193.428C220.72 193.428 221.592 193.641 222.355 194.066C223.132 194.491 223.682 195.085 224.005 195.848L222.377 196.596C221.878 195.599 220.991 195.1 219.715 195.1C219.099 195.1 218.556 195.247 218.087 195.54C217.632 195.819 217.405 196.178 217.405 196.618C217.405 197.029 217.566 197.366 217.889 197.63C218.212 197.879 218.696 198.085 219.341 198.246L220.969 198.664C222.069 198.943 222.898 199.361 223.455 199.918C224.012 200.461 224.291 201.128 224.291 201.92C224.291 202.609 224.093 203.218 223.697 203.746C223.301 204.259 222.766 204.655 222.091 204.934C221.416 205.213 220.668 205.352 219.847 205.352ZM230.534 205.176C230.079 205.176 229.654 205.103 229.258 204.956C228.877 204.809 228.554 204.611 228.29 204.362C227.997 204.083 227.777 203.761 227.63 203.394C227.483 203.027 227.41 202.58 227.41 202.052V195.474H225.452V193.78H227.41V190.612H229.28V193.78H232.008V195.474H229.28V201.59C229.28 202.206 229.397 202.661 229.632 202.954C229.911 203.277 230.314 203.438 230.842 203.438C231.267 203.438 231.678 203.313 232.074 203.064V204.89C231.854 204.993 231.627 205.066 231.392 205.11C231.172 205.154 230.886 205.176 230.534 205.176ZM235.511 205.132C235.115 205.132 234.777 205 234.499 204.736C234.235 204.457 234.103 204.12 234.103 203.724C234.103 203.343 234.235 203.02 234.499 202.756C234.777 202.477 235.115 202.338 235.511 202.338C235.892 202.338 236.215 202.477 236.479 202.756C236.757 203.02 236.897 203.343 236.897 203.724C236.897 204.12 236.757 204.457 236.479 204.736C236.215 205 235.892 205.132 235.511 205.132Z" fill="#444444"/>
<path d="M104.5 247L106.408 252.873L112.584 252.873L107.588 256.503L109.496 262.377L104.5 258.747L99.5038 262.377L101.412 256.503L96.416 252.873L102.592 252.873L104.5 247Z" fill="#5F6368"/>
<path d="M130.5 247L132.408 252.873L138.584 252.873L133.588 256.503L135.496 262.377L130.5 258.747L125.504 262.377L127.412 256.503L122.416 252.873L128.592 252.873L130.5 247Z" fill="#5F6368"/>
<path d="M156.5 247L158.408 252.873L164.584 252.873L159.588 256.503L161.496 262.377L156.5 258.747L151.504 262.377L153.412 256.503L148.416 252.873L154.592 252.873L156.5 247Z" fill="#5F6368"/>
<path d="M182.5 247L184.408 252.873L190.584 252.873L185.588 256.503L187.496 262.377L182.5 258.747L177.504 262.377L179.412 256.503L174.416 252.873L180.592 252.873L182.5 247Z" fill="#5F6368"/>
<path d="M208.5 247L210.408 252.873L216.584 252.873L211.588 256.503L213.496 262.377L208.5 258.747L203.504 262.377L205.412 256.503L200.416 252.873L206.592 252.873L208.5 247Z" fill="#5F6368"/>
</g>
<defs>
<linearGradient id="paint0_linear" x1="156" y1="4.65484e-07" x2="156" y2="20.5" gradientUnits="userSpaceOnUse">
<stop stop-color="#F3F3F3"/>
<stop offset="1" stop-color="#F3F3F3" stop-opacity="0"/>
</linearGradient>
<linearGradient id="paint1_linear" x1="156" y1="4.65484e-07" x2="156" y2="20.5" gradientUnits="userSpaceOnUse">
<stop stop-color="#F3F3F3"/>
<stop offset="1" stop-color="#F3F3F3" stop-opacity="0"/>
</linearGradient>
<linearGradient id="paint2_linear" x1="436" y1="455" x2="436" y2="475.5" gradientUnits="userSpaceOnUse">
<stop stop-color="#F3F3F3"/>
<stop offset="1" stop-color="#F3F3F3" stop-opacity="0"/>
</linearGradient>
<linearGradient id="paint3_linear" x1="436" y1="455" x2="436" y2="475.5" gradientUnits="userSpaceOnUse">
<stop stop-color="#F3F3F3"/>
<stop offset="1" stop-color="#F3F3F3" stop-opacity="0"/>
</linearGradient>
<clipPath id="clip0">
<rect width="312" height="393" fill="white"/>
</clipPath>
</defs>
</svg>
