<svg width="312" height="393" viewBox="0 0 312 393" fill="none" xmlns="http://www.w3.org/2000/svg">
<g clip-path="url(#clip0)">
<rect width="312" height="393" fill="white"/>
<rect width="312" height="393" rx="6" fill="#F3F3F3"/>
<rect x="17" y="-30" width="278" height="61" rx="5" fill="#F3F3F3" stroke="#AFAFAF" stroke-width="2"/>
<rect x="17" y="363" width="278" height="61" rx="5" fill="#F3F3F3" stroke="#AFAFAF" stroke-width="2"/>
<rect x="17" y="51" width="278" height="290" rx="5" fill="#F3F3F3" stroke="#444444" stroke-width="2"/>
<rect x="44" y="127" width="67" height="29" fill="#FBBC05"/>
<rect x="143" y="184" width="101" height="29" fill="#FBBC05"/>
<path d="M58.0524 149.352C56.5711 149.352 55.2071 148.993 53.9604 148.274C52.7137 147.555 51.7237 146.565 50.9904 145.304C50.2571 144.043 49.8904 142.649 49.8904 141.124C49.8904 139.599 50.2571 138.205 50.9904 136.944C51.7237 135.683 52.7137 134.693 53.9604 133.974C55.2071 133.255 56.5711 132.896 58.0524 132.896C59.2111 132.896 60.2964 133.101 61.3084 133.512C62.3351 133.923 63.1784 134.502 63.8384 135.25L62.4964 136.592C61.9977 135.976 61.3597 135.507 60.5824 135.184C59.8051 134.847 58.9691 134.678 58.0744 134.678C56.9597 134.678 55.9184 134.949 54.9504 135.492C53.9971 136.02 53.2271 136.775 52.6404 137.758C52.0684 138.726 51.7824 139.848 51.7824 141.124C51.7824 142.4 52.0684 143.529 52.6404 144.512C53.2271 145.48 54.0044 146.235 54.9724 146.778C55.9404 147.306 56.9744 147.57 58.0744 147.57C59.1304 147.57 60.0104 147.409 60.7144 147.086C61.4331 146.749 62.0491 146.309 62.5624 145.766C62.9437 145.355 63.2517 144.864 63.4864 144.292C63.7211 143.705 63.8677 143.06 63.9264 142.356H58.0964V140.618H65.6644C65.7377 141.029 65.7744 141.41 65.7744 141.762C65.7744 142.73 65.6204 143.676 65.3124 144.6C65.0044 145.509 64.5131 146.309 63.8384 146.998C62.3864 148.567 60.4577 149.352 58.0524 149.352ZM67.7532 137.78H69.5352V139.584H69.6232C69.8432 138.968 70.2685 138.462 70.8992 138.066C71.5299 137.655 72.1899 137.45 72.8792 137.45C73.3925 137.45 73.8325 137.523 74.1992 137.67V139.694C73.7299 139.459 73.2019 139.342 72.6152 139.342C72.0725 139.342 71.5739 139.496 71.1192 139.804C70.6645 140.112 70.2979 140.53 70.0192 141.058C69.7552 141.571 69.6232 142.129 69.6232 142.73V149H67.7532V137.78ZM80.3312 149.352C79.2605 149.352 78.2998 149.095 77.4492 148.582C76.5985 148.069 75.9312 147.365 75.4472 146.47C74.9778 145.561 74.7432 144.541 74.7432 143.412C74.7432 142.327 74.9632 141.329 75.4032 140.42C75.8578 139.511 76.4958 138.785 77.3172 138.242C78.1385 137.699 79.0918 137.428 80.1772 137.428C81.2772 137.428 82.2305 137.677 83.0372 138.176C83.8438 138.66 84.4598 139.335 84.8852 140.2C85.3252 141.065 85.5452 142.055 85.5452 143.17C85.5452 143.39 85.5232 143.581 85.4792 143.742H76.6132C76.6572 144.593 76.8625 145.311 77.2292 145.898C77.5958 146.485 78.0578 146.925 78.6152 147.218C79.1872 147.511 79.7812 147.658 80.3972 147.658C81.8345 147.658 82.9418 146.983 83.7192 145.634L85.3032 146.404C84.8192 147.313 84.1592 148.032 83.3232 148.56C82.5018 149.088 81.5045 149.352 80.3312 149.352ZM83.5652 142.202C83.5358 141.733 83.4038 141.263 83.1692 140.794C82.9345 140.325 82.5605 139.929 82.0472 139.606C81.5485 139.283 80.9178 139.122 80.1552 139.122C79.2752 139.122 78.5272 139.408 77.9112 139.98C77.3098 140.537 76.9138 141.278 76.7232 142.202H83.5652ZM91.4271 149.352C90.6057 149.352 89.8724 149.191 89.2271 148.868C88.5817 148.545 88.0831 148.105 87.7311 147.548C87.3791 146.976 87.2031 146.331 87.2031 145.612C87.2031 144.424 87.6504 143.5 88.5451 142.84C89.4397 142.165 90.5691 141.828 91.9331 141.828C92.6077 141.828 93.2311 141.901 93.8031 142.048C94.3897 142.195 94.8371 142.363 95.1451 142.554V141.872C95.1451 141.036 94.8517 140.369 94.2651 139.87C93.6784 139.357 92.9377 139.1 92.0431 139.1C91.4124 139.1 90.8331 139.239 90.3051 139.518C89.7771 139.782 89.3591 140.156 89.0511 140.64L87.6431 139.584C88.0831 138.909 88.6844 138.381 89.4471 138C90.2244 137.619 91.0824 137.428 92.0211 137.428C93.5464 137.428 94.7417 137.831 95.6071 138.638C96.4871 139.43 96.9271 140.515 96.9271 141.894V149H95.1451V147.394H95.0571C94.7344 147.937 94.2504 148.399 93.6051 148.78C92.9597 149.161 92.2337 149.352 91.4271 149.352ZM91.6031 147.702C92.2337 147.702 92.8204 147.541 93.3631 147.218C93.9057 146.895 94.3384 146.463 94.6611 145.92C94.9837 145.377 95.1451 144.783 95.1451 144.138C94.7931 143.903 94.3604 143.713 93.8471 143.566C93.3337 143.419 92.7911 143.346 92.2191 143.346C91.1924 143.346 90.4151 143.559 89.8871 143.984C89.3737 144.409 89.1171 144.959 89.1171 145.634C89.1171 146.25 89.3517 146.749 89.8211 147.13C90.2904 147.511 90.8844 147.702 91.6031 147.702ZM103.626 149.176C103.171 149.176 102.746 149.103 102.35 148.956C101.968 148.809 101.646 148.611 101.382 148.362C101.088 148.083 100.868 147.761 100.722 147.394C100.575 147.027 100.502 146.58 100.502 146.052V139.474H98.5437V137.78H100.502V134.612H102.372V137.78H105.1V139.474H102.372V145.59C102.372 146.206 102.489 146.661 102.724 146.954C103.002 147.277 103.406 147.438 103.934 147.438C104.359 147.438 104.77 147.313 105.166 147.064V148.89C104.946 148.993 104.718 149.066 104.484 149.11C104.264 149.154 103.978 149.176 103.626 149.176ZM123.295 149.352C122.444 149.352 121.674 149.161 120.985 148.78C120.31 148.384 119.804 147.907 119.467 147.35H119.379V149H117.597V133.248H119.467V137.89L119.379 139.452H119.467C119.804 138.88 120.31 138.403 120.985 138.022C121.674 137.626 122.444 137.428 123.295 137.428C124.292 137.428 125.202 137.685 126.023 138.198C126.844 138.711 127.49 139.423 127.959 140.332C128.428 141.241 128.663 142.261 128.663 143.39C128.663 144.534 128.428 145.561 127.959 146.47C127.49 147.365 126.844 148.069 126.023 148.582C125.202 149.095 124.292 149.352 123.295 149.352ZM123.075 147.658C123.72 147.658 124.329 147.482 124.901 147.13C125.473 146.778 125.928 146.279 126.265 145.634C126.617 144.974 126.793 144.226 126.793 143.39C126.793 142.554 126.617 141.813 126.265 141.168C125.928 140.508 125.473 140.002 124.901 139.65C124.329 139.298 123.72 139.122 123.075 139.122C122.43 139.122 121.821 139.298 121.249 139.65C120.677 140.002 120.222 140.501 119.885 141.146C119.548 141.791 119.379 142.539 119.379 143.39C119.379 144.241 119.548 144.989 119.885 145.634C120.222 146.279 120.677 146.778 121.249 147.13C121.821 147.482 122.43 147.658 123.075 147.658ZM135.825 149.352C134.755 149.352 133.794 149.095 132.943 148.582C132.093 148.069 131.425 147.365 130.941 146.47C130.472 145.561 130.237 144.541 130.237 143.412C130.237 142.327 130.457 141.329 130.897 140.42C131.352 139.511 131.99 138.785 132.811 138.242C133.633 137.699 134.586 137.428 135.671 137.428C136.771 137.428 137.725 137.677 138.531 138.176C139.338 138.66 139.954 139.335 140.379 140.2C140.819 141.065 141.039 142.055 141.039 143.17C141.039 143.39 141.017 143.581 140.973 143.742H132.107C132.151 144.593 132.357 145.311 132.723 145.898C133.09 146.485 133.552 146.925 134.109 147.218C134.681 147.511 135.275 147.658 135.891 147.658C137.329 147.658 138.436 146.983 139.213 145.634L140.797 146.404C140.313 147.313 139.653 148.032 138.817 148.56C137.996 149.088 136.999 149.352 135.825 149.352ZM139.059 142.202C139.03 141.733 138.898 141.263 138.663 140.794C138.429 140.325 138.055 139.929 137.541 139.606C137.043 139.283 136.412 139.122 135.649 139.122C134.769 139.122 134.021 139.408 133.405 139.98C132.804 140.537 132.408 141.278 132.217 142.202H139.059ZM148.329 149.352C147.259 149.352 146.298 149.095 145.447 148.582C144.597 148.069 143.929 147.365 143.445 146.47C142.976 145.561 142.741 144.541 142.741 143.412C142.741 142.327 142.961 141.329 143.401 140.42C143.856 139.511 144.494 138.785 145.315 138.242C146.137 137.699 147.09 137.428 148.175 137.428C149.275 137.428 150.229 137.677 151.035 138.176C151.842 138.66 152.458 139.335 152.883 140.2C153.323 141.065 153.543 142.055 153.543 143.17C153.543 143.39 153.521 143.581 153.477 143.742H144.611C144.655 144.593 144.861 145.311 145.227 145.898C145.594 146.485 146.056 146.925 146.613 147.218C147.185 147.511 147.779 147.658 148.395 147.658C149.833 147.658 150.94 146.983 151.717 145.634L153.301 146.404C152.817 147.313 152.157 148.032 151.321 148.56C150.5 149.088 149.503 149.352 148.329 149.352ZM151.563 142.202C151.534 141.733 151.402 141.263 151.167 140.794C150.933 140.325 150.559 139.929 150.045 139.606C149.547 139.283 148.916 139.122 148.153 139.122C147.273 139.122 146.525 139.408 145.909 139.98C145.308 140.537 144.912 141.278 144.721 142.202H151.563ZM155.732 137.78H157.514V139.584H157.602C157.822 138.968 158.247 138.462 158.878 138.066C159.508 137.655 160.168 137.45 160.858 137.45C161.371 137.45 161.811 137.523 162.178 137.67V139.694C161.708 139.459 161.18 139.342 160.594 139.342C160.051 139.342 159.552 139.496 159.098 139.804C158.643 140.112 158.276 140.53 157.998 141.058C157.734 141.571 157.602 142.129 157.602 142.73V149H155.732V137.78ZM173.011 149.352C171.808 149.352 170.804 149.073 169.997 148.516C169.19 147.944 168.618 147.218 168.281 146.338L169.953 145.59C170.232 146.265 170.642 146.785 171.185 147.152C171.742 147.519 172.351 147.702 173.011 147.702C173.715 147.702 174.316 147.563 174.815 147.284C175.314 146.991 175.563 146.58 175.563 146.052C175.563 145.583 175.365 145.209 174.969 144.93C174.573 144.637 173.95 144.387 173.099 144.182L171.735 143.83C170.84 143.61 170.107 143.236 169.535 142.708C168.963 142.18 168.677 141.498 168.677 140.662C168.677 140.017 168.868 139.452 169.249 138.968C169.645 138.469 170.166 138.088 170.811 137.824C171.456 137.56 172.153 137.428 172.901 137.428C173.884 137.428 174.756 137.641 175.519 138.066C176.296 138.491 176.846 139.085 177.169 139.848L175.541 140.596C175.042 139.599 174.155 139.1 172.879 139.1C172.263 139.1 171.72 139.247 171.251 139.54C170.796 139.819 170.569 140.178 170.569 140.618C170.569 141.029 170.73 141.366 171.053 141.63C171.376 141.879 171.86 142.085 172.505 142.246L174.133 142.664C175.233 142.943 176.062 143.361 176.619 143.918C177.176 144.461 177.455 145.128 177.455 145.92C177.455 146.609 177.257 147.218 176.861 147.746C176.465 148.259 175.93 148.655 175.255 148.934C174.58 149.213 173.832 149.352 173.011 149.352ZM184.595 149.352C183.524 149.352 182.564 149.095 181.713 148.582C180.862 148.069 180.195 147.365 179.711 146.47C179.242 145.561 179.007 144.541 179.007 143.412C179.007 142.327 179.227 141.329 179.667 140.42C180.122 139.511 180.76 138.785 181.581 138.242C182.402 137.699 183.356 137.428 184.441 137.428C185.541 137.428 186.494 137.677 187.301 138.176C188.108 138.66 188.724 139.335 189.149 140.2C189.589 141.065 189.809 142.055 189.809 143.17C189.809 143.39 189.787 143.581 189.743 143.742H180.877C180.921 144.593 181.126 145.311 181.493 145.898C181.86 146.485 182.322 146.925 182.879 147.218C183.451 147.511 184.045 147.658 184.661 147.658C186.098 147.658 187.206 146.983 187.983 145.634L189.567 146.404C189.083 147.313 188.423 148.032 187.587 148.56C186.766 149.088 185.768 149.352 184.595 149.352ZM187.829 142.202C187.8 141.733 187.668 141.263 187.433 140.794C187.198 140.325 186.824 139.929 186.311 139.606C185.812 139.283 185.182 139.122 184.419 139.122C183.539 139.122 182.791 139.408 182.175 139.98C181.574 140.537 181.178 141.278 180.987 142.202H187.829ZM191.997 133.248H193.867V149H191.997V133.248ZM201.525 149.352C200.454 149.352 199.493 149.095 198.643 148.582C197.792 148.069 197.125 147.365 196.641 146.47C196.171 145.561 195.937 144.541 195.937 143.412C195.937 142.327 196.157 141.329 196.597 140.42C197.051 139.511 197.689 138.785 198.511 138.242C199.332 137.699 200.285 137.428 201.371 137.428C202.471 137.428 203.424 137.677 204.231 138.176C205.037 138.66 205.653 139.335 206.079 140.2C206.519 141.065 206.739 142.055 206.739 143.17C206.739 143.39 206.717 143.581 206.673 143.742H197.807C197.851 144.593 198.056 145.311 198.423 145.898C198.789 146.485 199.251 146.925 199.809 147.218C200.381 147.511 200.975 147.658 201.591 147.658C203.028 147.658 204.135 146.983 204.913 145.634L206.497 146.404C206.013 147.313 205.353 148.032 204.517 148.56C203.695 149.088 202.698 149.352 201.525 149.352ZM204.759 142.202C204.729 141.733 204.597 141.263 204.363 140.794C204.128 140.325 203.754 139.929 203.241 139.606C202.742 139.283 202.111 139.122 201.349 139.122C200.469 139.122 199.721 139.408 199.105 139.98C198.503 140.537 198.107 141.278 197.917 142.202H204.759ZM214.116 149.352C213.031 149.352 212.056 149.095 211.19 148.582C210.325 148.054 209.65 147.343 209.166 146.448C208.682 145.539 208.44 144.519 208.44 143.39C208.44 142.261 208.682 141.241 209.166 140.332C209.65 139.423 210.325 138.711 211.19 138.198C212.056 137.685 213.031 137.428 214.116 137.428C215.334 137.428 216.353 137.714 217.174 138.286C218.01 138.843 218.604 139.591 218.956 140.53L217.262 141.234C216.984 140.545 216.566 140.024 216.008 139.672C215.466 139.305 214.806 139.122 214.028 139.122C213.368 139.122 212.752 139.305 212.18 139.672C211.608 140.024 211.146 140.523 210.794 141.168C210.457 141.813 210.288 142.554 210.288 143.39C210.288 144.226 210.457 144.967 210.794 145.612C211.146 146.257 211.608 146.763 212.18 147.13C212.752 147.482 213.368 147.658 214.028 147.658C214.82 147.658 215.502 147.475 216.074 147.108C216.646 146.741 217.072 146.221 217.35 145.546L219.022 146.25C218.641 147.174 218.025 147.922 217.174 148.494C216.338 149.066 215.319 149.352 214.116 149.352ZM225.249 149.176C224.794 149.176 224.369 149.103 223.973 148.956C223.591 148.809 223.269 148.611 223.005 148.362C222.711 148.083 222.491 147.761 222.345 147.394C222.198 147.027 222.125 146.58 222.125 146.052V139.474H220.167V137.78H222.125V134.612H223.995V137.78H226.723V139.474H223.995V145.59C223.995 146.206 224.112 146.661 224.347 146.954C224.625 147.277 225.029 147.438 225.557 147.438C225.982 147.438 226.393 147.313 226.789 147.064V148.89C226.569 148.993 226.341 149.066 226.107 149.11C225.887 149.154 225.601 149.176 225.249 149.176ZM230.201 135.712C229.834 135.712 229.519 135.58 229.255 135.316C228.991 135.052 228.859 134.737 228.859 134.37C228.859 134.003 228.991 133.695 229.255 133.446C229.519 133.182 229.834 133.05 230.201 133.05C230.568 133.05 230.883 133.182 231.147 133.446C231.411 133.695 231.543 134.003 231.543 134.37C231.543 134.737 231.411 135.052 231.147 135.316C230.898 135.58 230.582 135.712 230.201 135.712ZM229.277 137.78H231.125V149H229.277V137.78ZM239.126 149.352C238.026 149.352 237.036 149.088 236.156 148.56C235.276 148.032 234.587 147.313 234.088 146.404C233.604 145.495 233.362 144.49 233.362 143.39C233.362 142.29 233.604 141.285 234.088 140.376C234.587 139.467 235.276 138.748 236.156 138.22C237.036 137.692 238.026 137.428 239.126 137.428C240.226 137.428 241.216 137.692 242.096 138.22C242.976 138.748 243.658 139.467 244.142 140.376C244.641 141.285 244.89 142.29 244.89 143.39C244.89 144.49 244.641 145.495 244.142 146.404C243.658 147.313 242.976 148.032 242.096 148.56C241.216 149.088 240.226 149.352 239.126 149.352ZM239.126 147.658C239.816 147.658 240.454 147.489 241.04 147.152C241.642 146.8 242.118 146.301 242.47 145.656C242.837 145.011 243.02 144.255 243.02 143.39C243.02 142.525 242.837 141.769 242.47 141.124C242.118 140.479 241.642 139.987 241.04 139.65C240.454 139.298 239.816 139.122 239.126 139.122C238.437 139.122 237.792 139.298 237.19 139.65C236.589 139.987 236.105 140.479 235.738 141.124C235.386 141.769 235.21 142.525 235.21 143.39C235.21 144.255 235.386 145.011 235.738 145.656C236.105 146.301 236.589 146.8 237.19 147.152C237.792 147.489 238.437 147.658 239.126 147.658ZM246.847 137.78H248.629V139.43H248.717C249.025 138.873 249.516 138.403 250.191 138.022C250.866 137.626 251.584 137.428 252.347 137.428C253.696 137.428 254.723 137.824 255.427 138.616C256.146 139.393 256.505 140.457 256.505 141.806V149H254.635V142.092C254.635 141.051 254.386 140.295 253.887 139.826C253.388 139.357 252.706 139.122 251.841 139.122C251.24 139.122 250.697 139.291 250.213 139.628C249.744 139.965 249.377 140.413 249.113 140.97C248.849 141.513 248.717 142.085 248.717 142.686V149H246.847V137.78ZM258.915 150.826L260.081 149C259.817 148.956 259.582 148.817 259.377 148.582C259.172 148.347 259.069 148.061 259.069 147.724C259.069 147.343 259.201 147.02 259.465 146.756C259.744 146.477 260.081 146.338 260.477 146.338C260.873 146.338 261.203 146.477 261.467 146.756C261.746 147.02 261.885 147.343 261.885 147.724C261.885 147.973 261.834 148.215 261.731 148.45C261.628 148.67 261.474 148.927 261.269 149.22L259.817 151.42L258.915 150.826ZM73.3005 177.176C72.8459 177.176 72.4205 177.103 72.0245 176.956C71.6432 176.809 71.3205 176.611 71.0565 176.362C70.7632 176.083 70.5432 175.761 70.3965 175.394C70.2499 175.027 70.1765 174.58 70.1765 174.052V167.474H68.2185V165.78H70.1765V162.612H72.0465V165.78H74.7745V167.474H72.0465V173.59C72.0465 174.206 72.1639 174.661 72.3985 174.954C72.6772 175.277 73.0805 175.438 73.6085 175.438C74.0339 175.438 74.4445 175.313 74.8405 175.064V176.89C74.6205 176.993 74.3932 177.066 74.1585 177.11C73.9385 177.154 73.6525 177.176 73.3005 177.176ZM77.1526 161.248H79.0226V165.89L78.9346 167.43H79.0226C79.3306 166.858 79.8146 166.381 80.4746 166C81.1493 165.619 81.8826 165.428 82.6746 165.428C84.0386 165.428 85.0799 165.831 85.7986 166.638C86.5173 167.43 86.8766 168.486 86.8766 169.806V177H85.0066V170.092C85.0066 169.08 84.7499 168.332 84.2366 167.848C83.7233 167.364 83.0559 167.122 82.2346 167.122C81.6479 167.122 81.1053 167.298 80.6066 167.65C80.1226 168.002 79.7339 168.457 79.4406 169.014C79.1619 169.571 79.0226 170.151 79.0226 170.752V177H77.1526V161.248ZM94.5646 177.352C93.4939 177.352 92.5332 177.095 91.6826 176.582C90.8319 176.069 90.1646 175.365 89.6806 174.47C89.2112 173.561 88.9766 172.541 88.9766 171.412C88.9766 170.327 89.1966 169.329 89.6366 168.42C90.0912 167.511 90.7292 166.785 91.5506 166.242C92.3719 165.699 93.3252 165.428 94.4106 165.428C95.5106 165.428 96.4639 165.677 97.2706 166.176C98.0772 166.66 98.6932 167.335 99.1186 168.2C99.5586 169.065 99.7786 170.055 99.7786 171.17C99.7786 171.39 99.7566 171.581 99.7126 171.742H90.8466C90.8906 172.593 91.0959 173.311 91.4626 173.898C91.8292 174.485 92.2912 174.925 92.8486 175.218C93.4206 175.511 94.0146 175.658 94.6306 175.658C96.0679 175.658 97.1752 174.983 97.9526 173.634L99.5366 174.404C99.0526 175.313 98.3926 176.032 97.5566 176.56C96.7352 177.088 95.7379 177.352 94.5646 177.352ZM97.7986 170.202C97.7692 169.733 97.6372 169.263 97.4026 168.794C97.1679 168.325 96.7939 167.929 96.2806 167.606C95.7819 167.283 95.1512 167.122 94.3886 167.122C93.5086 167.122 92.7606 167.408 92.1446 167.98C91.5432 168.537 91.1472 169.278 90.9566 170.202H97.7986ZM112.008 182.104C110.688 182.104 109.596 181.796 108.73 181.18C107.88 180.564 107.308 179.823 107.014 178.958L108.708 178.232C108.958 178.877 109.368 179.398 109.94 179.794C110.527 180.205 111.216 180.41 112.008 180.41C113.167 180.41 114.062 180.073 114.692 179.398C115.338 178.723 115.66 177.77 115.66 176.538V175.284H115.572C115.206 175.856 114.685 176.325 114.01 176.692C113.35 177.044 112.595 177.22 111.744 177.22C110.776 177.22 109.889 176.971 109.082 176.472C108.29 175.973 107.66 175.277 107.19 174.382C106.721 173.487 106.486 172.468 106.486 171.324C106.486 170.195 106.721 169.183 107.19 168.288C107.66 167.379 108.29 166.675 109.082 166.176C109.889 165.677 110.776 165.428 111.744 165.428C112.595 165.428 113.35 165.611 114.01 165.978C114.685 166.33 115.206 166.799 115.572 167.386H115.66V165.78H117.442V176.56C117.442 178.364 116.944 179.735 115.946 180.674C114.949 181.627 113.636 182.104 112.008 182.104ZM112.008 175.526C112.683 175.526 113.292 175.357 113.834 175.02C114.392 174.683 114.832 174.199 115.154 173.568C115.492 172.937 115.66 172.189 115.66 171.324C115.66 170.444 115.492 169.689 115.154 169.058C114.832 168.427 114.392 167.951 113.834 167.628C113.292 167.291 112.683 167.122 112.008 167.122C111.334 167.122 110.718 167.291 110.16 167.628C109.603 167.965 109.156 168.449 108.818 169.08C108.496 169.711 108.334 170.459 108.334 171.324C108.334 172.189 108.496 172.945 108.818 173.59C109.156 174.221 109.603 174.705 110.16 175.042C110.718 175.365 111.334 175.526 112.008 175.526ZM120.207 165.78H121.989V167.584H122.077C122.297 166.968 122.723 166.462 123.353 166.066C123.984 165.655 124.644 165.45 125.333 165.45C125.847 165.45 126.287 165.523 126.653 165.67V167.694C126.184 167.459 125.656 167.342 125.069 167.342C124.527 167.342 124.028 167.496 123.573 167.804C123.119 168.112 122.752 168.53 122.473 169.058C122.209 169.571 122.077 170.129 122.077 170.73V177H120.207V165.78ZM129.557 163.712C129.191 163.712 128.875 163.58 128.611 163.316C128.347 163.052 128.215 162.737 128.215 162.37C128.215 162.003 128.347 161.695 128.611 161.446C128.875 161.182 129.191 161.05 129.557 161.05C129.924 161.05 130.239 161.182 130.503 161.446C130.767 161.695 130.899 162.003 130.899 162.37C130.899 162.737 130.767 163.052 130.503 163.316C130.254 163.58 129.939 163.712 129.557 163.712ZM128.633 165.78H130.481V177H128.633V165.78ZM133.42 161.248H135.29V177H133.42V161.248ZM138.061 161.248H139.931V177H138.061V161.248ZM147.588 177.352C146.517 177.352 145.557 177.095 144.706 176.582C143.855 176.069 143.188 175.365 142.704 174.47C142.235 173.561 142 172.541 142 171.412C142 170.327 142.22 169.329 142.66 168.42C143.115 167.511 143.753 166.785 144.574 166.242C145.395 165.699 146.349 165.428 147.434 165.428C148.534 165.428 149.487 165.677 150.294 166.176C151.101 166.66 151.717 167.335 152.142 168.2C152.582 169.065 152.802 170.055 152.802 171.17C152.802 171.39 152.78 171.581 152.736 171.742H143.87C143.914 172.593 144.119 173.311 144.486 173.898C144.853 174.485 145.315 174.925 145.872 175.218C146.444 175.511 147.038 175.658 147.654 175.658C149.091 175.658 150.199 174.983 150.976 173.634L152.56 174.404C152.076 175.313 151.416 176.032 150.58 176.56C149.759 177.088 148.761 177.352 147.588 177.352ZM150.822 170.202C150.793 169.733 150.661 169.263 150.426 168.794C150.191 168.325 149.817 167.929 149.304 167.606C148.805 167.283 148.175 167.122 147.412 167.122C146.532 167.122 145.784 167.408 145.168 167.98C144.567 168.537 144.171 169.278 143.98 170.202H150.822ZM159.85 177.352C158.853 177.352 157.943 177.095 157.122 176.582C156.315 176.069 155.677 175.365 155.208 174.47C154.739 173.561 154.504 172.534 154.504 171.39C154.504 170.261 154.739 169.241 155.208 168.332C155.677 167.423 156.315 166.711 157.122 166.198C157.943 165.685 158.853 165.428 159.85 165.428C160.715 165.428 161.485 165.626 162.16 166.022C162.835 166.403 163.348 166.88 163.7 167.452H163.788L163.7 165.89V161.248H165.57V177H163.788V175.35H163.7C163.348 175.907 162.835 176.384 162.16 176.78C161.485 177.161 160.715 177.352 159.85 177.352ZM160.07 175.658C160.73 175.658 161.339 175.482 161.896 175.13C162.468 174.778 162.923 174.279 163.26 173.634C163.612 172.989 163.788 172.241 163.788 171.39C163.788 170.539 163.612 169.791 163.26 169.146C162.923 168.501 162.468 168.002 161.896 167.65C161.339 167.298 160.73 167.122 160.07 167.122C159.425 167.122 158.816 167.298 158.244 167.65C157.672 168.002 157.21 168.508 156.858 169.168C156.521 169.813 156.352 170.554 156.352 171.39C156.352 172.226 156.521 172.974 156.858 173.634C157.21 174.279 157.672 174.778 158.244 175.13C158.816 175.482 159.425 175.658 160.07 175.658ZM178.528 177.352C177.442 177.352 176.467 177.095 175.602 176.582C174.736 176.054 174.062 175.343 173.578 174.448C173.094 173.539 172.852 172.519 172.852 171.39C172.852 170.261 173.094 169.241 173.578 168.332C174.062 167.423 174.736 166.711 175.602 166.198C176.467 165.685 177.442 165.428 178.528 165.428C179.745 165.428 180.764 165.714 181.586 166.286C182.422 166.843 183.016 167.591 183.368 168.53L181.674 169.234C181.395 168.545 180.977 168.024 180.42 167.672C179.877 167.305 179.217 167.122 178.44 167.122C177.78 167.122 177.164 167.305 176.592 167.672C176.02 168.024 175.558 168.523 175.206 169.168C174.868 169.813 174.7 170.554 174.7 171.39C174.7 172.226 174.868 172.967 175.206 173.612C175.558 174.257 176.02 174.763 176.592 175.13C177.164 175.482 177.78 175.658 178.44 175.658C179.232 175.658 179.914 175.475 180.486 175.108C181.058 174.741 181.483 174.221 181.762 173.546L183.434 174.25C183.052 175.174 182.436 175.922 181.586 176.494C180.75 177.066 179.73 177.352 178.528 177.352ZM185.455 161.248H187.325V165.89L187.237 167.43H187.325C187.633 166.858 188.117 166.381 188.777 166C189.452 165.619 190.185 165.428 190.977 165.428C192.341 165.428 193.383 165.831 194.101 166.638C194.82 167.43 195.179 168.486 195.179 169.806V177H193.309V170.092C193.309 169.08 193.053 168.332 192.539 167.848C192.026 167.364 191.359 167.122 190.537 167.122C189.951 167.122 189.408 167.298 188.909 167.65C188.425 168.002 188.037 168.457 187.743 169.014C187.465 169.571 187.325 170.151 187.325 170.752V177H185.455V161.248ZM202.867 177.352C201.797 177.352 200.836 177.095 199.985 176.582C199.135 176.069 198.467 175.365 197.983 174.47C197.514 173.561 197.279 172.541 197.279 171.412C197.279 170.327 197.499 169.329 197.939 168.42C198.394 167.511 199.032 166.785 199.853 166.242C200.675 165.699 201.628 165.428 202.713 165.428C203.813 165.428 204.767 165.677 205.573 166.176C206.38 166.66 206.996 167.335 207.421 168.2C207.861 169.065 208.081 170.055 208.081 171.17C208.081 171.39 208.059 171.581 208.015 171.742H199.149C199.193 172.593 199.399 173.311 199.765 173.898C200.132 174.485 200.594 174.925 201.151 175.218C201.723 175.511 202.317 175.658 202.933 175.658C204.371 175.658 205.478 174.983 206.255 173.634L207.839 174.404C207.355 175.313 206.695 176.032 205.859 176.56C205.038 177.088 204.041 177.352 202.867 177.352ZM206.101 170.202C206.072 169.733 205.94 169.263 205.705 168.794C205.471 168.325 205.097 167.929 204.583 167.606C204.085 167.283 203.454 167.122 202.691 167.122C201.811 167.122 201.063 167.408 200.447 167.98C199.846 168.537 199.45 169.278 199.259 170.202H206.101ZM215.371 177.352C214.301 177.352 213.34 177.095 212.489 176.582C211.639 176.069 210.971 175.365 210.487 174.47C210.018 173.561 209.783 172.541 209.783 171.412C209.783 170.327 210.003 169.329 210.443 168.42C210.898 167.511 211.536 166.785 212.357 166.242C213.179 165.699 214.132 165.428 215.217 165.428C216.317 165.428 217.271 165.677 218.077 166.176C218.884 166.66 219.5 167.335 219.925 168.2C220.365 169.065 220.585 170.055 220.585 171.17C220.585 171.39 220.563 171.581 220.519 171.742H211.653C211.697 172.593 211.903 173.311 212.269 173.898C212.636 174.485 213.098 174.925 213.655 175.218C214.227 175.511 214.821 175.658 215.437 175.658C216.875 175.658 217.982 174.983 218.759 173.634L220.343 174.404C219.859 175.313 219.199 176.032 218.363 176.56C217.542 177.088 216.545 177.352 215.371 177.352ZM218.605 170.202C218.576 169.733 218.444 169.263 218.209 168.794C217.975 168.325 217.601 167.929 217.087 167.606C216.589 167.283 215.958 167.122 215.195 167.122C214.315 167.122 213.567 167.408 212.951 167.98C212.35 168.537 211.954 169.278 211.763 170.202H218.605ZM226.797 177.352C225.594 177.352 224.59 177.073 223.783 176.516C222.976 175.944 222.404 175.218 222.067 174.338L223.739 173.59C224.018 174.265 224.428 174.785 224.971 175.152C225.528 175.519 226.137 175.702 226.797 175.702C227.501 175.702 228.102 175.563 228.601 175.284C229.1 174.991 229.349 174.58 229.349 174.052C229.349 173.583 229.151 173.209 228.755 172.93C228.359 172.637 227.736 172.387 226.885 172.182L225.521 171.83C224.626 171.61 223.893 171.236 223.321 170.708C222.749 170.18 222.463 169.498 222.463 168.662C222.463 168.017 222.654 167.452 223.035 166.968C223.431 166.469 223.952 166.088 224.597 165.824C225.242 165.56 225.939 165.428 226.687 165.428C227.67 165.428 228.542 165.641 229.305 166.066C230.082 166.491 230.632 167.085 230.955 167.848L229.327 168.596C228.828 167.599 227.941 167.1 226.665 167.1C226.049 167.1 225.506 167.247 225.037 167.54C224.582 167.819 224.355 168.178 224.355 168.618C224.355 169.029 224.516 169.366 224.839 169.63C225.162 169.879 225.646 170.085 226.291 170.246L227.919 170.664C229.019 170.943 229.848 171.361 230.405 171.918C230.962 172.461 231.241 173.128 231.241 173.92C231.241 174.609 231.043 175.218 230.647 175.746C230.251 176.259 229.716 176.655 229.041 176.934C228.366 177.213 227.618 177.352 226.797 177.352ZM238.381 177.352C237.31 177.352 236.35 177.095 235.499 176.582C234.648 176.069 233.981 175.365 233.497 174.47C233.028 173.561 232.793 172.541 232.793 171.412C232.793 170.327 233.013 169.329 233.453 168.42C233.908 167.511 234.546 166.785 235.367 166.242C236.188 165.699 237.142 165.428 238.227 165.428C239.327 165.428 240.28 165.677 241.087 166.176C241.894 166.66 242.51 167.335 242.935 168.2C243.375 169.065 243.595 170.055 243.595 171.17C243.595 171.39 243.573 171.581 243.529 171.742H234.663C234.707 172.593 234.912 173.311 235.279 173.898C235.646 174.485 236.108 174.925 236.665 175.218C237.237 175.511 237.831 175.658 238.447 175.658C239.884 175.658 240.992 174.983 241.769 173.634L243.353 174.404C242.869 175.313 242.209 176.032 241.373 176.56C240.552 177.088 239.554 177.352 238.381 177.352ZM241.615 170.202C241.586 169.733 241.454 169.263 241.219 168.794C240.984 168.325 240.61 167.929 240.097 167.606C239.598 167.283 238.968 167.122 238.205 167.122C237.325 167.122 236.577 167.408 235.961 167.98C235.36 168.537 234.964 169.278 234.773 170.202H241.615ZM78.3926 205.352C77.5419 205.352 76.7719 205.161 76.0826 204.78C75.4079 204.384 74.9019 203.907 74.5646 203.35H74.4766V205H72.6946V189.248H74.5646V193.89L74.4766 195.452H74.5646C74.9019 194.88 75.4079 194.403 76.0826 194.022C76.7719 193.626 77.5419 193.428 78.3926 193.428C79.3899 193.428 80.2993 193.685 81.1206 194.198C81.9419 194.711 82.5873 195.423 83.0566 196.332C83.5259 197.241 83.7606 198.261 83.7606 199.39C83.7606 200.534 83.5259 201.561 83.0566 202.47C82.5873 203.365 81.9419 204.069 81.1206 204.582C80.2993 205.095 79.3899 205.352 78.3926 205.352ZM78.1726 203.658C78.8179 203.658 79.4266 203.482 79.9986 203.13C80.5706 202.778 81.0253 202.279 81.3626 201.634C81.7146 200.974 81.8906 200.226 81.8906 199.39C81.8906 198.554 81.7146 197.813 81.3626 197.168C81.0253 196.508 80.5706 196.002 79.9986 195.65C79.4266 195.298 78.8179 195.122 78.1726 195.122C77.5273 195.122 76.9186 195.298 76.3466 195.65C75.7746 196.002 75.3199 196.501 74.9826 197.146C74.6453 197.791 74.4766 198.539 74.4766 199.39C74.4766 200.241 74.6453 200.989 74.9826 201.634C75.3199 202.279 75.7746 202.778 76.3466 203.13C76.9186 203.482 77.5273 203.658 78.1726 203.658ZM89.8915 205.352C88.5422 205.352 87.5082 204.956 86.7895 204.164C86.0855 203.372 85.7335 202.265 85.7335 200.842V193.78H87.6035V200.556C87.6035 201.627 87.8455 202.411 88.3295 202.91C88.8135 203.409 89.4662 203.658 90.2875 203.658C90.9182 203.658 91.4755 203.489 91.9595 203.152C92.4582 202.815 92.8395 202.375 93.1035 201.832C93.3822 201.289 93.5215 200.717 93.5215 200.116V193.78H95.3915V205H93.6095V203.372H93.5215C93.2135 203.929 92.7222 204.399 92.0475 204.78C91.3729 205.161 90.6542 205.352 89.8915 205.352ZM98.1536 193.78H99.9356V195.584H100.024C100.244 194.968 100.669 194.462 101.3 194.066C101.93 193.655 102.59 193.45 103.28 193.45C103.793 193.45 104.233 193.523 104.6 193.67V195.694C104.13 195.459 103.602 195.342 103.016 195.342C102.473 195.342 101.974 195.496 101.52 195.804C101.065 196.112 100.698 196.53 100.42 197.058C100.156 197.571 100.024 198.129 100.024 198.73V205H98.1536V193.78ZM110.773 210.104C109.453 210.104 108.36 209.796 107.495 209.18C106.644 208.564 106.072 207.823 105.779 206.958L107.473 206.232C107.722 206.877 108.133 207.398 108.705 207.794C109.292 208.205 109.981 208.41 110.773 208.41C111.932 208.41 112.826 208.073 113.457 207.398C114.102 206.723 114.425 205.77 114.425 204.538V203.284H114.337C113.97 203.856 113.45 204.325 112.775 204.692C112.115 205.044 111.36 205.22 110.509 205.22C109.541 205.22 108.654 204.971 107.847 204.472C107.055 203.973 106.424 203.277 105.955 202.382C105.486 201.487 105.251 200.468 105.251 199.324C105.251 198.195 105.486 197.183 105.955 196.288C106.424 195.379 107.055 194.675 107.847 194.176C108.654 193.677 109.541 193.428 110.509 193.428C111.36 193.428 112.115 193.611 112.775 193.978C113.45 194.33 113.97 194.799 114.337 195.386H114.425V193.78H116.207V204.56C116.207 206.364 115.708 207.735 114.711 208.674C113.714 209.627 112.401 210.104 110.773 210.104ZM110.773 203.526C111.448 203.526 112.056 203.357 112.599 203.02C113.156 202.683 113.596 202.199 113.919 201.568C114.256 200.937 114.425 200.189 114.425 199.324C114.425 198.444 114.256 197.689 113.919 197.058C113.596 196.427 113.156 195.951 112.599 195.628C112.056 195.291 111.448 195.122 110.773 195.122C110.098 195.122 109.482 195.291 108.925 195.628C108.368 195.965 107.92 196.449 107.583 197.08C107.26 197.711 107.099 198.459 107.099 199.324C107.099 200.189 107.26 200.945 107.583 201.59C107.92 202.221 108.368 202.705 108.925 203.042C109.482 203.365 110.098 203.526 110.773 203.526ZM123.859 205.352C122.788 205.352 121.827 205.095 120.977 204.582C120.126 204.069 119.459 203.365 118.975 202.47C118.505 201.561 118.271 200.541 118.271 199.412C118.271 198.327 118.491 197.329 118.931 196.42C119.385 195.511 120.023 194.785 120.845 194.242C121.666 193.699 122.619 193.428 123.705 193.428C124.805 193.428 125.758 193.677 126.565 194.176C127.371 194.66 127.987 195.335 128.413 196.2C128.853 197.065 129.073 198.055 129.073 199.17C129.073 199.39 129.051 199.581 129.007 199.742H120.141C120.185 200.593 120.39 201.311 120.757 201.898C121.123 202.485 121.585 202.925 122.143 203.218C122.715 203.511 123.309 203.658 123.925 203.658C125.362 203.658 126.469 202.983 127.247 201.634L128.831 202.404C128.347 203.313 127.687 204.032 126.851 204.56C126.029 205.088 125.032 205.352 123.859 205.352ZM127.093 198.202C127.063 197.733 126.931 197.263 126.697 196.794C126.462 196.325 126.088 195.929 125.575 195.606C125.076 195.283 124.445 195.122 123.683 195.122C122.803 195.122 122.055 195.408 121.439 195.98C120.837 196.537 120.441 197.278 120.251 198.202H127.093ZM131.261 193.78H133.043V195.584H133.131C133.351 194.968 133.776 194.462 134.407 194.066C135.038 193.655 135.698 193.45 136.387 193.45C136.9 193.45 137.34 193.523 137.707 193.67V195.694C137.238 195.459 136.71 195.342 136.123 195.342C135.58 195.342 135.082 195.496 134.627 195.804C134.172 196.112 133.806 196.53 133.527 197.058C133.263 197.571 133.131 198.129 133.131 198.73V205H131.261V193.78ZM150.838 191.712C150.471 191.712 150.156 191.58 149.892 191.316C149.628 191.052 149.496 190.737 149.496 190.37C149.496 190.003 149.628 189.695 149.892 189.446C150.156 189.182 150.471 189.05 150.838 189.05C151.204 189.05 151.52 189.182 151.784 189.446C152.048 189.695 152.18 190.003 152.18 190.37C152.18 190.737 152.048 191.052 151.784 191.316C151.534 191.58 151.219 191.712 150.838 191.712ZM149.914 193.78H151.762V205H149.914V193.78ZM158.616 205.352C157.414 205.352 156.409 205.073 155.602 204.516C154.796 203.944 154.224 203.218 153.886 202.338L155.558 201.59C155.837 202.265 156.248 202.785 156.79 203.152C157.348 203.519 157.956 203.702 158.616 203.702C159.32 203.702 159.922 203.563 160.42 203.284C160.919 202.991 161.168 202.58 161.168 202.052C161.168 201.583 160.97 201.209 160.574 200.93C160.178 200.637 159.555 200.387 158.704 200.182L157.34 199.83C156.446 199.61 155.712 199.236 155.14 198.708C154.568 198.18 154.282 197.498 154.282 196.662C154.282 196.017 154.473 195.452 154.854 194.968C155.25 194.469 155.771 194.088 156.416 193.824C157.062 193.56 157.758 193.428 158.506 193.428C159.489 193.428 160.362 193.641 161.124 194.066C161.902 194.491 162.452 195.085 162.774 195.848L161.146 196.596C160.648 195.599 159.76 195.1 158.484 195.1C157.868 195.1 157.326 195.247 156.856 195.54C156.402 195.819 156.174 196.178 156.174 196.618C156.174 197.029 156.336 197.366 156.658 197.63C156.981 197.879 157.465 198.085 158.11 198.246L159.738 198.664C160.838 198.943 161.667 199.361 162.224 199.918C162.782 200.461 163.06 201.128 163.06 201.92C163.06 202.609 162.862 203.218 162.466 203.746C162.07 204.259 161.535 204.655 160.86 204.934C160.186 205.213 159.438 205.352 158.616 205.352ZM173.798 205.352C172.977 205.352 172.244 205.191 171.598 204.868C170.953 204.545 170.454 204.105 170.102 203.548C169.75 202.976 169.574 202.331 169.574 201.612C169.574 200.424 170.022 199.5 170.916 198.84C171.811 198.165 172.94 197.828 174.304 197.828C174.979 197.828 175.602 197.901 176.174 198.048C176.761 198.195 177.208 198.363 177.516 198.554V197.872C177.516 197.036 177.223 196.369 176.636 195.87C176.05 195.357 175.309 195.1 174.414 195.1C173.784 195.1 173.204 195.239 172.676 195.518C172.148 195.782 171.73 196.156 171.422 196.64L170.014 195.584C170.454 194.909 171.056 194.381 171.818 194C172.596 193.619 173.454 193.428 174.392 193.428C175.918 193.428 177.113 193.831 177.978 194.638C178.858 195.43 179.298 196.515 179.298 197.894V205H177.516V203.394H177.428C177.106 203.937 176.622 204.399 175.976 204.78C175.331 205.161 174.605 205.352 173.798 205.352ZM173.974 203.702C174.605 203.702 175.192 203.541 175.734 203.218C176.277 202.895 176.71 202.463 177.032 201.92C177.355 201.377 177.516 200.783 177.516 200.138C177.164 199.903 176.732 199.713 176.218 199.566C175.705 199.419 175.162 199.346 174.59 199.346C173.564 199.346 172.786 199.559 172.258 199.984C171.745 200.409 171.488 200.959 171.488 201.634C171.488 202.25 171.723 202.749 172.192 203.13C172.662 203.511 173.256 203.702 173.974 203.702ZM187.013 193.78H188.795V195.43H188.883C189.206 194.858 189.69 194.381 190.335 194C190.98 193.619 191.662 193.428 192.381 193.428C193.202 193.428 193.914 193.626 194.515 194.022C195.131 194.418 195.571 194.946 195.835 195.606C196.231 194.946 196.752 194.418 197.397 194.022C198.057 193.626 198.82 193.428 199.685 193.428C200.976 193.428 201.944 193.824 202.589 194.616C203.249 195.393 203.579 196.457 203.579 197.806V205H201.731V198.092C201.731 197.051 201.518 196.295 201.093 195.826C200.668 195.357 200.037 195.122 199.201 195.122C198.644 195.122 198.138 195.283 197.683 195.606C197.228 195.929 196.869 196.361 196.605 196.904C196.356 197.447 196.231 198.033 196.231 198.664V205H194.361V198.114C194.361 197.058 194.148 196.295 193.723 195.826C193.298 195.357 192.674 195.122 191.853 195.122C191.296 195.122 190.79 195.291 190.335 195.628C189.88 195.951 189.521 196.391 189.257 196.948C189.008 197.491 188.883 198.077 188.883 198.708V205H187.013V193.78ZM210.333 205.352C208.984 205.352 207.95 204.956 207.231 204.164C206.527 203.372 206.175 202.265 206.175 200.842V193.78H208.045V200.556C208.045 201.627 208.287 202.411 208.771 202.91C209.255 203.409 209.908 203.658 210.729 203.658C211.36 203.658 211.917 203.489 212.401 203.152C212.9 202.815 213.281 202.375 213.545 201.832C213.824 201.289 213.963 200.717 213.963 200.116V193.78H215.833V205H214.051V203.372H213.963C213.655 203.929 213.164 204.399 212.489 204.78C211.814 205.161 211.096 205.352 210.333 205.352ZM222.404 205.352C221.201 205.352 220.196 205.073 219.39 204.516C218.583 203.944 218.011 203.218 217.674 202.338L219.346 201.59C219.624 202.265 220.035 202.785 220.578 203.152C221.135 203.519 221.744 203.702 222.404 203.702C223.108 203.702 223.709 203.563 224.208 203.284C224.706 202.991 224.956 202.58 224.956 202.052C224.956 201.583 224.758 201.209 224.362 200.93C223.966 200.637 223.342 200.387 222.492 200.182L221.128 199.83C220.233 199.61 219.5 199.236 218.928 198.708C218.356 198.18 218.07 197.498 218.07 196.662C218.07 196.017 218.26 195.452 218.642 194.968C219.038 194.469 219.558 194.088 220.204 193.824C220.849 193.56 221.546 193.428 222.294 193.428C223.276 193.428 224.149 193.641 224.912 194.066C225.689 194.491 226.239 195.085 226.562 195.848L224.934 196.596C224.435 195.599 223.548 195.1 222.272 195.1C221.656 195.1 221.113 195.247 220.644 195.54C220.189 195.819 219.962 196.178 219.962 196.618C219.962 197.029 220.123 197.366 220.446 197.63C220.768 197.879 221.252 198.085 221.898 198.246L223.526 198.664C224.626 198.943 225.454 199.361 226.012 199.918C226.569 200.461 226.848 201.128 226.848 201.92C226.848 202.609 226.65 203.218 226.254 203.746C225.858 204.259 225.322 204.655 224.648 204.934C223.973 205.213 223.225 205.352 222.404 205.352ZM233.091 205.176C232.636 205.176 232.211 205.103 231.815 204.956C231.433 204.809 231.111 204.611 230.847 204.362C230.553 204.083 230.333 203.761 230.187 203.394C230.04 203.027 229.967 202.58 229.967 202.052V195.474H228.009V193.78H229.967V190.612H231.837V193.78H234.565V195.474H231.837V201.59C231.837 202.206 231.954 202.661 232.189 202.954C232.467 203.277 232.871 203.438 233.399 203.438C233.824 203.438 234.235 203.313 234.631 203.064V204.89C234.411 204.993 234.183 205.066 233.949 205.11C233.729 205.154 233.443 205.176 233.091 205.176ZM238.067 205.132C237.671 205.132 237.334 205 237.055 204.736C236.791 204.457 236.659 204.12 236.659 203.724C236.659 203.343 236.791 203.02 237.055 202.756C237.334 202.477 237.671 202.338 238.067 202.338C238.449 202.338 238.771 202.477 239.035 202.756C239.314 203.02 239.453 203.343 239.453 203.724C239.453 204.12 239.314 204.457 239.035 204.736C238.771 205 238.449 205.132 238.067 205.132Z" fill="#444444"/>
<path d="M104.5 247L106.408 252.873L112.584 252.873L107.588 256.503L109.496 262.377L104.5 258.747L99.5038 262.377L101.412 256.503L96.416 252.873L102.592 252.873L104.5 247Z" fill="#5F6368"/>
<path d="M130.5 247L132.408 252.873L138.584 252.873L133.588 256.503L135.496 262.377L130.5 258.747L125.504 262.377L127.412 256.503L122.416 252.873L128.592 252.873L130.5 247Z" fill="#5F6368"/>
<path d="M156.5 247L158.408 252.873L164.584 252.873L159.588 256.503L161.496 262.377L156.5 258.747L151.504 262.377L153.412 256.503L148.416 252.873L154.592 252.873L156.5 247Z" fill="#5F6368"/>
<path d="M182.5 247L184.408 252.873L190.584 252.873L185.588 256.503L187.496 262.377L182.5 258.747L177.504 262.377L179.412 256.503L174.416 252.873L180.592 252.873L182.5 247Z" fill="#5F6368"/>
<path d="M208.5 247L210.408 252.873L216.584 252.873L211.588 256.503L213.496 262.377L208.5 258.747L203.504 262.377L205.412 256.503L200.416 252.873L206.592 252.873L208.5 247Z" fill="#5F6368"/>
<rect x="16" y="-31" width="280" height="63" rx="6" fill="url(#paint0_linear)"/>
<rect opacity="0.5" x="16" y="-31" width="280" height="63" rx="6" fill="url(#paint1_linear)"/>
<rect x="296" y="424" width="280" height="63" rx="6" transform="rotate(180 296 424)" fill="url(#paint2_linear)"/>
<rect opacity="0.5" x="296" y="424" width="280" height="63" rx="6" transform="rotate(180 296 424)" fill="url(#paint3_linear)"/>
</g>
<defs>
<linearGradient id="paint0_linear" x1="156" y1="4.65484e-07" x2="156" y2="20.5" gradientUnits="userSpaceOnUse">
<stop stop-color="#F3F3F3"/>
<stop offset="1" stop-color="#F3F3F3" stop-opacity="0"/>
</linearGradient>
<linearGradient id="paint1_linear" x1="156" y1="4.65484e-07" x2="156" y2="20.5" gradientUnits="userSpaceOnUse">
<stop stop-color="#F3F3F3"/>
<stop offset="1" stop-color="#F3F3F3" stop-opacity="0"/>
</linearGradient>
<linearGradient id="paint2_linear" x1="436" y1="455" x2="436" y2="475.5" gradientUnits="userSpaceOnUse">
<stop stop-color="#F3F3F3"/>
<stop offset="1" stop-color="#F3F3F3" stop-opacity="0"/>
</linearGradient>
<linearGradient id="paint3_linear" x1="436" y1="455" x2="436" y2="475.5" gradientUnits="userSpaceOnUse">
<stop stop-color="#F3F3F3"/>
<stop offset="1" stop-color="#F3F3F3" stop-opacity="0"/>
</linearGradient>
<clipPath id="clip0">
<rect width="312" height="393" fill="white"/>
</clipPath>
</defs>
</svg>
