<svg width="1440" height="400" viewBox="0 0 1440 400" fill="none" xmlns="http://www.w3.org/2000/svg">
<g clip-path="url(#clip0)">
<g style="mix-blend-mode:multiply" opacity="0.5">
<path d="M-532.408 282.633C1774.18 298.158 1402.37 141.639 2127.68 146.521L2129.29 300.548L-532.408 282.633Z" fill="#FCDE8D"/>
</g>
<g style="mix-blend-mode:multiply" opacity="0.5">
<path d="M1608.45 132.503C1858.14 113.18 1883.06 157.463 2100.84 159.944L2119.48 251.336L-9.83166 391.064L-57.0876 159.345C413.136 128.489 806.99 244.848 991.826 232.719C1176.66 220.59 1298.66 156.479 1608.45 132.503Z" fill="#FCDE8D"/>
</g>
<g style="mix-blend-mode:multiply" opacity="0.5">
<path d="M-293.719 360.583L2113.59 292.331L2107.35 232.552C1909.45 248.327 1690.81 264.043 1376.15 272.964C554.156 296.269 297.084 204.333 -311.655 188.73L-293.719 360.583Z" fill="#FCDE8D"/>
</g>
<path d="M2104.54 421.649L-522 432L-520.015 268.43C-153.953 294.918 175.31 228.75 651.993 237.704C1353.48 250.881 1337.24 314.776 2106.89 298.823L2104.54 421.649Z" fill="white"/>
<circle cx="1151.5" cy="166.5" r="6" fill="#FBBC05" stroke="#FBBC05"/>
<circle r="17" transform="matrix(1 0 0 -1 1360.5 54.5)" fill="#FBBC05" stroke="#FBBC05"/>
<circle cx="140" cy="184" r="8.5" fill="#FBBC05" stroke="#FBBC05"/>
<circle cx="958.25" cy="233.25" r="73.75" fill="#FBBC05" stroke="#FBBC05"/>
<path d="M981.589 203.576C981.589 199.951 978.649 197.011 975.023 197.011C971.398 197.011 968.458 199.951 968.458 203.576C968.458 207.202 971.398 210.142 975.023 210.142C978.649 210.142 981.589 207.202 981.589 203.576Z" fill="white"/>
<path d="M981.589 265.945C981.589 262.319 978.649 259.38 975.023 259.38C971.398 259.38 968.458 262.319 968.458 265.945C968.458 269.571 971.398 272.51 975.023 272.51C978.649 272.51 981.589 269.571 981.589 265.945Z" fill="white"/>
<path d="M981.589 233.121C981.589 229.495 978.649 226.556 975.023 226.556C971.398 226.556 968.458 229.495 968.458 233.121C968.458 236.747 971.398 239.686 975.023 239.686C978.649 239.686 981.589 236.747 981.589 233.121Z" fill="white"/>
<path d="M952.167 211.34C955.793 211.34 958.732 214.279 958.732 217.905C958.732 221.531 955.793 224.47 952.167 224.47C948.541 224.47 945.602 221.531 945.602 217.905C945.602 214.279 948.541 211.34 952.167 211.34Z" fill="white"/>
<path d="M958.612 249.529C958.612 245.903 955.673 242.964 952.047 242.964C948.421 242.964 945.482 245.903 945.482 249.529C945.482 253.155 948.421 256.094 952.047 256.094C955.673 256.094 958.612 253.155 958.612 249.529Z" fill="white"/>
<path d="M938.919 233.121C938.919 229.495 935.98 226.556 932.354 226.556C928.728 226.556 925.789 229.495 925.789 233.121C925.789 236.747 928.728 239.686 932.354 239.686C935.98 239.686 938.919 236.747 938.919 233.121Z" fill="white"/>
<path d="M953.246 248.873L933.255 234.311L953.246 219.749L973.238 234.311L953.246 248.873Z" stroke="white" stroke-width="2.92"/>
<path d="M952.064 249.532L975.03 265.945" stroke="white" stroke-width="2.92"/>
<path d="M955.347 216.716L975.03 203.573" stroke="white" stroke-width="2.92"/>
<circle cx="609.5" cy="102.5" r="13.05" fill="#FBBC05" stroke="#FBBC05" stroke-width="0.9"/>
</g>
<defs>
<clipPath id="clip0">
<rect width="1440" height="400" fill="white"/>
</clipPath>
</defs>
</svg>
