<svg width="68" height="71" viewBox="0 0 68 71" fill="none" xmlns="http://www.w3.org/2000/svg">
<path d="M65.7053 0H1.44994C0.648658 0 0 0.648658 0 1.44994C0 1.44994 0 37.1643 0 37.4696C0.457877 55.632 15.3007 70.2077 33.5776 70.2077C51.8545 70.2077 66.6974 55.632 67.1552 37.4314C67.1552 37.1643 67.1552 1.41179 67.1552 1.41179C67.1552 0.648658 66.5066 0 65.7053 0Z" fill="#4285F4"/>
<path d="M51.3973 15.606H15.7593V59.0279H51.3973V15.606Z" fill="white"/>
<path d="M33.5819 40.255C37.3329 40.255 40.3737 37.2142 40.3737 33.4632C40.3737 29.7122 37.3329 26.6714 33.5819 26.6714C29.8308 26.6714 26.79 29.7122 26.79 33.4632C26.79 37.2142 29.8308 40.255 33.5819 40.255Z" fill="#919191"/>
<path d="M33.5773 52.4269L19.9937 42.2773H47.161L33.5773 52.4269Z" fill="#919191"/>
<path d="M33.5819 40.255C37.3329 40.255 40.3737 37.2142 40.3737 33.4632C40.3737 29.7122 37.3329 26.6714 33.5819 26.6714C29.8308 26.6714 26.79 29.7122 26.79 33.4632C26.79 37.2142 29.8308 40.255 33.5819 40.255Z" fill="#919191"/>
<path d="M33.5773 52.4269L19.9937 42.2773H47.161L33.5773 52.4269Z" fill="#919191"/>
<path d="M1.44994 0C0.648658 0 0 0.648658 0 1.44994C0 1.44994 0 37.1643 0 37.4696C0.267095 49.1073 6.48658 59.295 15.7204 65.0948V0H1.44994Z" fill="#FBBC05"/>
<path d="M33.5395 58.2266L0 35.0657C0 36.5156 0 37.3932 0 37.4314C0.305251 50.8243 8.47071 62.2712 20.0703 67.346L33.5395 58.2266Z" fill="#57B972"/>
<path d="M33.5796 70.2078C51.8565 70.2078 66.6994 55.632 67.1572 37.4314C67.1572 37.3933 67.1572 36.6683 67.1572 35.4091L20.0723 67.3842C24.1932 69.1775 28.7719 70.2078 33.5796 70.2078Z" fill="#EA4335"/>
</svg>
